<svg width="173" height="173" viewBox="0 0 173 173" fill="none" xmlns="http://www.w3.org/2000/svg">
<g opacity="0.4">
<path d="M162.299 74.1077C161.721 72.7953 161.088 71.4907 160.456 70.1783C159.194 67.5456 157.937 64.8657 156.856 62.0719C155.738 59.2488 154.819 56.351 154.106 53.3997C153.925 52.6531 153.768 51.8986 153.615 51.1442C153.461 50.3897 153.336 49.5724 153.202 48.9516C152.935 47.6116 152.605 46.3031 152.227 45.0221C151.854 43.7749 151.415 42.5485 150.911 41.3481C150.439 40.1874 149.891 39.0585 149.273 37.9688C148.117 35.8808 146.703 33.9467 145.064 32.2122C141.889 28.8015 137.716 26.3849 133.079 24.8564C131.924 24.4634 130.722 24.1569 129.543 23.8936C128.946 23.764 128.364 23.65 127.767 23.5479L126.702 23.3789C126.309 23.3121 125.916 23.2571 125.523 23.1746C122.319 22.5806 119.179 21.6792 116.148 20.4829C113.232 19.2802 110.408 17.8657 107.699 16.2509C105.122 14.7538 102.799 13.3471 100.473 12.2351C99.3201 11.6772 98.1398 11.1775 96.9367 10.7379C96.3394 10.514 95.7343 10.3136 95.1252 10.121L94.249 9.86168C93.9896 9.78702 93.7342 9.71236 93.4631 9.64949C92.4673 9.39741 91.4449 9.26549 90.4178 9.25655C89.4574 9.26094 88.5034 9.412 87.5886 9.7045C86.6935 9.98477 85.8659 10.4466 85.1573 11.0612C84.4488 11.6758 83.8746 12.4299 83.4706 13.2763C83.0137 14.2323 82.7468 15.2679 82.6847 16.3256C82.6276 17.5048 82.7455 18.6859 83.0344 19.8306C83.7212 22.3573 84.921 24.7155 86.5591 26.7582C88.2291 28.9124 90.2479 30.7718 92.5318 32.2594C94.8801 33.7738 97.3927 35.0169 100.021 35.9648C102.674 36.959 105.44 37.737 108.273 38.5425C111.106 39.3481 114.03 40.189 116.969 41.6861C118.521 42.4584 119.957 43.4437 121.236 44.6135C121.566 44.9239 121.888 45.25 122.199 45.588C122.509 45.9259 122.796 46.2953 123.063 46.6489C123.598 47.3562 124.061 48.0596 124.494 48.763C126.072 51.4295 127.443 54.2131 128.596 57.0894C129.166 58.4686 129.716 59.84 130.223 61.2153C130.73 62.5906 131.244 63.9659 131.72 65.3097C133.637 70.7481 135.347 76.1235 137.284 81.161C138.193 83.5929 139.275 85.9566 140.522 88.234C141.086 89.2651 141.744 90.2424 142.486 91.1535C142.83 91.5753 143.205 91.9695 143.61 92.3324C143.803 92.5171 144.003 92.6742 144.204 92.8393L144.51 93.0672C144.624 93.1497 144.773 93.2361 144.903 93.3187C146.974 94.68 149.353 95.4988 151.823 95.6999C153.693 95.8037 155.554 95.3745 157.19 94.4621C157.746 94.1376 158.272 93.7641 158.762 93.3462C160.786 91.6644 162.212 89.1653 162.982 86.4854C163.728 83.7483 163.934 80.8921 163.587 78.0764C163.339 76.7015 162.905 75.3665 162.299 74.1077ZM164.393 86.8233C163.849 89.8729 162.559 92.7403 160.636 95.1694C160.124 95.7943 159.557 96.3728 158.943 96.8984C158.322 97.4435 157.653 97.9302 156.943 98.3522C155.486 99.2156 153.891 99.8192 152.227 100.136C150.558 100.457 148.85 100.534 147.159 100.364C145.493 100.198 143.85 99.8525 142.259 99.3346C142.058 99.2678 141.866 99.2128 141.657 99.1342L140.993 98.8749C140.562 98.6933 140.139 98.49 139.728 98.2658C138.92 97.8336 138.149 97.3368 137.421 96.7805C136.714 96.2527 136.045 95.6763 135.417 95.0555C134.793 94.4543 134.219 93.8295 133.669 93.1968C131.62 90.717 129.871 88.004 128.458 85.114C125.688 79.5578 123.885 73.8602 122.333 68.2489C121.94 66.8461 121.586 65.4433 121.232 64.0484L120.187 59.9068C119.829 58.5433 119.495 57.1837 119.114 55.8713C118.733 54.5588 118.364 53.2621 117.916 52.0794C117.692 51.486 117.456 50.9202 117.209 50.4094C117.087 50.154 116.961 49.9182 116.835 49.6864C116.71 49.4545 116.556 49.2227 116.403 48.9948C115.723 48.0246 114.905 47.1589 113.975 46.4249C112.01 44.8532 109.475 43.5683 106.862 42.4444C101.613 40.1575 95.8875 38.3539 90.6654 35.1986C89.3539 34.4049 88.0891 33.5364 86.8774 32.5973C85.6576 31.64 84.5049 30.6002 83.4274 29.4852C81.1693 27.209 79.3239 24.5578 77.9733 21.6499C77.2688 20.0679 76.7963 18.3924 76.5705 16.6753C76.3229 14.83 76.4242 12.9545 76.8692 11.1466C77.3419 9.23671 78.2167 7.44965 79.4351 5.90476C80.6709 4.33721 82.2106 3.03542 83.9618 2.0775C85.6753 1.14925 87.5364 0.524431 89.463 0.230671C91.321 -0.0556893 93.2105 -0.0755362 95.0742 0.17173C95.5339 0.226742 95.9819 0.301401 96.4337 0.379989L97.6126 0.623613C98.3984 0.800437 99.1843 0.989049 99.9702 1.2091C101.534 1.64204 103.073 2.15618 104.583 2.74943C107.585 3.92826 110.336 5.33106 112.874 6.55311C115.237 7.74202 117.679 8.76611 120.183 9.61806C122.595 10.4139 125.07 11.0041 127.582 11.3824L129.625 11.681C130.47 11.8067 131.299 11.9521 132.121 12.1368C133.762 12.4853 135.379 12.9395 136.962 13.4964C140.178 14.6048 143.23 16.1419 146.035 18.0663C148.895 20.0271 151.432 22.4213 153.556 25.1628C155.649 27.8887 157.258 30.9536 158.314 34.2241C159.306 37.356 159.845 40.6138 159.913 43.8983C159.955 45.4715 159.907 47.0457 159.772 48.6136C159.709 49.431 159.634 50.0557 159.572 50.7591C159.509 51.4625 159.465 52.1423 159.442 52.8338C159.313 55.6396 159.464 58.4514 159.894 61.2271C160.126 62.6259 160.397 64.0248 160.758 65.408C161.12 66.7911 161.544 68.1586 162.012 69.526C162.479 70.8934 163.002 72.2412 163.505 73.6165C163.752 74.3042 164.008 74.9918 164.224 75.707C164.461 76.4347 164.628 77.1834 164.723 77.9428C165.056 80.9023 164.95 83.8948 164.409 86.8233H164.393Z" fill="#EBEBEB"/>
<path d="M40.271 158.331L37.7523 157.966C36.9114 157.84 36.0705 157.722 35.2296 157.573C34.3887 157.423 33.5478 157.29 32.703 157.152C31.8582 157.015 31.0212 156.854 30.1764 156.704C26.7548 156.101 23.3742 155.284 20.0542 154.26C18.3469 153.72 16.6716 153.084 15.0363 152.354C13.3414 151.587 11.7142 150.679 10.1717 149.639C9.37696 149.096 8.60977 148.514 7.87302 147.894C7.49972 147.572 7.14608 147.222 6.78457 146.885C6.60382 146.712 6.41913 146.543 6.24231 146.362L5.73935 145.796C4.32355 144.25 3.15217 142.497 2.26574 140.597C2.04177 140.106 1.82172 139.615 1.61739 139.116C1.41306 138.617 1.28339 138.087 1.11835 137.568C1.03976 137.309 0.953318 137.049 0.886518 136.782L0.717553 135.996C0.607529 135.462 0.485718 134.927 0.4032 134.393L0.242094 132.782C0.218517 132.511 0.183152 132.24 0.175293 131.972V129.564C0.210658 129.041 0.26174 128.518 0.308893 127.992C0.40119 126.956 0.554704 125.926 0.768634 124.907L0.910093 124.145L1.0987 123.406L1.49165 121.933C1.61739 121.434 1.77064 120.974 1.91995 120.51C2.06927 120.047 2.21073 119.583 2.37576 119.111C2.72155 118.172 3.0477 117.237 3.47993 116.29C4.30929 114.305 5.34864 112.415 6.58024 110.651C7.87097 108.801 9.39359 107.124 11.1109 105.661C12.728 104.308 14.4685 103.109 16.3095 102.081C18.0423 101.111 19.7202 100.286 21.3548 99.5547C24.628 98.0772 27.7205 96.7727 30.7854 95.4131C36.8859 92.7209 42.816 89.6581 48.5425 86.2418L49.6231 85.5974L50.6958 84.9333C51.407 84.4854 52.1261 84.0531 52.8334 83.5934L57.199 80.7721C57.9534 80.2769 58.7354 79.8172 59.5055 79.3378C60.2757 78.8584 61.0773 78.434 61.8632 77.9822C62.6491 77.5303 63.4546 77.1138 64.2562 76.6894C65.0578 76.265 65.879 75.876 66.6964 75.4791C68.3389 74.6932 70.0076 73.9728 71.7024 73.3179L72.9756 72.8346L74.2683 72.3867C75.121 72.0762 76.0012 71.8248 76.8657 71.5497C78.6182 71.0428 80.3786 70.5752 82.1743 70.2412C83.9641 69.8824 85.7735 69.6292 87.593 69.4828C91.2298 69.1428 94.8969 69.3468 98.4735 70.088C99.3655 70.2648 100.242 70.5163 101.118 70.7638L102.407 71.2C102.835 71.3454 103.248 71.5379 103.672 71.703C105.342 72.3999 106.939 73.258 108.442 74.2649C109.921 75.2853 111.304 76.4388 112.572 77.711C112.879 78.0372 113.193 78.3476 113.5 78.6895L114.388 79.7661C114.967 80.5237 115.473 81.3341 115.901 82.1866C116.774 83.9635 117.233 85.9159 117.24 87.8961C117.223 89.8368 116.898 91.7626 116.278 93.6016C115.692 95.368 114.971 97.0864 114.12 98.7413C113.728 99.5665 113.291 100.364 112.859 101.162L111.531 103.519C109.743 106.616 107.908 109.61 106.289 112.616C105.484 114.113 104.717 115.606 104.081 117.088C103.442 118.494 102.928 119.953 102.544 121.449C102.208 122.872 101.994 124.321 101.904 125.78C101.803 127.326 101.78 128.876 101.837 130.424L101.884 131.603L101.955 132.813C102.01 133.627 102.053 134.44 102.124 135.269L102.517 140.342C102.847 143.974 102.914 147.625 102.717 151.266C102.586 153.252 102.291 155.223 101.833 157.16C101.347 159.224 100.606 161.22 99.6288 163.101C98.6291 165.021 97.3543 166.784 95.8448 168.335C95.4361 168.731 95.0235 169.124 94.607 169.514C94.1551 169.876 93.6915 170.229 93.2317 170.567C92.772 170.905 92.2297 171.18 91.7228 171.459C91.2159 171.738 90.6658 171.958 90.1235 172.155C88.0697 172.884 85.8767 173.137 83.7107 172.893C81.8279 172.673 79.9799 172.219 78.2095 171.542C76.5584 170.92 74.9447 170.204 73.3764 169.396C71.8321 168.63 70.3389 167.824 68.8418 167.019C65.8673 165.412 62.9202 163.84 59.8552 162.532C56.8183 161.176 53.6157 160.227 50.3303 159.71L40.271 158.331ZM60.4014 161.144C63.6236 162.205 66.7907 163.392 69.9853 164.433C71.5571 164.968 73.176 165.447 74.7674 165.879C76.3313 166.29 77.9174 166.61 79.518 166.838C80.9968 167.063 82.4985 167.096 83.9858 166.936C85.2407 166.804 86.4496 166.391 87.5223 165.726C88.5066 165.069 89.3442 164.216 89.9821 163.219C90.7361 162.102 91.3461 160.894 91.7975 159.624C92.6973 157.101 93.0352 154.252 93.0981 151.164C93.2396 144.975 92.2808 138.067 92.768 130.562C93.0431 126.801 93.6718 122.895 95.3025 119.029C96.0888 117.228 97.0288 115.498 98.112 113.858C99.1376 112.286 100.222 110.781 101.326 109.351C103.535 106.498 105.794 103.822 107.853 101.099C108.89 99.7315 109.865 98.3484 110.745 96.918C111.616 95.5292 112.362 94.0656 112.973 92.5446C113.556 91.1134 113.881 89.5901 113.932 88.0454C113.96 86.5814 113.623 85.1335 112.95 83.8331C112.615 83.1783 112.22 82.5561 111.771 81.9745L111.02 81.1257C110.757 80.8467 110.458 80.5795 110.179 80.3045C109.039 79.2338 107.785 78.2916 106.438 77.4949C103.74 75.9383 100.73 74.9989 97.6248 74.7443C96.067 74.597 94.4987 74.597 92.9409 74.7443C91.3641 74.8795 89.7989 75.1263 88.2571 75.4831C85.1331 76.2514 82.0907 77.32 79.1723 78.6737C78.4375 79.0313 77.6987 79.3535 76.9757 79.7347L75.8873 80.2927L74.8106 80.8781C73.3685 81.6405 71.9618 82.4971 70.5551 83.338C69.8556 83.7702 69.164 84.2182 68.4685 84.6583L66.4213 86.0336C65.0578 86.9688 63.7021 87.9197 62.3622 88.902L58.1695 91.9866C57.4505 92.5171 56.7156 93.0201 55.9887 93.5584L54.8924 94.3443L53.7804 95.0987C47.8716 99.152 41.683 102.781 35.261 105.96C33.6696 106.746 32.0821 107.531 30.5025 108.243C28.9229 108.954 27.359 109.681 25.8815 110.392C22.8795 111.807 20.2153 113.186 18.2781 114.758C17.3178 115.532 16.4538 116.418 15.7043 117.398C14.8955 118.478 14.1953 119.635 13.6139 120.852C13.2838 121.485 13.0009 122.188 12.6944 122.868C12.549 123.218 12.4154 123.583 12.274 123.941C12.1325 124.298 11.9871 124.664 11.881 125.006C11.4014 126.349 11.0193 127.725 10.7376 129.124L10.5411 130.137L10.435 131.128L10.3721 131.627C10.3721 131.796 10.3721 131.953 10.3721 132.114L10.3407 133.088C10.3407 133.411 10.3721 133.725 10.3839 134.043V134.527C10.3839 134.684 10.4311 134.837 10.4507 134.994L10.5922 135.937C10.6786 136.24 10.7493 136.546 10.8201 136.861C11.1602 138.13 11.6718 139.348 12.3408 140.48L12.5883 140.908C12.6787 141.053 12.7848 141.195 12.883 141.336L13.4803 142.205C13.94 142.751 14.3526 143.344 14.8831 143.863C15.9164 144.978 17.0387 146.007 18.2388 146.94C19.4946 147.906 20.8067 148.797 22.1682 149.608C24.9973 151.281 27.9723 152.695 31.0566 153.832C32.6283 154.413 34.2001 154.96 35.7719 155.431C36.5577 155.671 37.3711 155.918 38.1845 156.123L39.3948 156.445L40.6168 156.74C43.8783 157.525 47.1868 158.123 50.519 158.606C53.8793 159.169 57.1855 160.019 60.4014 161.144Z" fill="#EBEBEB"/>
<path d="M65.7412 26.0751C64.666 25.8052 63.5737 25.6083 62.472 25.4857C61.9454 25.415 61.4385 25.3757 60.9238 25.3324C60.409 25.2892 59.906 25.2735 59.407 25.2656C58.4089 25.2263 57.4423 25.2656 56.4599 25.2656C52.5973 25.4189 48.9076 26.0083 45.265 26.5702L43.9762 26.7667L43.4025 26.8492L42.821 26.8963C42.428 26.9317 42.0351 26.9199 41.6186 26.9317C41.202 26.9435 40.7973 26.8963 40.3769 26.8649C39.9564 26.8335 39.5438 26.7903 39.1155 26.7195C38.6872 26.6488 38.2707 26.5938 37.8424 26.5113C36.9936 26.3344 36.1213 26.1498 35.2647 25.9101C31.7989 24.9984 28.3764 23.6428 24.5531 22.7665C22.5321 22.2915 20.4484 22.1403 18.38 22.3186C17.2646 22.4298 16.1661 22.6712 15.1068 23.0377C14.5714 23.2265 14.0467 23.4442 13.535 23.6899C13.2757 23.8157 13.0163 23.9375 12.7491 24.0829L12.0222 24.5151C11.0726 25.0984 10.1759 25.7637 9.34234 26.5034C8.91796 26.8728 8.51716 27.3168 8.10457 27.7333C7.69198 28.1498 7.36977 28.6292 7.0004 29.089C6.63104 29.5487 6.35991 30.032 6.04555 30.5193C5.88445 30.7629 5.75871 31.0105 5.62904 31.2541L5.2361 32.0046L5.04355 32.3975L4.88245 32.7905L4.56417 33.5764C4.34862 34.0813 4.16232 34.5982 4.00619 35.1246C3.36582 37.1641 2.98688 39.2767 2.87845 41.4116C2.77937 43.4742 2.89261 45.5414 3.21638 47.5808C3.5378 49.5838 4.0645 51.5484 4.78814 53.4435C4.9689 53.9151 5.18108 54.3827 5.35791 54.8424C5.53473 55.3021 5.79407 55.7579 6.01412 56.2098C6.23417 56.6617 6.46993 57.1097 6.71749 57.5458C6.96504 57.982 7.20866 58.4182 7.50337 58.8465C8.56381 60.5421 9.75963 62.1493 11.0791 63.6522C12.3676 65.1394 13.7751 66.5193 15.2875 67.778C16.7529 69.0196 18.3316 70.1207 20.0028 71.067C21.6561 71.9981 23.4366 72.6825 25.2879 73.0985C27.1865 73.4941 29.1506 73.4484 31.0288 72.9649C32.9177 72.4512 34.7276 71.6818 36.4081 70.678C39.7603 68.673 42.8968 66.3278 45.768 63.6797C47.2062 62.3869 48.554 61.0391 49.835 59.6559C49.9535 59.5202 50.0851 59.3965 50.2279 59.2866L50.5658 58.9919C50.8212 58.819 51.0216 58.5989 51.2888 58.4535L51.6582 58.1942C51.7918 58.1156 51.9293 58.0409 52.0511 57.9506C52.2987 57.7777 52.6091 57.6362 52.8685 57.4672C54.1463 56.7697 55.4665 56.1529 56.8215 55.6204L59.1791 54.6891L60.4483 54.194L61.7686 53.6478C62.6606 53.2863 63.6036 52.8345 64.5624 52.359C65.5841 51.8324 66.5723 51.2432 67.5213 50.5947C68.5933 49.8554 69.5861 49.0074 70.484 48.0641C71.4587 47.0367 72.2888 45.8813 72.9517 44.6298L73.211 44.1544L73.4311 43.6671C73.5725 43.341 73.7179 43.0148 73.8476 42.6808C74.0829 42.0309 74.2771 41.3668 74.4292 40.6925L74.6374 39.6984L74.7632 38.7357C74.838 38.1083 74.8786 37.4774 74.885 36.8456C74.885 36.6806 74.885 36.5549 74.885 36.3623C74.885 36.1108 74.885 35.8594 74.8535 35.6118C74.8255 35.0885 74.7492 34.5689 74.6256 34.0597C74.5981 33.9339 74.5706 33.8003 74.5353 33.6667L74.4095 33.2738C74.3231 33.0105 74.2288 32.7551 74.1305 32.4879C73.9129 31.9893 73.6567 31.5085 73.3643 31.0497C73.215 30.8336 73.0657 30.6175 72.9085 30.4093C72.8299 30.3032 72.7513 30.1971 72.6727 30.1028L72.4252 29.8277C72.2601 29.6509 72.0912 29.478 71.9183 29.3012C71.7454 29.1243 71.5803 29.0025 71.4074 28.8493C71.2346 28.696 71.0577 28.5664 70.8848 28.4563L70.3779 28.1105C70.209 28.0005 70.0322 27.8748 69.8671 27.7844L69.3759 27.5133C68.2246 26.8938 67.0047 26.4111 65.7412 26.0751Z" fill="#EBEBEB"/>
<path d="M118.384 121.332C118.176 122.529 118.09 123.744 118.129 124.958C118.218 127.171 118.598 129.363 119.256 131.477C119.826 133.544 120.553 135.563 121.433 137.517C122.329 139.479 123.457 141.326 124.793 143.018C126.187 144.776 127.808 146.342 129.614 147.674C131.64 149.094 133.969 150.021 136.416 150.382C137.717 150.577 139.038 150.605 140.346 150.464C142.738 150.202 145.001 149.246 146.857 147.714C147.637 147.066 148.377 146.372 149.073 145.635C149.432 145.241 149.755 144.817 150.039 144.366C150.305 143.896 150.532 143.406 150.719 142.9C151.072 141.855 151.317 140.777 151.45 139.682C151.76 137.406 151.785 135.1 151.525 132.817C151.278 130.626 150.566 128.513 149.434 126.621C148.337 124.826 146.888 123.271 145.175 122.051C143.477 120.809 141.481 119.921 139.524 119.115C137.567 118.31 135.622 117.587 133.795 116.726C131.968 115.866 130.204 114.903 127.984 114.215C127.389 114.029 126.779 113.897 126.16 113.822C125.441 113.727 124.711 113.739 123.995 113.858C123.031 114.048 122.134 114.485 121.39 115.127C121.204 115.288 121.028 115.46 120.863 115.642C120.71 115.815 120.553 115.995 120.408 116.184C120.152 116.533 119.92 116.899 119.716 117.28C119.529 117.631 119.361 117.992 119.213 118.361C119.087 118.695 118.946 119.064 118.859 119.387L118.683 119.886L118.565 120.377C118.494 120.703 118.443 121.009 118.384 121.332Z" fill="#EBEBEB"/>
</g>
<path d="M24.9766 128.648L26.4972 128.931L26.8391 130.534L27.177 128.931L28.6977 128.648L27.1849 128.278L26.8391 126.766L26.4894 128.278L24.9766 128.648Z" fill="#DBDBDB"/>
<path d="M96.0601 8.1361L97.5807 8.41902L97.9226 10.0222L98.2605 8.41902L99.7812 8.1361L98.2684 7.76673L97.9226 6.25391L97.5729 7.76673L96.0601 8.1361Z" fill="#DBDBDB"/>
<path d="M102.249 164.834L103.77 165.113L104.112 166.717L104.449 165.113L105.97 164.834L104.457 164.461L104.112 162.948L103.766 164.461L102.249 164.834Z" fill="#DBDBDB"/>
<path d="M153.768 131.587L154.616 131.744L154.809 132.64L154.997 131.744L155.846 131.587L155.001 131.379L154.809 130.534L154.616 131.379L153.768 131.587Z" fill="#DBDBDB"/>
<path d="M142.137 27.5872L142.985 27.7483L143.174 28.6403L143.363 27.7483L144.215 27.5872L143.367 27.3829L143.174 26.5381L142.982 27.3829L142.137 27.5872Z" fill="#DBDBDB"/>
<path d="M158.243 56.975L159.092 57.1321L159.281 58.028L159.473 57.1321L160.322 56.975L159.473 56.7667L159.281 55.9219L159.088 56.7667L158.243 56.975Z" fill="#DBDBDB"/>
<path d="M7.45996 136.02L8.30871 136.177L8.49733 137.073L8.68987 136.177L9.53862 136.02L8.6938 135.812L8.49733 134.967L8.30478 135.812L7.45996 136.02Z" fill="#DBDBDB"/>
<path d="M148.411 113.956L149.26 114.114L149.452 115.009L149.641 114.114L150.49 113.956L149.645 113.748L149.452 112.903L149.256 113.748L148.411 113.956Z" fill="#DBDBDB"/>
<path d="M32.541 141.187L33.3937 141.348L33.5823 142.24L33.7709 141.348L34.6236 141.187L33.7749 140.983L33.5823 140.138L33.3898 140.983L32.541 141.187Z" fill="#DBDBDB"/>
<path d="M15.8408 154.971C15.9065 154.971 15.9694 154.997 16.0159 155.043C16.0623 155.09 16.0884 155.153 16.0884 155.218C16.0884 155.284 16.0623 155.347 16.0159 155.393C15.9694 155.44 15.9065 155.466 15.8408 155.466C15.7752 155.466 15.7122 155.44 15.6658 155.393C15.6193 155.347 15.5933 155.284 15.5933 155.218C15.5933 155.153 15.6193 155.09 15.6658 155.043C15.7122 154.997 15.7752 154.971 15.8408 154.971Z" fill="#DBDBDB"/>
<path d="M131.216 121.41C131.282 121.41 131.345 121.436 131.391 121.483C131.438 121.529 131.464 121.592 131.464 121.658C131.464 121.723 131.438 121.786 131.391 121.833C131.345 121.879 131.282 121.905 131.216 121.905C131.151 121.905 131.088 121.879 131.041 121.833C130.995 121.786 130.969 121.723 130.969 121.658C130.969 121.592 130.995 121.529 131.041 121.483C131.088 121.436 131.151 121.41 131.216 121.41Z" fill="#DBDBDB"/>
<path d="M133.543 86.1943C133.602 86.2019 133.657 86.231 133.697 86.2763C133.737 86.3215 133.759 86.3797 133.759 86.4399C133.759 86.5002 133.737 86.5584 133.697 86.6036C133.657 86.6488 133.602 86.6779 133.543 86.6855C133.483 86.6779 133.428 86.6488 133.388 86.6036C133.348 86.5584 133.326 86.5002 133.326 86.4399C133.326 86.3797 133.348 86.3215 133.388 86.2763C133.428 86.231 133.483 86.2019 133.543 86.1943Z" fill="#DBDBDB"/>
<path d="M40.2745 154.728C40.3343 154.735 40.3893 154.764 40.4291 154.809C40.469 154.855 40.491 154.913 40.491 154.973C40.491 155.033 40.469 155.092 40.4291 155.137C40.3893 155.182 40.3343 155.211 40.2745 155.219C40.2148 155.211 40.1598 155.182 40.1199 155.137C40.0801 155.092 40.0581 155.033 40.0581 154.973C40.0581 154.913 40.0801 154.855 40.1199 154.809C40.1598 154.764 40.2148 154.735 40.2745 154.728Z" fill="#DBDBDB"/>
<path d="M30.1715 140.452C30.2313 140.46 30.2863 140.489 30.3261 140.534C30.3659 140.579 30.3879 140.637 30.3879 140.698C30.3879 140.758 30.3659 140.816 30.3261 140.861C30.2863 140.907 30.2313 140.936 30.1715 140.943C30.1117 140.936 30.0568 140.907 30.0169 140.861C29.9771 140.816 29.9551 140.758 29.9551 140.698C29.9551 140.637 29.9771 140.579 30.0169 140.534C30.0568 140.489 30.1117 140.46 30.1715 140.452Z" fill="#DBDBDB"/>
<path d="M142.938 124.64C142.998 124.647 143.053 124.676 143.093 124.722C143.133 124.767 143.155 124.825 143.155 124.885C143.155 124.946 143.133 125.004 143.093 125.049C143.053 125.094 142.998 125.123 142.938 125.131C142.878 125.123 142.823 125.094 142.783 125.049C142.744 125.004 142.722 124.946 142.722 124.885C142.722 124.825 142.744 124.767 142.783 124.722C142.823 124.676 142.878 124.647 142.938 124.64Z" fill="#DBDBDB"/>
<path d="M132.631 97.3936C132.697 97.3936 132.76 97.4196 132.806 97.4661C132.853 97.5125 132.879 97.5755 132.879 97.6411C132.879 97.7068 132.853 97.7697 132.806 97.8162C132.76 97.8626 132.697 97.8887 132.631 97.8887C132.566 97.8887 132.503 97.8626 132.456 97.8162C132.41 97.7697 132.384 97.7068 132.384 97.6411C132.384 97.5755 132.41 97.5125 132.456 97.4661C132.503 97.4196 132.566 97.3936 132.631 97.3936Z" fill="#DBDBDB"/>
<path d="M128.898 139.788C128.944 139.788 128.988 139.806 129.02 139.839C129.053 139.871 129.071 139.915 129.071 139.961C129.071 140.007 129.053 140.051 129.02 140.083C128.988 140.116 128.944 140.134 128.898 140.134C128.852 140.134 128.808 140.116 128.776 140.083C128.743 140.051 128.725 140.007 128.725 139.961C128.725 139.915 128.743 139.871 128.776 139.839C128.808 139.806 128.852 139.788 128.898 139.788Z" fill="#DBDBDB"/>
<path d="M36.9694 31.8936C37.0113 31.8998 37.0495 31.921 37.0771 31.953C37.1047 31.9851 37.1199 32.0261 37.1199 32.0684C37.1199 32.1108 37.1047 32.1517 37.0771 32.1838C37.0495 32.2159 37.0113 32.237 36.9694 32.2433C36.9275 32.237 36.8893 32.2159 36.8617 32.1838C36.834 32.1517 36.8188 32.1108 36.8188 32.0684C36.8188 32.0261 36.834 31.9851 36.8617 31.953C36.8893 31.921 36.9275 31.8998 36.9694 31.8936Z" fill="#DBDBDB"/>
<path d="M37.4098 142.067C37.4517 142.074 37.4899 142.095 37.5175 142.127C37.5452 142.159 37.5604 142.2 37.5604 142.242C37.5604 142.285 37.5452 142.326 37.5175 142.358C37.4899 142.39 37.4517 142.411 37.4098 142.417C37.3679 142.411 37.3297 142.39 37.3021 142.358C37.2745 142.326 37.2593 142.285 37.2593 142.242C37.2593 142.2 37.2745 142.159 37.3021 142.127C37.3297 142.095 37.3679 142.074 37.4098 142.067Z" fill="#DBDBDB"/>
<path d="M6.63867 88.2416L8.15936 88.5206L8.49729 90.1238L8.83914 88.5206L10.3598 88.2377L8.847 87.8683L8.49729 86.3555L8.1515 87.8683L6.63867 88.2416Z" fill="#DBDBDB"/>
<path d="M151.241 49.0775L152.762 49.3565L153.1 50.9597L153.438 49.3565L154.958 49.0775L153.446 48.7042L153.1 47.1914L152.754 48.7042L151.241 49.0775Z" fill="#DBDBDB"/>
<path d="M86.665 15.5199L87.5177 15.6771L87.7063 16.573L87.8949 15.6771L88.7476 15.5199L87.8989 15.3156L87.7063 14.4668L87.5138 15.3156L86.665 15.5199Z" fill="#DBDBDB"/>
<path d="M8.49756 45.4427L9.35024 45.5999L9.53885 46.4958L9.72747 45.5999L10.5801 45.4427L9.7314 45.2345L9.53885 44.3896L9.34631 45.2345L8.49756 45.4427Z" fill="#DBDBDB"/>
<path d="M24.1046 43.957C24.1644 43.9646 24.2194 43.9937 24.2592 44.0389C24.2991 44.0842 24.321 44.1424 24.321 44.2026C24.321 44.2629 24.2991 44.3211 24.2592 44.3663C24.2194 44.4115 24.1644 44.4406 24.1046 44.4482C24.0448 44.4406 23.9899 44.4115 23.95 44.3663C23.9102 44.3211 23.8882 44.2629 23.8882 44.2026C23.8882 44.1424 23.9102 44.0842 23.95 44.0389C23.9899 43.9937 24.0448 43.9646 24.1046 43.957Z" fill="#DBDBDB"/>
<path d="M5.37707 132.188C5.43686 132.196 5.49183 132.225 5.53167 132.27C5.57151 132.316 5.5935 132.374 5.5935 132.434C5.5935 132.494 5.57151 132.553 5.53167 132.598C5.49183 132.643 5.43686 132.672 5.37707 132.68C5.31728 132.672 5.26232 132.643 5.22247 132.598C5.18263 132.553 5.16064 132.494 5.16064 132.434C5.16064 132.374 5.18263 132.316 5.22247 132.27C5.26232 132.225 5.31728 132.196 5.37707 132.188Z" fill="#DBDBDB"/>
<path d="M25.5825 123.689C25.6482 123.689 25.7111 123.716 25.7576 123.762C25.804 123.808 25.8301 123.871 25.8301 123.937C25.8301 124.003 25.804 124.066 25.7576 124.112C25.7111 124.158 25.6482 124.185 25.5825 124.185C25.5169 124.185 25.4539 124.158 25.4075 124.112C25.361 124.066 25.335 124.003 25.335 123.937C25.335 123.871 25.361 123.808 25.4075 123.762C25.4539 123.716 25.5169 123.689 25.5825 123.689Z" fill="#DBDBDB"/>
<path d="M5.61291 61.3369C5.6727 61.3445 5.72767 61.3736 5.76751 61.4188C5.80735 61.464 5.82934 61.5222 5.82934 61.5825C5.82934 61.6428 5.80735 61.701 5.76751 61.7462C5.72767 61.7914 5.6727 61.8205 5.61291 61.8281C5.55312 61.8205 5.49816 61.7914 5.45831 61.7462C5.41847 61.701 5.39648 61.6428 5.39648 61.5825C5.39648 61.5222 5.41847 61.464 5.45831 61.4188C5.49816 61.3736 5.55312 61.3445 5.61291 61.3369Z" fill="#DBDBDB"/>
<path d="M57.8345 11.6572C57.9001 11.6572 57.9631 11.6833 58.0095 11.7297C58.0559 11.7762 58.082 11.8391 58.082 11.9048C58.082 11.9704 58.0559 12.0334 58.0095 12.0798C57.9631 12.1263 57.9001 12.1523 57.8345 12.1523C57.7688 12.1523 57.7058 12.1263 57.6594 12.0798C57.613 12.0334 57.5869 11.9704 57.5869 11.9048C57.5869 11.8391 57.613 11.7762 57.6594 11.7297C57.7058 11.6833 57.7688 11.6572 57.8345 11.6572Z" fill="#DBDBDB"/>
<path d="M47.771 144.613C47.8169 144.613 47.8609 144.631 47.8933 144.664C47.9257 144.696 47.9439 144.74 47.9439 144.786C47.9439 144.832 47.9257 144.876 47.8933 144.908C47.8609 144.941 47.8169 144.959 47.771 144.959C47.7252 144.959 47.6812 144.941 47.6488 144.908C47.6164 144.876 47.5981 144.832 47.5981 144.786C47.5981 144.74 47.6164 144.696 47.6488 144.664C47.6812 144.631 47.7252 144.613 47.771 144.613Z" fill="#DBDBDB"/>
<path d="M155.795 86.6898L156.648 86.847L156.837 87.7429L157.025 86.847L157.874 86.6898L157.029 86.4855L156.837 85.6367L156.644 86.4855L155.795 86.6898Z" fill="#DBDBDB"/>
<path d="M109.251 18.4434C109.297 18.4434 109.341 18.4616 109.373 18.494C109.406 18.5264 109.424 18.5704 109.424 18.6163C109.424 18.6621 109.406 18.7061 109.373 18.7385C109.341 18.7709 109.297 18.7892 109.251 18.7892C109.205 18.7892 109.161 18.7709 109.129 18.7385C109.096 18.7061 109.078 18.6621 109.078 18.6163C109.078 18.5704 109.096 18.5264 109.129 18.494C109.161 18.4616 109.205 18.4434 109.251 18.4434Z" fill="#DBDBDB"/>
<path d="M72.1925 160.783C72.2344 160.789 72.2726 160.811 72.3002 160.843C72.3279 160.875 72.3431 160.916 72.3431 160.958C72.3431 161 72.3279 161.041 72.3002 161.073C72.2726 161.106 72.2344 161.127 72.1925 161.133C72.1507 161.127 72.1124 161.106 72.0848 161.073C72.0572 161.041 72.042 161 72.042 160.958C72.042 160.916 72.0572 160.875 72.0848 160.843C72.1124 160.811 72.1507 160.789 72.1925 160.783Z" fill="#DBDBDB"/>
<path d="M146.038 55.9375C146.084 55.9375 146.128 55.9557 146.16 55.9881C146.193 56.0206 146.211 56.0645 146.211 56.1104C146.211 56.1562 146.193 56.2002 146.16 56.2327C146.128 56.2651 146.084 56.2833 146.038 56.2833C145.992 56.2833 145.948 56.2651 145.916 56.2327C145.883 56.2002 145.865 56.1562 145.865 56.1104C145.865 56.0645 145.883 56.0206 145.916 55.9881C145.948 55.9557 145.992 55.9375 146.038 55.9375Z" fill="#DBDBDB"/>
<path d="M117.456 11.9756C117.498 11.9819 117.536 12.003 117.563 12.0351C117.591 12.0672 117.606 12.1081 117.606 12.1504C117.606 12.1928 117.591 12.2337 117.563 12.2658C117.536 12.2979 117.498 12.319 117.456 12.3253C117.414 12.319 117.376 12.2979 117.348 12.2658C117.32 12.2337 117.305 12.1928 117.305 12.1504C117.305 12.1081 117.32 12.0672 117.348 12.0351C117.376 12.003 117.414 11.9819 117.456 11.9756Z" fill="#DBDBDB"/>
<path d="M104.111 21.2803C104.229 21.291 104.339 21.3456 104.419 21.4332C104.499 21.5208 104.543 21.6351 104.543 21.7538C104.543 21.8724 104.499 21.9867 104.419 22.0743C104.339 22.1619 104.229 22.2165 104.111 22.2273C103.993 22.2165 103.883 22.1619 103.803 22.0743C103.723 21.9867 103.679 21.8724 103.679 21.7538C103.679 21.6351 103.723 21.5208 103.803 21.4332C103.883 21.3456 103.993 21.291 104.111 21.2803Z" fill="#DBDBDB"/>
<path d="M146.207 69.2188C146.332 69.2188 146.452 69.2684 146.541 69.3569C146.629 69.4453 146.679 69.5652 146.679 69.6903C146.679 69.8153 146.629 69.9353 146.541 70.0237C146.452 70.1121 146.332 70.1618 146.207 70.1618C146.082 70.1618 145.962 70.1121 145.874 70.0237C145.786 69.9353 145.736 69.8153 145.736 69.6903C145.736 69.5652 145.786 69.4453 145.874 69.3569C145.962 69.2684 146.082 69.2188 146.207 69.2188Z" fill="#DBDBDB"/>
<path d="M19.8016 115.925C19.9267 115.925 20.0466 115.974 20.135 116.063C20.2235 116.151 20.2731 116.271 20.2731 116.396C20.2731 116.521 20.2235 116.641 20.135 116.73C20.0466 116.818 19.9267 116.868 19.8016 116.868C19.6765 116.868 19.5566 116.818 19.4682 116.73C19.3798 116.641 19.3301 116.521 19.3301 116.396C19.3301 116.271 19.3798 116.151 19.4682 116.063C19.5566 115.974 19.6765 115.925 19.8016 115.925Z" fill="#DBDBDB"/>
<path d="M43.6182 23.7289L44.4669 23.886L44.6555 24.782L44.8441 23.886L45.6968 23.7289L44.8481 23.5245L44.6555 22.6758L44.463 23.5245L43.6182 23.7289Z" fill="#DBDBDB"/>
<path d="M117.377 153.718C117.437 153.725 117.492 153.754 117.532 153.8C117.572 153.845 117.593 153.903 117.593 153.963C117.593 154.024 117.572 154.082 117.532 154.127C117.492 154.172 117.437 154.201 117.377 154.209C117.317 154.201 117.262 154.172 117.222 154.127C117.183 154.082 117.161 154.024 117.161 153.963C117.161 153.903 117.183 153.845 117.222 153.8C117.262 153.754 117.317 153.725 117.377 153.718Z" fill="#DBDBDB"/>
<path d="M101.051 151.396C101.111 151.403 101.166 151.432 101.205 151.477C101.245 151.523 101.267 151.581 101.267 151.641C101.267 151.701 101.245 151.76 101.205 151.805C101.166 151.85 101.111 151.879 101.051 151.887C100.991 151.879 100.936 151.85 100.896 151.805C100.856 151.76 100.834 151.701 100.834 151.641C100.834 151.581 100.856 151.523 100.896 151.477C100.936 151.432 100.991 151.403 101.051 151.396Z" fill="#DBDBDB"/>
<path d="M135.425 136.637L136.274 136.794L136.462 137.69L136.655 136.794L137.503 136.637L136.659 136.429L136.462 135.584L136.27 136.429L135.425 136.637Z" fill="#DBDBDB"/>
<path d="M143.174 158.103L144.023 158.26L144.215 159.156L144.404 158.26L145.252 158.099L144.408 157.895L144.215 157.05L144.019 157.895L143.174 158.103Z" fill="#DBDBDB"/>
<path d="M137.504 147.945C137.55 147.945 137.594 147.964 137.626 147.996C137.659 148.028 137.677 148.072 137.677 148.118C137.677 148.164 137.659 148.208 137.626 148.24C137.594 148.273 137.55 148.291 137.504 148.291C137.458 148.291 137.414 148.273 137.382 148.24C137.349 148.208 137.331 148.164 137.331 148.118C137.331 148.072 137.349 148.028 137.382 147.996C137.414 147.964 137.458 147.945 137.504 147.945Z" fill="#DBDBDB"/>
<path d="M14.8032 93.5423L15.652 93.6995L15.8406 94.5954L16.0292 93.6995L16.8819 93.5423L16.0331 93.3341L15.8406 92.4893L15.648 93.3341L14.8032 93.5423Z" fill="#DBDBDB"/>
<path d="M4.9801 111.775C5.03988 111.783 5.09485 111.812 5.1347 111.857C5.17454 111.903 5.19652 111.961 5.19652 112.021C5.19652 112.081 5.17454 112.139 5.1347 112.185C5.09485 112.23 5.03988 112.259 4.9801 112.267C4.92031 112.259 4.86534 112.23 4.8255 112.185C4.78565 112.139 4.76367 112.081 4.76367 112.021C4.76367 111.961 4.78565 111.903 4.8255 111.857C4.86534 111.812 4.92031 111.783 4.9801 111.775Z" fill="#DBDBDB"/>
<path d="M19.8019 65.6592C19.8438 65.6655 19.882 65.6866 19.9096 65.7187C19.9372 65.7508 19.9524 65.7917 19.9524 65.834C19.9524 65.8764 19.9372 65.9173 19.9096 65.9494C19.882 65.9815 19.8438 66.0026 19.8019 66.0089C19.76 66.0026 19.7218 65.9815 19.6942 65.9494C19.6666 65.9173 19.6514 65.8764 19.6514 65.834C19.6514 65.7917 19.6666 65.7508 19.6942 65.7187C19.7218 65.6866 19.76 65.6655 19.8019 65.6592Z" fill="#DBDBDB"/>
<path d="M31.213 17.9678C31.3312 17.9785 31.441 18.0331 31.521 18.1207C31.601 18.2083 31.6453 18.3226 31.6453 18.4413C31.6453 18.5599 31.601 18.6742 31.521 18.7618C31.441 18.8494 31.3312 18.904 31.213 18.9148C31.0949 18.904 30.9851 18.8494 30.9051 18.7618C30.8251 18.6742 30.7808 18.5599 30.7808 18.4413C30.7808 18.3226 30.8251 18.2083 30.9051 18.1207C30.9851 18.0331 31.0949 17.9785 31.213 17.9678Z" fill="#DBDBDB"/>
<path d="M142.738 86.4859C142.764 99.2029 138.742 111.598 131.256 121.878C125.202 130.215 117.109 136.858 107.754 141.173C98.3977 145.488 88.0912 147.33 77.8199 146.523C67.5486 145.716 57.6561 142.288 49.0887 136.565C40.5213 130.842 33.5657 123.017 28.8871 113.837C24.2086 104.658 21.9636 94.4313 22.367 84.1363C22.7704 73.8412 25.8086 63.8218 31.191 55.0366C36.5735 46.2514 44.1201 38.9942 53.1089 33.9592C62.0978 28.9243 72.2283 26.28 82.5312 26.2793C84.1815 26.2793 85.8175 26.3448 87.439 26.4758C96.7616 27.2247 105.779 30.1492 113.766 35.0144C119.936 38.7676 125.383 43.5959 129.849 49.2703C138.21 59.8719 142.751 72.9839 142.738 86.4859Z" fill="#4A7894"/>
<g opacity="0.1">
<path d="M95.534 114.904C94.7756 116.927 96.037 117.01 96.1234 117.855C96.2099 118.699 96.1234 120.299 93.6793 122.747C91.2352 125.195 87.184 124.684 86.3431 125.698C85.5022 126.711 84.064 131.01 82.0404 132.441C80.0167 133.871 79.6827 133.034 76.8143 133.619C73.9458 134.205 71.7532 137.918 70.9201 139.69C70.0871 141.463 71.0891 144.406 69.0655 144.496C67.0418 144.586 66.1145 140.197 64.2598 137.836C62.4051 135.474 61.8157 133.368 61.2263 130.582C60.6369 127.796 61.5603 121.98 61.2263 119.705C60.8923 117.43 54.8174 113.383 52.6248 110.597C50.4322 107.811 47.3947 102.251 47.5637 100.38C47.8202 98.5802 48.719 96.9334 50.0942 95.7437C51.1041 94.9814 50.6837 94.5649 50.8526 93.8851C51.0216 93.2053 51.8664 93.0442 52.0314 92.1994C52.1965 91.3545 51.5285 88.8279 50.6836 88.4075C49.8388 87.987 49.2494 89.4173 48.7465 89.1659C48.2435 88.9144 46.7228 87.1422 46.1295 86.9732C45.5361 86.8043 45.709 88.0695 44.8642 86.4663C44.0194 84.8631 43.6028 80.8158 42.927 80.1439C42.2511 79.472 41.7482 81.3227 40.145 80.1439C38.5418 78.9651 37.8659 76.686 37.194 76.3481C36.522 76.0101 35.5908 76.4306 34.8953 75.0828C34.1998 73.735 35.5043 71.287 34.8953 71.5463C34.2862 71.8057 32.9777 73.7389 32.6398 71.8803C32.3018 70.0217 34.3255 63.7857 33.9876 60.4143C33.6496 57.0428 34.8324 53.4985 37.194 50.6339C37.194 50.6339 37.528 48.7793 37.8659 47.5965C38.2038 46.4137 45.4575 41.7024 46.2984 40.3467C46.6521 39.7809 46.77 38.8968 46.8957 37.9458C57.2206 30.3452 69.7108 26.2562 82.5316 26.2794C84.1819 26.2794 85.8179 26.3449 87.4394 26.4759C87.4944 26.5545 87.5494 26.6291 87.6044 26.6998C88.3353 27.6272 89.1251 28.2166 91.2627 29.0064C93.4003 29.7962 93.9033 30.8022 93.4514 31.647C92.9995 32.4918 92.2726 32.6568 91.4278 32.7158C90.5829 32.7747 89.797 32.3228 88.9011 32.8848C88.0052 33.4467 87.1015 36.4802 85.9187 36.6491C84.736 36.8181 82.6612 33.9536 82.2093 33.1127C81.7575 32.2718 83.2231 30.4721 82.5316 29.6273C81.84 28.7824 80.6376 28.9514 78.724 28.7824C76.8103 28.6135 72.374 29.3483 72.5391 30.0791C72.7041 30.81 79.0619 29.9652 79.2191 31.4269C79.3762 32.8887 74.5549 35.3564 73.7179 35.1363C72.8809 34.9163 71.7532 33.4506 70.5115 33.2816C69.2698 33.1127 68.2639 34.1264 67.4858 34.2365C66.7078 34.3465 65.7923 33.3956 64.6095 33.6196C63.4267 33.8435 63.1478 34.8534 62.5308 35.2503C61.9139 35.6471 60.4482 35.6432 60.2832 36.543C60.1182 37.4429 62.1379 37.9498 62.6409 38.5078C63.1438 39.0657 62.0239 40.9794 62.5308 41.3723C63.0377 41.7652 66.1852 39.0146 66.9711 38.3388C67.757 37.6629 68.4328 34.7394 70.1146 34.8023C71.7964 34.8652 72.3662 37.7258 72.9241 38.0087C73.4821 38.2916 74.7238 37.3329 76.5824 37.7258C78.441 38.1187 79.726 42.17 80.0639 43.4038C80.4018 44.6377 81.1916 45.8793 80.5158 46.3862C79.8399 46.8931 76.8064 46.0483 76.4135 45.2585C76.0205 44.4687 78.4371 43.2938 78.2681 43.0109C78.0992 42.728 76.6964 42.335 75.9616 42.7751C75.2268 43.2152 74.8928 44.1347 74.1069 44.3469C73.321 44.5591 71.2384 42.2093 70.6765 42.8812C70.1146 43.5531 71.2384 45.6947 71.8003 46.2016C72.3622 46.7085 74.4448 46.9874 74.6138 47.5494C74.7828 48.1113 73.2071 49.3451 71.2934 49.2351C69.3798 49.125 67.812 47.6633 67.0772 48.2802C66.3424 48.8971 66.7432 50.5279 66.2363 51.0898C65.7294 51.6517 62.9749 51.2587 61.6271 52.7205C60.2793 54.1822 59.6624 56.3748 58.3106 57.6126C56.9589 58.8504 56.3459 57.2747 54.5423 59.0154C52.7387 60.7561 52.4637 64.6384 52.4087 65.9862C52.3537 67.334 52.4087 68.4028 51.9568 68.2338C51.5049 68.0649 50.888 66.886 50.719 66.1552C50.55 65.4243 51.112 64.1904 51.112 63.7386C51.112 63.2867 48.5225 60.988 47.0057 60.7601C45.489 60.5322 44.1372 61.7699 43.0174 62.6698C41.8975 63.5696 39.8738 63.4006 39.139 64.1315C38.4042 64.8624 37.8423 71.3302 38.4042 72.847C38.9661 74.3637 39.697 74.3637 41.4967 73.5778C43.2964 72.792 42.2826 71.2713 43.3514 71.6131C43.8313 71.7928 44.2447 72.1149 44.5362 72.5364C44.8277 72.9578 44.9833 73.4583 44.9821 73.9708C44.9821 74.8706 42.8484 77.0043 43.1274 77.6251C43.4064 78.246 45.265 77.5112 46.1648 77.7941C47.0647 78.077 47.5126 78.635 47.2336 80.9376C46.9546 83.2403 47.1197 85.04 48.4675 85.7983C49.8153 86.5567 50.5776 84.702 51.167 84.9574C51.7564 85.2128 52.6012 86.5567 53.4421 86.4742C54.283 86.3917 53.8665 85.6294 55.4657 85.1264C57.065 84.6234 56.4795 84.2816 56.8175 83.2717C57.1554 82.2619 58.1653 81.4131 59.2616 81.92C60.3579 82.4269 59.5995 83.1853 59.682 84.0301C59.7645 84.8749 61.7057 84.9574 63.2185 85.4604C64.7313 85.9634 65.5761 85.4604 68.6136 86.4742C71.651 87.488 71.816 90.5215 73.0813 91.0284C74.3466 91.5353 78.5629 90.6905 81.6003 92.8831C84.6377 95.0757 83.7929 99.123 85.3097 100.302C86.8264 101.481 92.4769 103.088 94.6695 103.508C96.8621 103.929 97.2001 102.412 98.9683 102.832C100.737 103.253 101.754 103.76 102.344 106.208C102.882 108.369 96.2845 112.88 95.534 114.904Z" fill="black"/>
<path d="M50.2236 71.785C50.2786 72.2605 51.6854 72.4609 53.3671 73.4157C55.0489 74.3706 55.6698 77.1801 56.5696 77.1251C57.4695 77.0701 57.1905 75.7773 57.5284 75.4394C57.8663 75.1015 58.4243 74.3706 57.5284 73.6397C56.6325 72.9088 55.7523 71.3331 54.1098 71.1092C52.4673 70.8852 52.1844 70.2093 51.4535 70.2683C51.2671 70.2705 51.0835 70.3137 50.9157 70.3949C50.7479 70.4761 50.6 70.5932 50.4826 70.738C50.3652 70.8828 50.2811 71.0517 50.2363 71.2326C50.1916 71.4136 50.1872 71.6022 50.2236 71.785Z" fill="black"/>
<path d="M59.4972 76.5081C59.2497 77.1958 59.4972 77.687 61.2969 78.1389C63.0966 78.5907 64.7823 77.687 64.2204 77.3215C63.6585 76.9561 62.8136 77.1251 63.1516 76.5081C63.4895 75.8912 63.3756 74.9875 61.9138 75.1564C60.4521 75.3254 59.7408 75.8755 59.4972 76.5081Z" fill="black"/>
<path d="M65.7959 76.6978C65.179 76.7882 64.8371 77.857 65.458 78.5328C66.0788 79.2087 66.0749 79.0947 66.8058 78.5328C67.5366 77.9709 68.6605 77.688 68.3775 77.1261C68.0946 76.5642 66.4207 76.6113 65.7959 76.6978Z" fill="black"/>
<path d="M70.6842 78.9964C70.9592 78.1516 72.3699 78.9964 72.9907 79.8805C73.6116 80.7647 73.3287 82.0732 72.9907 83.0241C72.6528 83.975 72.4288 85.1027 71.639 84.6548C70.8492 84.2068 71.698 82.8551 71.584 82.0692C71.47 81.2833 70.4602 79.6841 70.6842 78.9964Z" fill="black"/>
<path d="M94.9131 32.0984C94.6184 32.8018 95.9819 33.0533 96.7678 33.5012C97.5536 33.9492 98.1745 34.2321 98.6225 33.5012C99.0704 32.7704 98.4574 31.9295 97.8366 31.7605C97.2157 31.5915 95.196 31.4226 94.9131 32.0984Z" fill="black"/>
<path d="M105.538 38.6719C106.056 39.2221 106.944 39.1238 107.561 39.9097C108.178 40.6956 107.954 42.0473 108.74 42.4403C109.526 42.8332 110.088 42.4403 110.143 41.8783C110.198 41.3164 109.019 39.9136 109.133 39.6307C109.247 39.3478 110.764 40.0237 111.098 40.8646C111.432 41.7055 110.76 42.8882 111.546 43.1161C112.332 43.344 112.163 42.3302 112.501 42.1023C112.839 41.8744 113.569 41.9923 113.514 41.3164C113.459 40.6406 112.556 39.1788 111.829 38.6719C111.102 38.165 110.532 37.6071 109.298 37.3241C108.064 37.0412 106.882 37.2691 106.261 37.776C105.64 38.2829 105.219 38.3379 105.538 38.6719Z" fill="black"/>
<path d="M129.861 49.2696C129.826 49.4968 129.714 49.7049 129.543 49.859C128.364 50.7038 126.957 47.7803 125.327 47.2184C123.696 46.6565 122.969 44.5779 122.627 45.0258C122.285 45.4738 122.403 46.0946 121.896 46.8255C121.389 47.5564 120.662 47.3874 120.325 48.7902C119.987 50.193 121.896 52.7786 121.448 53.6234C121 54.4682 120.438 54.1853 119.535 54.1303C118.631 54.0753 118.804 54.8612 117.625 54.5232C116.446 54.1853 117.456 52.7236 115.601 50.9867C113.747 49.2499 113.126 48.9042 113.523 48.1183C113.92 47.3324 113.354 46.2086 114.195 46.0946C115.036 45.9807 115.715 47.2184 116.277 47.5564C116.839 47.8943 117.57 46.8805 117.625 45.9846C117.68 45.0887 115.66 43.8509 114.926 43.1515C114.191 42.452 114.14 39.9136 114.423 39.4067C114.705 38.8998 115.546 39.0688 115.77 37.835C115.9 37.108 114.753 35.8938 113.778 35.0176C119.947 38.7696 125.394 43.5965 129.861 49.2696Z" fill="black"/>
<path d="M138.254 99.6685C138.423 97.8689 137.527 97.7549 138.423 94.4385C139.319 91.122 137.468 87.5816 136.796 86.8508C136.124 86.1199 134.659 86.3439 133.476 87.0747C132.293 87.8056 133.142 88.3675 132.352 88.6465C131.562 88.9255 130.78 88.4775 130.049 88.5326C129.318 88.5876 128.643 90.4462 127.071 90.3872C125.499 90.3283 124.485 88.0846 123.303 86.4814C122.12 84.8782 119.703 83.8683 118.917 81.8997C118.131 79.9311 119.648 76.8975 119.31 74.591C118.972 72.2844 117.456 72.7913 117.173 71.4985C116.89 70.2057 117.401 70.8266 117.793 69.5888C118.186 68.351 117.342 67.6791 118.131 65.5415C118.921 63.4039 120.324 62.3351 119.986 61.3803C119.648 60.4254 118.579 58.8536 118.524 57.7298C118.469 56.606 119.593 56.661 121.727 55.0853C123.86 53.5096 124.426 53.6236 126.049 54.1855C127.218 54.6193 128.421 54.957 129.645 55.1953C130.603 55.3643 131.896 57.8398 132.289 57.7259C132.682 57.6119 132.741 56.885 132.91 55.8162C133.015 55.3513 133.259 54.9294 133.609 54.6059C139.957 64.7798 143.124 76.6167 142.705 88.6012C142.285 100.586 138.299 112.172 131.256 121.878C136.973 113.127 138.085 101.468 138.254 99.6685Z" fill="black"/>
</g>
<path opacity="0.1" d="M129.173 124.558C122.75 132.429 114.439 138.547 105.016 142.342C95.5919 146.137 85.3611 147.485 75.2759 146.262C65.1906 145.04 55.5788 141.285 47.3352 135.347C39.0916 129.41 32.4844 121.483 28.1286 112.305C23.7728 103.127 21.8101 92.9965 22.4232 82.8559C23.0364 72.7152 26.2054 62.8946 31.6353 54.3083C37.0652 45.722 44.5794 38.6492 53.4783 33.7484C62.3772 28.8476 72.3714 26.2782 82.5306 26.2793C84.1809 26.2793 85.8168 26.3448 87.4384 26.4758C87.8863 26.5111 88.3343 26.5504 88.7783 26.6015C80.269 27.5278 72.0919 30.4214 64.8939 35.0534C57.6959 39.6854 51.6744 45.9288 47.3058 53.2897C42.9372 60.6505 40.3413 68.9269 39.7234 77.4642C39.1056 86.0015 40.4827 94.5655 43.7459 102.479C47.009 110.392 52.0687 117.437 58.5247 123.057C64.9807 128.678 72.6559 132.719 80.9432 134.86C89.2305 137.002 97.9025 137.187 106.273 135.398C114.644 133.61 122.484 129.899 129.173 124.558Z" fill="black"/>
<path opacity="0.3" d="M142.737 86.4859C142.763 99.2029 138.742 111.598 131.256 121.878C125.61 129.632 118.203 135.932 109.644 140.26C117.105 135.995 123.577 130.198 128.635 123.25C135.722 113.491 139.736 101.839 140.161 89.786C140.587 77.7328 137.405 65.8269 131.024 55.5928C129.864 53.7327 128.602 51.9382 127.244 50.2173C122.752 44.5115 117.276 39.6554 111.074 35.8789C103.034 30.9844 93.9574 28.0438 84.5743 27.2931C82.9514 27.1595 81.3011 27.0927 79.6428 27.0927C74.7432 27.0891 69.8612 27.6802 65.104 28.8531C70.7551 27.1441 76.6271 26.2769 82.531 26.2793C84.1813 26.2793 85.8173 26.3448 87.4388 26.4758C102.509 27.7038 116.565 34.5591 126.811 45.6782C137.057 56.7974 142.743 71.3657 142.737 86.4859Z" fill="white"/>
<path d="M56.1893 74.267C56.6359 72.1966 53.8267 69.8342 49.9148 68.9906C46.003 68.147 42.4699 69.1415 42.0233 71.212C41.5768 73.2825 44.386 75.6448 48.2978 76.4885C52.2097 77.3321 55.7428 76.3375 56.1893 74.267Z" fill="#6F98C0"/>
<path d="M116.76 76.4986C120.671 75.655 123.481 73.2927 123.034 71.2222C122.588 69.1517 119.054 68.1572 115.143 69.0008C111.231 69.8444 108.422 72.2068 108.868 74.2772C109.315 76.3477 112.848 77.3423 116.76 76.4986Z" fill="#6F98C0"/>
<path d="M73.627 67.207C76.3775 71.9616 82.6646 73.0108 87.4506 71.0068C89.0793 70.2751 90.4627 69.0896 91.4351 67.5921C91.0421 69.4429 89.6983 71.0539 88.0322 72.0992C83.1126 75.0816 74.9119 73.3802 73.627 67.207Z" fill="#263238"/>
<path d="M66.4203 52.268C62.5874 51.704 58.6848 52.643 55.528 54.8889C54.4532 55.6468 53.4731 56.5307 52.6084 57.5216C52.7769 56.8454 53.0528 56.2006 53.4257 55.6119C55.9602 51.4074 62.208 49.4467 66.4203 52.268Z" fill="#263238"/>
<path d="M98.6411 52.268C102.853 49.4467 109.101 51.4074 111.636 55.6119C112.009 56.2006 112.285 56.8454 112.453 57.5216C111.588 56.5307 110.608 55.6468 109.533 54.8889C106.377 52.643 102.474 51.704 98.6411 52.268Z" fill="#263238"/>
<path d="M96.1465 66.5275C99.1918 68.2997 103.176 68.7712 106.218 66.8497C107.417 66.0611 108.448 65.042 109.251 63.8516C110.52 65.5334 112.823 65.8163 114.795 65.5294C114.013 65.9825 113.134 66.244 112.232 66.2925C111.329 66.341 110.427 66.1751 109.601 65.8084C109.337 65.6861 109.088 65.5345 108.858 65.3565L109.856 65.2151C108.818 67.009 107.174 68.3743 105.22 69.0659C102.056 70.0876 98.2527 69.1288 96.1504 66.5275H96.1465Z" fill="#263238"/>
<path d="M68.9151 66.5275C66.8129 69.1288 63.021 70.0876 59.846 69.0659C57.8925 68.3731 56.249 67.0081 55.2093 65.2151L56.2074 65.3565C55.9775 65.5345 55.7284 65.6861 55.4647 65.8084C54.6382 66.1751 53.7367 66.341 52.8339 66.2925C51.931 66.244 51.0524 65.9825 50.27 65.5294C52.2347 65.8084 54.5452 65.5294 55.8144 63.8516L56.3252 64.5353C59.347 68.6297 64.6792 69.0148 68.8994 66.5275H68.9151Z" fill="#263238"/>
<path d="M124.776 43.6587L125.927 43.4072V43.4151L124.776 43.6587Z" fill="#263238"/>
<path d="M128.23 42.9352L130.544 42.499L130.548 42.5344L128.234 42.9548L128.23 42.9352Z" fill="#263238"/>
<path d="M132.862 42.1104L135.189 41.7725L135.196 41.8314L132.87 42.1575L132.862 42.1104Z" fill="#263238"/>
<path d="M137.527 41.4857L139.869 41.2617L139.877 41.3482L137.535 41.5604L137.527 41.4857Z" fill="#263238"/>
<path d="M142.218 41.1127L144.568 41.0498L144.572 41.1638L142.222 41.2148L142.218 41.1127Z" fill="#263238"/>
<path d="M146.926 41.085L149.276 41.25L149.26 41.3915L146.918 41.2107L146.926 41.085Z" fill="#263238"/>
<path d="M151.61 41.5762C152.385 41.7155 153.153 41.8965 153.909 42.1184L153.862 42.2756C153.112 42.0538 152.351 41.8715 151.583 41.7294L151.61 41.5762Z" fill="#263238"/>
<path d="M156.121 42.9473C156.841 43.2799 157.521 43.6924 158.149 44.1772L158.027 44.3304C157.419 43.8523 156.76 43.4438 156.062 43.1123L156.121 42.9473Z" fill="#263238"/>
<path d="M159.767 45.9141L160.062 46.4327C160.165 46.6025 160.256 46.7799 160.333 46.9632C160.493 47.3279 160.617 47.7068 160.706 48.0949L160.51 48.142C160.421 47.7655 160.3 47.3974 160.148 47.0418C160.072 46.8644 159.984 46.6924 159.885 46.5271L159.598 46.0241L159.767 45.9141Z" fill="#263238"/>
<path d="M160.887 50.461C160.828 51.2502 160.688 52.0311 160.467 52.7912L160.263 52.7322C160.48 51.9866 160.619 51.22 160.675 50.4453L160.887 50.461Z" fill="#263238"/>
<path d="M159.657 55.0103L158.592 57.1164L158.396 57.0064L159.457 54.9238L159.657 55.0103Z" fill="#263238"/>
<path d="M157.347 59.1248L155.98 61.0423L155.791 60.9009L157.158 58.9951L157.347 59.1248Z" fill="#263238"/>
<path d="M154.514 62.8857L152.969 64.6657L152.792 64.5046L154.329 62.7324L154.514 62.8857Z" fill="#263238"/>
<path d="M151.37 66.3907L149.716 68.0646L149.539 67.8878L151.193 66.2178L151.37 66.3907Z" fill="#263238"/>
<path d="M148.022 69.6994L146.29 71.2908L146.113 71.0943L147.846 69.5107L148.022 69.6994Z" fill="#263238"/>
<path d="M144.525 72.8469L142.729 74.3676L142.556 74.1632L144.348 72.6465L144.525 72.8469Z" fill="#263238"/>
<path d="M140.91 75.8606L139.067 77.3263L138.898 77.1063L140.737 75.6484L140.91 75.8606Z" fill="#263238"/>
<path d="M137.205 78.7601L135.327 80.1747L135.154 79.9389L137.036 78.5361L137.205 78.7601Z" fill="#263238"/>
<path d="M133.424 81.562L131.511 82.9255L131.338 82.6818L133.255 81.3223L133.424 81.562Z" fill="#263238"/>
<path d="M129.578 84.2691L127.633 85.5893L127.46 85.3339L129.409 84.0176L129.578 84.2691Z" fill="#263238"/>
<path d="M125.676 86.8902L123.703 88.1751L123.53 87.9079L125.503 86.6309L125.676 86.8902Z" fill="#263238"/>
<path d="M121.719 89.4362L119.723 90.6818L119.554 90.4067L121.55 89.165L121.719 89.4362Z" fill="#263238"/>
<path d="M117.718 91.9079L115.699 93.1182L115.53 92.8313L117.546 91.6289L117.718 91.9079Z" fill="#263238"/>
<path d="M113.672 94.3132L111.636 95.4921L111.463 95.1895L113.503 94.0225L113.672 94.3132Z" fill="#263238"/>
<path d="M109.589 96.6512L107.534 97.7947L107.365 97.4842L109.42 96.3486L109.589 96.6512Z" fill="#263238"/>
<path d="M105.471 98.9227L103.4 100.035L103.227 99.7165L105.302 98.6084L105.471 98.9227Z" fill="#263238"/>
<path d="M101.318 101.13L99.231 102.21L99.0581 101.88L101.149 100.804L101.318 101.13Z" fill="#263238"/>
<path d="M97.1325 103.28L95.0264 104.329L94.8613 103.992L96.9636 102.942L97.1325 103.28Z" fill="#263238"/>
<path d="M92.9168 105.366L90.7989 106.388L90.6299 106.034L92.7478 105.021L92.9168 105.366Z" fill="#263238"/>
<path d="M88.6683 107.394L86.5346 108.38L86.3735 108.03L88.5033 107.04L88.6683 107.394Z" fill="#263238"/>
<path d="M84.389 109.351L82.2396 110.309L82.0903 109.964L84.2358 109.005L84.389 109.351Z" fill="#263238"/>
<path d="M80.0868 111.248L77.9217 112.175L77.7803 111.834L79.9375 110.906L80.0868 111.248Z" fill="#263238"/>
<path d="M75.7524 113.084L73.5755 113.976L73.438 113.646L75.611 112.75L75.7524 113.084Z" fill="#263238"/>
<path d="M71.3911 114.853L69.1985 115.709L69.0728 115.383L71.2614 114.522L71.3911 114.853Z" fill="#263238"/>
<path d="M67.0015 116.55L64.7971 117.375L64.6792 117.057L66.8797 116.228L67.0015 116.55Z" fill="#263238"/>
<path d="M62.5889 118.176L60.3688 118.962L60.2588 118.651L62.475 117.861L62.5889 118.176Z" fill="#263238"/>
<path d="M58.1446 119.728L55.9127 120.475L55.8105 120.168L58.0385 119.418L58.1446 119.728Z" fill="#263238"/>
<path d="M53.6734 121.198L51.4298 121.898L51.3354 121.599L53.5791 120.896L53.6734 121.198Z" fill="#263238"/>
<path d="M49.1745 122.577L46.915 123.229L46.8325 122.938L49.088 122.282L49.1745 122.577Z" fill="#263238"/>
<path d="M44.6472 123.858L42.372 124.459L42.2974 124.176L44.5686 123.571L44.6472 123.858Z" fill="#263238"/>
<path d="M40.0891 125.033L37.7982 125.575L37.7354 125.296L40.0183 124.75L40.0891 125.033Z" fill="#263238"/>
<path d="M35.4997 126.083L33.1932 126.558L33.1421 126.287L35.4408 125.812L35.4997 126.083Z" fill="#263238"/>
<path d="M30.8826 126.99L28.5603 127.379L28.5171 127.116L30.8315 126.723L30.8826 126.99Z" fill="#263238"/>
<path d="M26.2303 127.721L23.8923 128.012L23.8647 127.757L26.1949 127.466L26.2303 127.721Z" fill="#263238"/>
<path d="M21.5501 128.24L19.1964 128.401L19.1846 128.153L21.5265 127.988L21.5501 128.24Z" fill="#263238"/>
<path d="M16.843 128.475L14.4854 128.452L14.4932 128.212L16.8391 128.232L16.843 128.475Z" fill="#263238"/>
<path d="M12.1271 128.307L9.78516 128.012L9.82445 127.784L12.1507 128.075L12.1271 128.307Z" fill="#263238"/>
<path d="M7.47854 127.513C6.71485 127.302 5.9665 127.04 5.23877 126.727L5.32522 126.526C6.04362 126.827 6.78139 127.079 7.53355 127.281L7.47854 127.513Z" fill="#263238"/>
<path d="M3.15668 125.599C2.50341 125.144 1.92085 124.594 1.42773 123.969L1.59277 123.839C2.0749 124.444 2.64435 124.973 3.28242 125.411L3.15668 125.599Z" fill="#263238"/>
<path d="M0.33137 121.851C0.0979144 121.087 -0.0134815 120.292 0.00129947 119.493H0.205629C0.19021 120.268 0.298992 121.04 0.527841 121.78L0.33137 121.851Z" fill="#263238"/>
<path d="M0.315918 117.163C0.508584 116.398 0.759489 115.649 1.06644 114.923L1.2354 114.99C0.936751 115.71 0.693725 116.452 0.508458 117.21L0.315918 117.163Z" fill="#263238"/>
<path d="M2.09131 112.797L3.30943 110.781L3.4391 110.864L2.24063 112.88L2.09131 112.797Z" fill="#263238"/>
<path d="M4.66211 108.852L6.11599 107.001L6.21423 107.08L4.77606 108.934L4.66211 108.852Z" fill="#263238"/>
<path d="M7.64453 105.213L9.2438 103.484L9.31453 103.555L7.73098 105.292L7.64453 105.213Z" fill="#263238"/>
<path d="M10.8901 101.806L12.5837 100.176L12.6348 100.231L10.953 101.869L10.8901 101.806Z" fill="#263238"/>
<path d="M14.312 98.5844L16.0763 97.0244L16.1038 97.0637L14.3513 98.6276L14.312 98.5844Z" fill="#263238"/>
<path d="M17.8682 95.5039L19.6836 94.0146L19.6953 94.0304L17.8878 95.5314L17.8682 95.5039Z" fill="#263238"/>
<path d="M21.5537 92.5326L22.485 91.8096L21.5576 92.5365L21.5537 92.5326Z" fill="#263238"/>
<path d="M135.043 39.3651L135.542 36.5752C135.611 36.1933 135.525 35.7998 135.304 35.4808C135.083 35.1619 134.745 34.9436 134.363 34.8738C133.981 34.805 133.588 34.8905 133.269 35.1115C132.95 35.3325 132.732 35.6709 132.662 36.0526L132.163 38.8425C132.094 39.2244 132.18 39.6179 132.401 39.9369C132.622 40.2558 132.96 40.4741 133.342 40.5439C133.724 40.6127 134.117 40.5272 134.436 40.3062C134.755 40.0852 134.973 39.7468 135.043 39.3651Z" fill="#DBDBDB"/>
<path d="M168.837 40.0084L168.444 37.2028C168.386 36.8177 168.179 36.471 167.867 36.2383C167.555 36.0057 167.163 35.906 166.778 35.9611C166.587 35.9886 166.403 36.0534 166.238 36.1518C166.072 36.2502 165.927 36.3803 165.812 36.5347C165.697 36.6891 165.613 36.8647 165.566 37.0515C165.518 37.2383 165.508 37.4326 165.536 37.6233L165.929 40.4289C165.956 40.6196 166.021 40.8031 166.119 40.9688C166.218 41.1345 166.348 41.2791 166.502 41.3944C166.657 41.5098 166.832 41.5935 167.019 41.6409C167.206 41.6883 167.4 41.6984 167.591 41.6706C167.976 41.6151 168.324 41.4089 168.558 41.0973C168.791 40.7856 168.892 40.394 168.837 40.0084Z" fill="#DBDBDB"/>
<path d="M139.868 29.116L140.98 28.0787C141.121 27.9473 141.235 27.7893 141.315 27.6138C141.395 27.4383 141.44 27.2487 141.446 27.056C141.453 26.8633 141.421 26.6711 141.354 26.4906C141.286 26.31 141.183 26.1447 141.051 26.0039C140.92 25.8628 140.762 25.749 140.586 25.669C140.411 25.5891 140.221 25.5445 140.028 25.538C139.836 25.5314 139.643 25.5629 139.463 25.6307C139.282 25.6986 139.117 25.8014 138.976 25.9332L137.864 26.9706C137.723 27.102 137.609 27.26 137.529 27.4355C137.449 27.611 137.405 27.8005 137.398 27.9933C137.392 28.186 137.423 28.3782 137.491 28.5587C137.559 28.7392 137.662 28.9046 137.794 29.0453C137.925 29.1865 138.083 29.3003 138.258 29.3802C138.434 29.4602 138.624 29.5047 138.816 29.5113C139.009 29.5179 139.201 29.4863 139.382 29.4185C139.562 29.3507 139.728 29.2479 139.868 29.116Z" fill="#DBDBDB"/>
<path d="M141.425 52.2449L140.387 51.1211C140.256 50.98 140.098 50.8662 139.922 50.7862C139.747 50.7063 139.557 50.6617 139.365 50.6551C139.172 50.6486 138.98 50.6801 138.799 50.7479C138.619 50.8158 138.453 50.9185 138.313 51.0504C138.171 51.1818 138.058 51.3398 137.978 51.5153C137.898 51.6908 137.853 51.8803 137.847 52.0731C137.84 52.2658 137.872 52.458 137.939 52.6385C138.007 52.819 138.11 52.9844 138.242 53.1251L139.279 54.2372C139.411 54.3783 139.569 54.4921 139.744 54.5721C139.92 54.652 140.109 54.6966 140.302 54.7031C140.495 54.7097 140.687 54.6782 140.867 54.6104C141.048 54.5425 141.213 54.4397 141.354 54.3079C141.635 54.0429 141.801 53.6774 141.814 53.291C141.827 52.9046 141.687 52.5286 141.425 52.2449Z" fill="#DBDBDB"/>
<path d="M156.29 57.4402L157.724 56.9255C158.088 56.7925 158.385 56.5208 158.55 56.1697C158.715 55.8186 158.735 55.4165 158.604 55.0512C158.471 54.6849 158.198 54.3864 157.845 54.2214C157.492 54.0563 157.088 54.0382 156.722 54.171L155.292 54.6897C155.111 54.7551 154.944 54.8556 154.802 54.9854C154.659 55.1152 154.544 55.2719 154.462 55.4463C154.38 55.6207 154.334 55.8096 154.325 56.0021C154.317 56.1945 154.346 56.3868 154.412 56.5679C154.477 56.7487 154.578 56.9148 154.708 57.0566C154.838 57.1983 154.995 57.313 155.17 57.3941C155.344 57.4751 155.533 57.5209 155.725 57.5288C155.917 57.5368 156.109 57.5067 156.29 57.4402Z" fill="#DBDBDB"/>
<path d="M156.818 56.054C165.51 52.5948 169.753 42.7439 166.294 34.0513C162.834 25.3588 152.984 21.1163 144.291 24.5755C135.598 28.0346 131.356 37.8856 134.815 46.5781C138.274 55.2707 148.125 59.5132 156.818 56.054Z" fill="#DBDBDB"/>
<path opacity="0.2" d="M163.626 41.7412C164.123 42.385 164.399 43.1719 164.412 43.9849C164.439 44.8193 164.238 45.6453 163.831 46.374C163.419 47.1319 162.733 47.703 161.913 47.9693C161.128 48.2142 160.283 48.1753 159.524 47.8593C160.274 47.8798 161.018 47.7335 161.705 47.431C162.022 47.285 162.31 47.0841 162.557 46.8377C162.809 46.5972 163.021 46.3187 163.186 46.0125C163.273 45.8553 163.355 45.6942 163.43 45.5331C163.504 45.372 163.567 45.1991 163.614 45.0262C163.727 44.6842 163.802 44.3312 163.838 43.9731C163.915 43.2224 163.843 42.464 163.626 41.7412Z" fill="black"/>
<path opacity="0.2" d="M159.19 46.0127C158.805 45.5933 158.58 45.0524 158.553 44.4841C158.518 43.8973 158.655 43.313 158.946 42.8024C159.092 42.5343 159.29 42.298 159.528 42.1071C159.766 41.9162 160.04 41.7745 160.333 41.6903C160.886 41.5276 161.48 41.5853 161.991 41.8514C161.487 41.8833 160.993 42.017 160.541 42.2444C160.142 42.4556 159.815 42.7813 159.602 43.1796C159.119 44.0403 158.972 45.0498 159.19 46.0127Z" fill="black"/>
<path opacity="0.2" d="M156.058 49.9658C156.269 50.313 156.347 50.7247 156.278 51.125C156.213 51.5413 156.022 51.9279 155.732 52.2331C155.584 52.3923 155.406 52.5202 155.209 52.6093C155.011 52.6984 154.797 52.7469 154.58 52.7518C154.171 52.7638 153.772 52.6238 153.46 52.3588C153.817 52.4147 154.18 52.4067 154.533 52.3353C154.842 52.2608 155.122 52.0968 155.339 51.8637C155.569 51.6221 155.749 51.3378 155.869 51.0268C155.993 50.6867 156.057 50.3277 156.058 49.9658Z" fill="black"/>
<path opacity="0.2" d="M153.752 51.7654C153.578 51.5424 153.499 51.2602 153.532 50.9795C153.575 50.6822 153.713 50.4067 153.925 50.1936C154.031 50.078 154.16 49.9861 154.305 49.9238C154.449 49.8615 154.604 49.8303 154.762 49.8321C154.909 49.831 155.055 49.8605 155.19 49.9187C155.325 49.9769 155.447 50.0624 155.547 50.17C155.305 50.162 155.063 50.1898 154.828 50.2526C154.638 50.311 154.467 50.4196 154.333 50.5669C154.013 50.892 153.809 51.313 153.752 51.7654Z" fill="black"/>
<path opacity="0.2" d="M140.293 31.585C140.443 31.8321 140.499 32.1251 140.45 32.4101C140.403 32.7062 140.266 32.9806 140.057 33.196C139.953 33.3095 139.827 33.4007 139.686 33.4642C139.546 33.5277 139.394 33.5621 139.24 33.5654C138.953 33.5713 138.673 33.472 138.454 33.2864C138.705 33.3322 138.962 33.3322 139.212 33.2864C139.433 33.2349 139.633 33.1186 139.786 32.9524C139.957 32.7839 140.09 32.5818 140.179 32.3591C140.263 32.11 140.302 31.8477 140.293 31.585Z" fill="black"/>
<path opacity="0.2" d="M138.662 32.8658C138.599 32.7855 138.553 32.6932 138.527 32.5946C138.5 32.496 138.494 32.3931 138.509 32.2921C138.533 32.0793 138.627 31.8805 138.776 31.7262C138.851 31.644 138.943 31.5788 139.045 31.5347C139.147 31.4907 139.258 31.4689 139.369 31.4708C139.472 31.4708 139.573 31.4922 139.667 31.5334C139.761 31.5747 139.846 31.635 139.915 31.7105C139.743 31.7037 139.571 31.7236 139.405 31.7695C139.27 31.8114 139.149 31.8888 139.055 31.9934C138.83 32.2322 138.692 32.5393 138.662 32.8658Z" fill="black"/>
<path opacity="0.2" d="M140.93 46.5518C141.132 46.5809 141.326 46.6505 141.501 46.7565C141.676 46.8625 141.828 47.0027 141.947 47.1687C142.077 47.3484 142.17 47.5522 142.219 47.7681C142.269 47.984 142.276 48.2077 142.238 48.4261C142.197 48.6509 142.105 48.8631 141.969 49.0465C141.832 49.2298 141.656 49.3792 141.452 49.4831C141.093 49.6796 140.677 49.7475 140.273 49.6757C140.568 49.48 140.844 49.2577 141.099 49.0116C141.302 48.8227 141.44 48.5734 141.492 48.3004C141.541 48.0163 141.518 47.7243 141.425 47.4516C141.311 47.1263 141.143 46.8222 140.93 46.5518Z" fill="black"/>
<path opacity="0.2" d="M140.148 49.1018C139.995 49.1027 139.844 49.0676 139.708 48.9994C139.571 48.9311 139.453 48.8316 139.362 48.7089C139.26 48.5807 139.187 48.4325 139.147 48.274C139.107 48.1155 139.102 47.9503 139.13 47.7894C139.156 47.6205 139.223 47.4606 139.325 47.3236C139.427 47.1866 139.561 47.0767 139.716 47.0035C139.846 46.9387 139.989 46.9004 140.134 46.891C140.28 46.8815 140.426 46.9011 140.564 46.9485C140.385 47.1112 140.217 47.2858 140.061 47.4711C139.956 47.5945 139.886 47.7437 139.857 47.9033C139.824 48.072 139.824 48.2455 139.857 48.4142C139.918 48.657 140.016 48.889 140.148 49.1018Z" fill="black"/>
<path opacity="0.2" d="M158.557 26.876C158.689 27.0319 158.788 27.2128 158.848 27.408C158.908 27.6032 158.928 27.8085 158.907 28.0116C158.885 28.232 158.819 28.4457 158.713 28.6401C158.607 28.8346 158.463 29.0057 158.29 29.1433C158.112 29.2849 157.904 29.3838 157.682 29.4322C157.46 29.4805 157.229 29.4771 157.009 29.4222C156.613 29.3321 156.261 29.1087 156.011 28.7896C156.359 28.8421 156.712 28.8593 157.064 28.8407C157.342 28.8331 157.611 28.7367 157.83 28.5656C158.055 28.3862 158.231 28.1522 158.341 27.8858C158.469 27.5636 158.542 27.2223 158.557 26.876Z" fill="black"/>
<path opacity="0.2" d="M156.278 28.2635C156.166 28.1666 156.079 28.0453 156.021 27.9091C155.964 27.7728 155.939 27.6251 155.948 27.4776C155.959 27.3113 156.006 27.1493 156.085 27.0024C156.163 26.8554 156.272 26.7267 156.404 26.6249C156.536 26.5196 156.692 26.4475 156.858 26.4146C157.025 26.3818 157.196 26.3893 157.359 26.4363C157.643 26.5153 157.884 26.703 158.031 26.9589C157.787 26.9632 157.545 26.9829 157.304 27.0178C157.144 27.0387 156.992 27.1041 156.868 27.2065C156.731 27.3141 156.618 27.4476 156.534 27.5994C156.417 27.8075 156.331 28.0311 156.278 28.2635Z" fill="black"/>
<path d="M139.9 44.4061C139.943 45.1016 138.905 45.7342 137.585 45.8128C136.265 45.8914 135.161 45.3923 135.118 44.6929C135.074 43.9935 136.112 43.3648 137.432 43.2822C138.752 43.1997 139.841 43.7066 139.9 44.4061Z" fill="#6F98C0"/>
<path d="M156.651 39.7254C156.978 40.3462 158.188 40.3462 159.359 39.7254C160.53 39.1045 161.214 38.1065 160.887 37.4896C160.561 36.8726 159.347 36.8687 158.176 37.4896C157.005 38.1104 156.325 39.0928 156.651 39.7254Z" fill="#6F98C0"/>
<path d="M144.804 40.6023C146.097 41.8833 148.203 41.6554 149.547 40.6023C150 40.2231 150.333 39.7208 150.506 39.1562C150.514 39.8008 150.267 40.4226 149.818 40.8852C148.517 42.2644 145.779 42.457 144.804 40.618V40.6023Z" fill="#263238"/>
<path d="M141.177 36.4913C139.904 36.6444 138.741 37.2905 137.939 38.2909C137.666 38.6294 137.434 38.9986 137.248 39.3912C137.246 39.1612 137.278 38.9322 137.342 38.7114C137.782 37.1396 139.586 35.9804 141.177 36.4913Z" fill="#263238"/>
<path d="M151.437 33.6197C152.529 32.3584 154.683 32.4409 155.866 33.5293C156.038 33.6819 156.185 33.861 156.302 34.0598C155.934 33.818 155.538 33.6214 155.123 33.4743C153.917 33.0395 152.589 33.0917 151.421 33.6197H151.437Z" fill="#263238"/>
<path d="M151.912 38.3821C152.476 38.549 153.073 38.5641 153.644 38.4262C154.216 38.2882 154.74 38.0019 155.166 37.5962C155.454 37.3137 155.717 37.006 155.952 36.6768C155.904 38.6415 153.366 39.4274 151.916 38.3743L151.912 38.3821Z" fill="#263238"/>
<path d="M143.244 40.8066C142.541 42.4491 139.967 43.0975 138.922 41.4511C139.291 41.6136 139.674 41.7451 140.065 41.844C140.64 41.9661 141.237 41.9353 141.796 41.7546C142.355 41.574 142.857 41.2498 143.252 40.8145L143.244 40.8066Z" fill="#263238"/>
<path opacity="0.1" d="M162.628 52.1973C161.455 53.3862 160.114 54.3963 158.648 55.1954C158.695 55.379 158.703 55.5704 158.671 55.7573C158.636 56.0219 158.528 56.2717 158.36 56.4795C158.193 56.6873 157.971 56.8452 157.72 56.9361L156.29 57.4548C156.13 57.5121 155.961 57.5413 155.791 57.5413C155.647 57.5405 155.504 57.518 155.367 57.4745C155.007 57.3679 154.702 57.1255 154.518 56.7986C152.256 57.3372 149.907 57.4058 147.617 57.0003C145.327 56.5947 143.145 55.7237 141.205 54.441C140.915 54.6474 140.56 54.7417 140.206 54.7063C139.852 54.6709 139.523 54.5082 139.28 54.2484L138.238 53.1364C138.052 52.9365 137.926 52.6886 137.873 52.4206C137.82 52.1526 137.843 51.8752 137.94 51.6196C135.211 48.5811 133.676 44.6572 133.617 40.574H133.613C133.528 40.5742 133.442 40.5663 133.358 40.5505C132.977 40.4787 132.64 40.26 132.42 39.9416C132.199 39.6231 132.113 39.2306 132.179 38.849L132.682 36.0591C132.742 35.7191 132.92 35.4111 133.184 35.1891C133.449 34.9671 133.783 34.8452 134.128 34.8449C134.214 34.8469 134.299 34.8548 134.384 34.8685L134.529 34.9039C135.241 32.7727 136.371 30.8049 137.853 29.1158C137.832 29.0982 137.812 29.0785 137.794 29.0569C137.662 28.9162 137.56 28.7508 137.492 28.5703C137.424 28.3897 137.392 28.1976 137.399 28.0048C137.406 27.8121 137.45 27.6226 137.53 27.4471C137.61 27.2716 137.724 27.1136 137.865 26.9822L138.977 25.9448C139.249 25.6911 139.607 25.5506 139.979 25.5519H140.152C140.496 25.5932 140.815 25.7546 141.052 26.0077C141.109 26.0671 141.16 26.1316 141.205 26.2002C143.903 24.4079 147.059 23.4298 150.298 23.3828C139.83 26.6442 135.653 35.564 138.509 44.9475C140.498 51.4978 147.979 55.4901 155.103 54.771C156.049 54.6769 156.984 54.4981 157.897 54.2366C160.041 53.627 162.016 52.5326 163.67 51.0381C163.342 51.442 162.995 51.8289 162.628 52.1973Z" fill="black"/>
<path opacity="0.3" d="M168.849 40.2212C168.849 40.574 168.722 40.915 168.491 41.1815C168.26 41.448 167.94 41.6219 167.591 41.6712C167.54 41.6751 167.489 41.6751 167.438 41.6712C167.395 42.2056 167.324 42.74 167.23 43.2783C166.724 46.1298 165.494 48.8036 163.658 51.0429C171.462 35.561 159.504 25.3405 151.551 23.4033C152.21 23.4482 152.866 23.5269 153.516 23.6391C156.688 24.2052 159.633 25.6647 162.004 27.846C164.375 30.0274 166.075 32.8401 166.903 35.9539C167.265 35.9394 167.62 36.0595 167.899 36.291C168.177 36.5225 168.36 36.8489 168.412 37.2074L168.805 40.013C168.824 40.0816 168.838 40.1511 168.849 40.2212Z" fill="white"/>
</svg>
