<svg width="64" height="64" viewBox="0 0 64 64" fill="none" xmlns="http://www.w3.org/2000/svg">
<g clip-path="url(#clip0_595_7942)">
<mask id="mask0_595_7942" style="mask-type:luminance" maskUnits="userSpaceOnUse" x="0" y="0" width="64" height="64">
<path d="M64 0H0V64H64V0Z" fill="white"/>
</mask>
<g mask="url(#mask0_595_7942)">
<path d="M64 0H0V64H64V0Z" fill="#FF33FF" fill-opacity="0.04"/>
<g opacity="0.48" filter="url(#filter0_f_595_7942)">
<path d="M32 72C43.0457 72 52 68.4183 52 64C52 59.5817 43.0457 56 32 56C20.9543 56 12 59.5817 12 64C12 68.4183 20.9543 72 32 72Z" fill="#FF33FF"/>
</g>
<g opacity="0.64" filter="url(#filter1_f_595_7942)">
<path d="M32 44C38.6274 44 44 38.6274 44 32C44 25.3726 38.6274 20 32 20C25.3726 20 20 25.3726 20 32C20 38.6274 25.3726 44 32 44Z" fill="#FF33FF"/>
</g>
<path opacity="0.24" d="M1 16H63M1 48H63M16 63V1M48 63V1M5.66667 5.66667L59 59M5.66667 58.3333L58.3333 5.66666M55 32.6667C55 45.3692 44.7025 55.6667 32 55.6667C19.2975 55.6667 9 45.3692 9 32.6667C9 19.9641 19.2975 9.66667 32 9.66667C44.7025 9.66667 55 19.9641 55 32.6667Z" stroke="#FF33FF" stroke-width="0.5" stroke-linecap="round" stroke-linejoin="round"/>
</g>
<path d="M30.0286 27.2126C28.9068 28.045 27.5479 28.4962 26.1511 28.5001C24.6973 28.5001 23.3636 28.0126 22.2723 27.2126C21.3348 27.9938 20.3998 29.1126 19.6348 30.4913C17.8561 33.6951 17.6598 36.9813 19.1973 37.8338C19.8823 38.2238 20.6048 37.9313 21.3498 37.2138C21.2103 37.9868 21.1404 38.7708 21.1411 39.5563C21.1411 43.2288 22.5661 46.1963 24.3198 46.1963C25.3773 46.1963 25.9011 45.1151 26.1523 43.4613C26.4023 45.1038 26.9273 46.1963 27.9773 46.1963C29.7236 46.1963 31.1598 43.2276 31.1598 39.5563C31.1598 38.7313 31.0823 37.9438 30.9498 37.2151C31.6998 37.9338 32.4198 38.2313 33.1073 37.8363C34.6411 36.9838 34.4423 33.6988 32.6648 30.4938C31.9023 29.1138 30.9648 27.9963 30.0273 27.2151L30.0286 27.2126ZM26.1498 27.2501C26.8525 27.2498 27.5482 27.1112 28.1973 26.8421C28.8463 26.5729 29.4361 26.1786 29.9327 25.6816C30.4294 25.1846 30.8233 24.5946 31.092 23.9453C31.3607 23.2961 31.4988 22.6002 31.4986 21.8976C31.4983 21.1949 31.3597 20.4992 31.0906 19.8501C30.8214 19.2011 30.4271 18.6113 29.9301 18.1147C29.4331 17.618 28.8431 17.2241 28.1938 16.9554C27.5445 16.6867 26.8487 16.5486 26.1461 16.5488C24.7267 16.5493 23.3656 17.1137 22.3623 18.1177C21.3589 19.1217 20.7956 20.4832 20.7961 21.9026C20.7966 23.322 21.3609 24.6831 22.3649 25.6864C23.3689 26.6897 24.7304 27.2531 26.1498 27.2526V27.2501ZM39.4836 34.0876C41.3686 34.0876 42.8986 32.5576 42.8986 30.6701C42.8986 28.7826 41.3661 27.2501 39.4823 27.2501C38.5754 27.2504 37.7057 27.6108 37.0644 28.2521C36.4231 28.8934 36.0626 29.7631 36.0623 30.6701C36.063 31.577 36.4237 32.4466 37.0653 33.0877C37.7068 33.7287 38.5766 34.0876 39.4836 34.0876ZM43.6461 36.1588C43.1586 35.2776 42.5611 34.5626 41.9611 34.0626C41.2611 34.5751 40.4111 34.8876 39.4823 34.8876C38.5536 34.8876 37.6998 34.5751 37.0036 34.0626C36.4036 34.5626 35.8061 35.2776 35.3161 36.1588C34.1786 38.2063 34.0536 40.3063 35.0361 40.8513C35.4736 41.1013 35.9361 40.9138 36.4111 40.4563C36.3249 40.9504 36.2814 41.451 36.2811 41.9526C36.2811 44.3026 37.1911 46.1988 38.3123 46.1988C38.9873 46.1988 39.3248 45.5076 39.4848 44.4513C39.6448 45.5013 39.9798 46.1976 40.6523 46.1976C41.7686 46.1976 42.6861 44.3001 42.6861 41.9526C42.6861 41.4276 42.6361 40.9226 42.5511 40.4576C43.0298 40.9163 43.4911 41.1076 43.9311 40.8538C44.9086 40.3113 44.7811 38.2101 43.6461 36.1626V36.1588Z" fill="#B10AC0"/>
</g>
<defs>
<filter id="filter0_f_595_7942" x="-1.33334" y="42.6667" width="66.6667" height="42.6667" filterUnits="userSpaceOnUse" color-interpolation-filters="sRGB">
<feFlood flood-opacity="0" result="BackgroundImageFix"/>
<feBlend mode="normal" in="SourceGraphic" in2="BackgroundImageFix" result="shape"/>
<feGaussianBlur stdDeviation="6.66667" result="effect1_foregroundBlur_595_7942"/>
</filter>
<filter id="filter1_f_595_7942" x="0" y="0" width="64" height="64" filterUnits="userSpaceOnUse" color-interpolation-filters="sRGB">
<feFlood flood-opacity="0" result="BackgroundImageFix"/>
<feBlend mode="normal" in="SourceGraphic" in2="BackgroundImageFix" result="shape"/>
<feGaussianBlur stdDeviation="10" result="effect1_foregroundBlur_595_7942"/>
</filter>
<clipPath id="clip0_595_7942">
<rect width="64" height="64" fill="white"/>
</clipPath>
</defs>
</svg>
