<svg width="64" height="64" viewBox="0 0 64 64" fill="none" xmlns="http://www.w3.org/2000/svg">
<g clip-path="url(#clip0_595_7989)">
<mask id="mask0_595_7989" style="mask-type:luminance" maskUnits="userSpaceOnUse" x="0" y="0" width="64" height="64">
<path d="M64 0H0V64H64V0Z" fill="white"/>
</mask>
<g mask="url(#mask0_595_7989)">
<path d="M64 0H0V64H64V0Z" fill="#1ED091" fill-opacity="0.04"/>
<g opacity="0.48" filter="url(#filter0_f_595_7989)">
<path d="M32 72C43.0457 72 52 68.4183 52 64C52 59.5817 43.0457 56 32 56C20.9543 56 12 59.5817 12 64C12 68.4183 20.9543 72 32 72Z" fill="#1ED091"/>
</g>
<g opacity="0.64" filter="url(#filter1_f_595_7989)">
<path d="M32 44C38.6274 44 44 38.6274 44 32C44 25.3726 38.6274 20 32 20C25.3726 20 20 25.3726 20 32C20 38.6274 25.3726 44 32 44Z" fill="#1ED091"/>
</g>
<path opacity="0.24" d="M1 16H63M1 48H63M16 63V1M48 63V1M5.66667 5.66667L59 59M5.66667 58.3333L58.3333 5.66666M55 32.6667C55 45.3692 44.7025 55.6667 32 55.6667C19.2975 55.6667 9 45.3692 9 32.6667C9 19.9641 19.2975 9.66667 32 9.66667C44.7025 9.66667 55 19.9641 55 32.6667Z" stroke="#1ED091" stroke-width="0.5" stroke-linecap="round" stroke-linejoin="round"/>
</g>
<path d="M30.5889 33.625L32.6111 35.7917C32.8963 36.0972 33.2593 36.25 33.7 36.25C34.1407 36.25 34.5037 36.0972 34.7889 35.7917L39.2222 31.0417V32.0417C39.2222 32.5139 39.3716 32.9028 39.6702 33.2083C39.9689 33.5139 40.3381 33.6667 40.7778 33.6667C41.2175 33.6667 41.5872 33.5072 41.8869 33.1883C42.1866 32.8694 42.3354 32.4733 42.3333 32V27C42.3333 26.5278 42.184 26.1322 41.8853 25.8133C41.5867 25.4944 41.2175 25.3344 40.7778 25.3333H36.0722C35.6315 25.3333 35.2685 25.4933 34.9833 25.8133C34.6981 26.1333 34.5556 26.5289 34.5556 27C34.5556 27.4711 34.7049 27.8672 35.0036 28.1883C35.3022 28.5094 35.6714 28.6689 36.1111 28.6667H37.0056L33.7 32.25L31.6778 30.0833C31.3926 29.75 31.0296 29.5833 30.5889 29.5833C30.1481 29.5833 29.7852 29.75 29.5 30.0833L24.7556 35.1667C24.4444 35.4722 24.2889 35.8611 24.2889 36.3333C24.2889 36.8056 24.4444 37.1944 24.7556 37.5C25.0407 37.8333 25.4037 38 25.8444 38C26.2852 38 26.6481 37.8333 26.9333 37.5L30.5889 33.625ZM22.1111 47C21.2556 47 20.5234 46.6739 19.9147 46.0217C19.3059 45.3694 19.001 44.5844 19 43.6667V20.3333C19 19.4167 19.3049 18.6322 19.9147 17.98C20.5244 17.3278 21.2566 17.0011 22.1111 17H43.8889C44.7444 17 45.4771 17.3267 46.0869 17.98C46.6967 18.6333 47.001 19.4178 47 20.3333V43.6667C47 44.5833 46.6956 45.3683 46.0869 46.0217C45.4781 46.675 44.7455 47.0011 43.8889 47H22.1111Z" fill="#1ED091"/>
</g>
<defs>
<filter id="filter0_f_595_7989" x="-1.33334" y="42.6667" width="66.6667" height="42.6667" filterUnits="userSpaceOnUse" color-interpolation-filters="sRGB">
<feFlood flood-opacity="0" result="BackgroundImageFix"/>
<feBlend mode="normal" in="SourceGraphic" in2="BackgroundImageFix" result="shape"/>
<feGaussianBlur stdDeviation="6.66667" result="effect1_foregroundBlur_595_7989"/>
</filter>
<filter id="filter1_f_595_7989" x="0" y="0" width="64" height="64" filterUnits="userSpaceOnUse" color-interpolation-filters="sRGB">
<feFlood flood-opacity="0" result="BackgroundImageFix"/>
<feBlend mode="normal" in="SourceGraphic" in2="BackgroundImageFix" result="shape"/>
<feGaussianBlur stdDeviation="10" result="effect1_foregroundBlur_595_7989"/>
</filter>
<clipPath id="clip0_595_7989">
<rect width="64" height="64" fill="white"/>
</clipPath>
</defs>
</svg>
