<svg width="32" height="32" viewBox="0 0 32 32" fill="none" xmlns="http://www.w3.org/2000/svg">
<path d="M15.9891 19.5334C15.289 19.534 14.6045 19.3267 14.0225 18.9376C13.4405 18.5486 12.9871 17.9954 12.72 17.3483C12.4528 16.7012 12.384 15.9893 12.5221 15.303C12.6602 14.6166 12.9991 13.9868 13.4958 13.4934C13.5895 13.4006 13.7005 13.3272 13.8226 13.2773C13.9446 13.2274 14.0753 13.202 14.2072 13.2026C14.339 13.2033 14.4695 13.2299 14.5911 13.2809C14.7126 13.3319 14.823 13.4064 14.9158 13.5001C15.0086 13.5937 15.082 13.7048 15.1319 13.8268C15.1818 13.9489 15.2072 14.0796 15.2065 14.2115C15.2059 14.3433 15.1793 14.4738 15.1283 14.5953C15.0773 14.7169 15.0028 14.8273 14.9091 14.9201C14.7653 15.0607 14.6511 15.2287 14.5732 15.4142C14.4953 15.5997 14.4554 15.7989 14.4558 16.0001C14.4381 16.3167 14.5198 16.631 14.6897 16.8989C14.8595 17.1668 15.1088 17.3748 15.4028 17.4939C15.6968 17.6129 16.0207 17.6371 16.329 17.5629C16.6374 17.4886 16.9148 17.3198 17.1224 17.0801C17.3122 16.892 17.5686 16.7865 17.8358 16.7865C18.103 16.7865 18.3593 16.892 18.5491 17.0801C18.734 17.2715 18.8374 17.5272 18.8374 17.7934C18.8374 18.0596 18.734 18.3153 18.5491 18.5067C18.2121 18.8396 17.8122 19.1018 17.3726 19.2781C16.933 19.4544 16.4627 19.5412 15.9891 19.5334Z" fill="#F5F5F5"/>
<path d="M29.6561 16.0002C29.6561 19.6248 28.2162 23.101 25.6532 25.664C23.0902 28.227 19.614 29.6668 15.9894 29.6668C12.3648 29.6668 8.88862 28.227 6.32563 25.664C3.76263 23.101 2.32275 19.6248 2.32275 16.0002C2.32275 12.3755 3.76263 8.89937 6.32563 6.33637C8.88862 3.77337 12.3648 2.3335 15.9894 2.3335C16.2546 2.3335 16.509 2.43885 16.6965 2.62639C16.8841 2.81393 16.9894 3.06828 16.9894 3.3335V8.40016C16.986 8.66431 16.8795 8.91666 16.6927 9.10345C16.5059 9.29024 16.2536 9.39671 15.9894 9.40016C14.6836 9.39117 13.4055 9.77692 12.3228 10.5068C11.2339 11.2285 10.3847 12.2582 9.88359 13.4646C9.38251 14.6711 9.25224 15.9994 9.50942 17.2802C9.92767 18.7996 10.8707 20.1217 12.1711 21.012C13.4715 21.9022 15.0453 22.303 16.6131 22.1432C18.1809 21.9834 19.6414 21.2733 20.7355 20.139C21.8295 19.0046 22.4864 17.5194 22.5894 15.9468C22.5876 15.815 22.6123 15.6842 22.6619 15.562C22.7115 15.4399 22.7851 15.3289 22.8783 15.2357C22.9715 15.1425 23.0825 15.0689 23.2046 15.0193C23.3268 14.9697 23.4576 14.945 23.5894 14.9468H28.6561C28.792 14.9466 28.9266 14.9742 29.0515 15.0277C29.1764 15.0813 29.2891 15.1597 29.3827 15.2583C29.4763 15.3569 29.5488 15.4735 29.5958 15.6011C29.6428 15.7286 29.6633 15.8644 29.6561 16.0002Z" fill="#F5F5F5"/>
<path d="M29.1762 8.17341C29.1414 8.43282 29.0352 8.67746 28.8696 8.88008L25.9762 11.7734C25.5647 12.1865 25.0557 12.4892 24.4962 12.6534C24.168 12.7542 23.8262 12.8037 23.4829 12.8001C23.2478 12.8209 23.0113 12.8209 22.7762 12.8001L21.0029 12.4534L17.9629 15.5067C17.7717 15.6885 17.52 15.7931 17.2562 15.8001C16.9911 15.7998 16.7369 15.6943 16.5496 15.5067C16.4552 15.4148 16.3802 15.3049 16.329 15.1836C16.2778 15.0622 16.2515 14.9318 16.2515 14.8001C16.2515 14.6684 16.2778 14.538 16.329 14.4166C16.3802 14.2952 16.4552 14.1853 16.5496 14.0934L19.6029 11.0267L19.2429 9.26674C19.1353 8.69946 19.1627 8.11481 19.3229 7.56008C19.4871 7.00059 19.7898 6.49155 20.2029 6.08008L23.0696 3.21341C23.2665 3.03423 23.5127 2.91813 23.7762 2.88008C24.0229 2.84434 24.2745 2.88628 24.4962 3.00008C24.7162 3.11198 24.9009 3.28277 25.0296 3.49341C25.1598 3.72912 25.2155 3.99872 25.1896 4.26674L24.7629 7.28008L27.7629 6.86674C28.014 6.8421 28.2667 6.89382 28.488 7.01515C28.7092 7.13647 28.8887 7.32175 29.0029 7.54674C29.1115 7.73813 29.171 7.95342 29.1762 8.17341Z" fill="#F5F5F5"/>
</svg>
