<svg width="92" height="47" viewBox="0 0 92 47" fill="none" xmlns="http://www.w3.org/2000/svg">
<path d="M30.5086 10.1334C30.3452 10.0613 30.0488 9.96162 29.5475 9.86467C28.2871 9.61538 26.88 9.51012 25.362 9.55998C23.8496 9.60984 22.448 9.80928 21.196 10.1583C20.6198 10.3189 20.3456 10.4713 20.2348 10.5516C20.2016 10.9366 20.1794 11.6679 20.2376 13.0224C20.2902 14.2883 20.3428 15.7619 20.3872 17.3989L20.5423 22.8391L17.4787 18.3407C16.7779 17.3131 15.6311 15.7702 14.0744 13.7537C12.2351 11.3743 11.1964 10.6624 10.731 10.4491C10.3294 10.2829 9.55102 10.0503 8.09678 9.88129C6.83644 9.74003 5.5678 9.68186 4.32685 9.72064C3.1136 9.75388 2.03608 9.87853 1.12753 10.0946C0.914243 10.1444 0.761891 10.1915 0.656632 10.2303C0.351934 12.2995 0.155266 14.9642 0.0721666 18.1551C-0.0192426 21.601 -0.0247849 25.0523 0.0610844 28.4178C0.144184 31.7639 0.304847 34.7693 0.537525 37.3426C0.781282 40.0239 1.02781 40.9131 1.11645 41.1624C1.38514 41.2732 2.22167 41.5169 4.46812 41.6166C7.14946 41.733 8.5289 41.5114 9.21863 41.2981C9.31003 41.01 9.45684 40.4034 9.60919 39.2068C9.85018 37.2761 10.0884 34.9383 10.3155 32.2514L10.6784 27.9248L13.1991 31.4592C13.3403 31.6587 13.7254 32.1545 14.7558 33.3843C15.6006 34.3954 16.5452 35.4812 17.5673 36.6141C18.5839 37.7442 19.5894 38.8024 20.5617 39.7663C21.7832 40.9795 22.2707 41.2288 22.3566 41.2676C22.3899 41.2815 22.7167 41.42 23.9355 41.5308C24.8884 41.6166 25.9022 41.6471 26.9437 41.6166C27.9686 41.5862 28.9104 41.4975 29.7441 41.3424C29.9796 41.3009 30.143 41.2565 30.2566 41.2205C30.3286 40.7607 30.4449 39.7275 30.5779 37.4728C30.7302 34.9134 30.8327 31.9052 30.8854 28.5452C30.938 25.177 30.938 21.7062 30.8854 18.2327C30.8383 14.9891 30.7109 12.269 30.5086 10.1334Z" fill="#FFAA00"/>
<path d="M62.7928 31.2626C62.4604 31.21 61.7098 31.1435 60.1475 31.1158C58.8207 31.0936 57.2778 31.1047 55.5632 31.149L51.6465 31.2515L54.3777 28.4428C56.0147 26.7614 57.5825 25.105 59.034 23.5234C60.4716 21.9611 61.6932 20.554 62.6654 19.3407L62.7236 19.2687C62.8926 19.025 63.1585 18.4793 63.3441 17.2965C63.5241 16.1553 63.5767 14.9753 63.502 13.787C63.4299 12.643 63.225 11.6181 62.8981 10.7511C62.6959 10.2082 62.5131 10.0697 62.4854 10.0503C61.5436 9.92289 59.6905 9.79547 56.9731 9.67082C54.181 9.54064 51.242 9.47693 48.2449 9.47693C45.2561 9.47693 42.5249 9.56834 40.1261 9.74561C38.4586 9.87026 37.6858 10.042 37.3561 10.1417C37.262 10.452 37.1567 10.9616 37.0902 11.7788C37.0044 12.8286 36.9822 13.9061 37.0238 14.9864C37.0681 16.0583 37.165 17.0306 37.3118 17.8782C37.3672 18.2106 37.4254 18.4211 37.4642 18.5485C37.7273 18.6427 38.4143 18.8366 40.043 19.0554C41.9155 19.3075 44.1454 19.4709 46.6688 19.5485L50.9512 19.6731L47.63 22.3766C44.9459 24.5621 42.3892 26.7254 40.043 28.8112C36.9296 31.5756 36.4836 32.5091 36.4254 32.667L36.4033 32.7251C36.1346 33.3816 35.8244 34.7777 35.877 37.6778C35.913 39.6999 36.0986 40.5087 36.1928 40.7968C36.4587 40.8854 37.2426 41.0849 39.2564 41.2538C41.4834 41.4422 44.0789 41.5585 46.979 41.5945C49.8986 41.6305 52.8985 41.6222 55.9011 41.5613C58.7764 41.5031 61.1641 41.3868 63.0061 41.2178C63.0809 41.0987 63.2222 40.83 63.3662 40.2982C63.6875 39.1237 63.851 37.7941 63.851 36.3538C63.851 34.9162 63.6737 33.5755 63.3274 32.3706C63.0865 31.5285 62.8372 31.2986 62.7928 31.2626Z" fill="#FFAA00"/>
<path d="M91.9501 35.639C91.8559 34.0934 91.6454 32.6419 91.3269 31.3234C91.144 30.5672 90.9723 30.1988 90.8781 30.0409C90.6731 30.0215 90.2549 30.0049 89.4987 30.0548C88.435 30.1268 87.3353 30.1933 86.2273 30.2514C85.0584 30.3151 83.9753 30.3262 83.0169 30.2847C81.3826 30.2182 80.3799 29.6531 80.0447 28.6089C79.9312 28.2792 79.8453 27.7834 79.7899 25.2572C79.7539 23.5454 79.7179 21.612 79.6874 19.5123C79.6569 17.4016 79.6237 15.3657 79.5849 13.4074C79.5545 11.9559 79.5185 10.8507 79.4686 10.1083C79.2719 10.0474 78.97 9.96708 78.5157 9.88952C77.1972 9.66238 75.7263 9.54882 74.1419 9.55713C72.5686 9.56544 71.106 9.70393 69.7903 9.97262C69.2557 10.0834 68.951 10.1942 68.7959 10.2718C68.6989 11.3604 68.638 13.3797 68.6186 16.2826C68.5964 19.5206 68.6324 22.972 68.7322 26.548C68.8291 30.1129 69.023 33.4258 69.3 36.3924C69.6075 39.6443 69.9814 40.5861 70.0922 40.8022C70.2556 40.8991 70.9565 41.226 73.1641 41.4088C75.3247 41.5888 77.7069 41.6636 80.2525 41.6332C82.8092 41.6027 85.2689 41.5002 87.5625 41.3257C89.8283 41.1567 91.0111 40.9989 91.626 40.8825C91.6842 40.7108 91.7673 40.4033 91.8365 39.8798C92.0055 38.6056 92.0443 37.1791 91.9501 35.639Z" fill="#FFAA00"/>
<path d="M47.1326 6.46565C47.1575 6.46565 47.1825 6.46565 47.2074 6.46288C49.7004 6.2302 51.6255 5.61527 53.246 4.52668L53.5645 4.80368C53.6864 4.92278 53.8526 4.98926 54.0326 4.98649C54.2099 4.98095 54.3733 4.90893 54.4869 4.78428L54.5617 4.70119C54.7722 4.46574 54.9938 4.22199 55.0714 3.90898C55.1323 3.65969 54.9966 3.42424 54.606 3.114C54.7916 2.84809 54.9689 2.56556 55.0575 2.21654C55.1545 1.83429 55.16 1.41325 55.0824 0.925743C55.016 0.52687 54.7888 0.230487 54.4343 0.091989C54.0354 -0.0686682 53.6282 0.00888668 53.2487 0.114145C52.4039 0.349591 51.7031 0.909121 51.3762 1.60715C51.0244 2.36889 51.5396 3.00044 51.9468 3.391C51.1685 3.96438 49.5425 4.41034 48.091 4.80922C47.6728 4.92555 47.2683 5.03358 46.8861 5.14715C46.5426 5.24687 46.3487 5.55433 46.4124 5.89226C46.4789 6.2302 46.7808 6.46565 47.1326 6.46565ZM53.1795 1.47419C53.2764 1.41048 53.4814 1.33847 53.595 1.43819C53.9772 1.77058 53.8637 2.09743 53.5257 2.57109C53.4952 2.61264 53.4343 2.62095 53.3872 2.60156C53.3734 2.59325 53.3567 2.58494 53.3457 2.57109C53.1795 2.36335 52.9385 2.1556 52.944 1.89246C52.944 1.72626 53.0327 1.57114 53.1795 1.47419Z" fill="#7AD2BC"/>
<path d="M18.3228 41.373C18.1428 41.2345 17.8962 41.2096 17.6857 41.2982C15.3756 42.2705 12.7191 43.3702 9.56138 44.6582C8.80517 44.9684 8.85503 45.4171 8.90212 45.852C8.91874 46.0071 8.93813 46.1844 8.93536 46.4032C8.93536 46.5999 9.03508 46.78 9.20405 46.8935C9.31208 46.9656 9.44227 47.0043 9.57523 47.0043C9.66664 47.0043 9.75805 46.9849 9.84115 46.9489C10.9768 46.4614 12.1291 45.985 13.2482 45.5252C14.7634 44.8992 16.3312 44.2538 17.8325 43.5779C18.3173 43.3591 18.489 42.4228 18.5472 41.8827C18.5721 41.6832 18.489 41.4921 18.3228 41.373Z" fill="#7AD2BC"/>
<path d="M78.1073 5.58772C78.1045 5.78162 78.2042 5.96443 78.376 6.07523C78.4868 6.14725 78.617 6.18603 78.7471 6.18603C78.8413 6.18603 78.93 6.16941 79.0158 6.1334C80.1488 5.64312 81.3011 5.16669 82.4174 4.70965C83.9353 4.08364 85.5059 3.43547 87.0017 2.7596C87.4864 2.54077 87.6609 1.60453 87.7191 1.06716C87.7413 0.870492 87.6554 0.679367 87.492 0.557489C87.3119 0.421761 87.0682 0.39406 86.8549 0.482699C84.5336 1.45772 81.8772 2.56016 78.7305 3.84265C77.9771 4.15012 78.0269 4.59885 78.074 5.03373C78.0879 5.18885 78.1073 5.36613 78.1073 5.58772Z" fill="#7AD2BC"/>
</svg>
