<svg width="572" height="360" viewBox="0 0 572 360" fill="none" xmlns="http://www.w3.org/2000/svg">
<path d="M482.47 62.5202C482.957 58.9912 477.977 56.0889 474.225 55.7838C472.436 55.6436 470.589 55.9157 468.898 55.3303C465.213 54.0193 463.745 49.3195 460.208 47.8189C457.536 46.6893 454.436 47.6952 451.872 48.998C449.308 50.3007 446.727 51.9415 443.833 52.1229C441.318 52.2878 438.58 51.3479 436.412 52.5764C434.763 53.4916 433.938 55.388 432.397 56.5012C430.855 57.6143 428.991 57.8204 427.152 57.9193C425.314 58.0183 423.417 58.043 421.744 58.8098C420.07 59.5766 418.693 61.3411 419.039 63.1468L482.47 62.5202Z" fill="#D6D3D3"/>
<path d="M339.924 260.081C340.591 259.182 311.56 213.405 311.56 213.405L290.782 210.107L269.393 238.058L260.323 233.804L196.834 258.614L152.31 201.886L145.516 208.952L127.673 182.427L116.212 207.814L98.5504 251.589L86.6029 242.675L53.4238 276.423H370.794C370.794 276.423 339.247 260.98 339.924 260.081Z" fill="#866B6B"/>
<path d="M455.041 275.623C455.041 275.738 360.261 275.837 243.368 275.837C126.474 275.837 31.6611 275.738 31.6611 275.623C31.6611 275.507 126.433 275.408 243.351 275.408C360.27 275.408 455.041 275.507 455.041 275.623Z" fill="#E0E0E0"/>
<path d="M439.666 287.802C439.666 287.926 419.053 288.025 393.583 288.025C368.113 288.025 347.5 287.926 347.5 287.802C347.5 287.679 368.113 287.588 393.583 287.588C419.053 287.588 439.666 287.687 439.666 287.802Z" fill="#E0E0E0"/>
<path d="M120.01 98.3072C120.727 93.1539 113.414 88.9076 107.972 88.4706C105.366 88.2562 102.662 88.6603 100.188 87.7945C94.8371 85.9311 92.6933 79.0133 87.474 76.8118C83.5657 75.1627 79.072 76.6304 75.2792 78.5351C71.4864 80.4397 67.7265 82.8803 63.5214 83.1112C59.844 83.3421 55.845 81.9816 52.6293 83.779C50.23 85.1148 48.9767 87.9017 46.7669 89.5095C44.5572 91.1173 41.8197 91.4472 39.0988 91.5956C36.3778 91.744 33.6322 91.7687 31.1915 92.8818C28.7509 93.9949 26.7226 96.584 27.2338 99.2307L120.01 98.3072Z" fill="#D6D3D3"/>
<path d="M496.971 183.825C497.59 179.34 491.257 175.646 486.5 175.267C484.232 175.077 481.874 175.431 479.731 174.681C475.072 173.032 473.208 167.038 468.665 165.125C465.268 163.69 461.352 164.968 458.062 166.625C454.772 168.283 451.515 170.369 447.829 170.6C444.63 170.806 441.159 169.618 438.356 171.185C436.27 172.348 435.173 174.755 433.252 176.173C431.331 177.592 428.915 177.823 426.581 177.979C424.248 178.136 421.832 178.128 419.705 179.101C417.577 180.073 415.821 182.324 416.258 184.625L496.971 183.825Z" fill="#866B6B"/>
<path d="M341.183 42.9913C341.62 39.8251 337.151 37.2196 333.762 36.9475C332.155 36.8156 330.464 37.063 328.98 36.5353C325.682 35.3892 324.379 31.1429 321.172 29.7906C318.773 28.7765 316.01 29.6835 313.685 30.846C311.36 32.0086 309.06 33.4928 306.462 33.6577C304.211 33.8061 301.754 32.9651 299.775 34.0699C298.308 34.8945 297.533 36.5435 296.172 37.5907C294.759 38.4631 293.124 38.907 291.464 38.8687C289.811 38.8405 288.167 39.1201 286.616 39.6932C285.115 40.3776 283.87 41.9689 284.183 43.585L341.183 42.9913Z" fill="#866B6B"/>
<path d="M571.514 347.55C570.36 324.784 570.863 332.708 569.708 309.935L529.125 287.326L492.64 301.673L486.225 312.07C482.323 318.352 477.01 323.637 470.707 327.505C462.907 332.312 452.386 339.873 448.577 347.55H571.514Z" fill="#E0E0E0"/>
<path d="M0 291.97L41.6718 305.781L90.7396 347.526H0V291.97Z" fill="#E0E0E0"/>
<path d="M500.748 236.614L509.406 298.28L511.657 298.346C510.222 277.411 508.688 256.031 500.748 236.614Z" fill="#E0E0E0"/>
<path d="M524.789 233.77C518.745 240.366 516.313 249.51 514.779 258.349C512.602 270.882 512.405 285.682 513.056 298.388L516.222 298.462C514.967 276.551 517.874 254.6 524.789 233.77Z" fill="#E0E0E0"/>
<path d="M502.336 273.099C501.635 270.04 500.844 266.931 499.104 264.334C496.746 260.813 492.904 258.562 489.045 256.864C485.186 255.165 481.121 253.747 477.633 251.356C481.525 257.738 490.364 259.436 494.858 265.373C497.1 268.341 498.032 272.068 498.906 275.679C500.819 283.562 501.998 290.381 503.911 298.263H506.467C505.622 289.796 504.242 281.391 502.336 273.099Z" fill="#E0E0E0"/>
<path d="M518.532 298.344C518.532 298.344 520.7 273.855 522.308 269.362C523.916 264.868 539.112 252.442 538.964 253.028C538.815 253.613 527.569 267.201 525.961 269.98C524.353 272.759 521.574 298.344 521.574 298.344H518.532Z" fill="#E0E0E0"/>
<path d="M426.342 294.121C426.168 294.152 425.991 294.166 425.814 294.162L424.322 294.203L418.814 294.269L400.675 294.335L382.535 294.269L377.035 294.203L375.535 294.162C375.36 294.166 375.186 294.152 375.015 294.121C375.186 294.085 375.36 294.071 375.535 294.08H377.035L382.535 294.014L400.675 293.948L418.814 294.014L424.322 294.08H425.814C425.991 294.07 426.169 294.084 426.342 294.121Z" fill="#E0E0E0"/>
<path d="M457.485 306.327C458.016 306.707 458.466 307.191 458.806 307.749C459.146 308.308 459.369 308.929 459.464 309.576C459.646 310.874 459.527 312.197 459.117 313.443C458.213 315.912 456.685 318.104 454.681 319.808C452.925 317.623 453.032 314.374 453.156 312.725C453.395 310.12 455.391 305.56 457.485 306.327Z" fill="#FFAA00"/>
<path d="M456.373 324.301C456.355 323.569 456.531 322.846 456.885 322.206C457.239 321.565 457.756 321.03 458.385 320.656C459.017 320.289 459.716 320.053 460.441 319.961C461.166 319.868 461.903 319.923 462.606 320.12C462.945 320.169 463.269 320.293 463.554 320.483C463.84 320.672 464.079 320.923 464.255 321.217C464.37 321.512 464.404 321.833 464.353 322.147C464.303 322.46 464.169 322.754 463.967 322.998C463.553 323.477 463.021 323.84 462.425 324.053C460.421 324.878 458.302 325.273 456.406 324.301" fill="#FFAA00"/>
<path d="M452.356 331.401C452.394 331.231 452.449 331.065 452.521 330.906C452.645 330.56 452.81 330.082 453.016 329.579C453.52 328.095 454.26 326.703 455.209 325.456C456.188 324.214 457.48 323.255 458.953 322.677C459.399 322.509 459.864 322.395 460.338 322.339C460.503 322.339 460.635 322.339 460.725 322.339H460.857C460.223 322.434 459.601 322.598 459.002 322.826C457.567 323.421 456.31 324.375 455.349 325.596C454.418 326.837 453.671 328.206 453.132 329.661C452.909 330.214 452.719 330.659 452.587 330.964C452.519 331.114 452.442 331.26 452.356 331.401Z" fill="#263238"/>
<path d="M456.267 309.913C456.276 309.989 456.276 310.067 456.267 310.143C456.267 310.308 456.242 310.523 456.192 310.787C456.126 311.347 456.019 312.147 455.871 313.145C455.582 315.14 455.145 317.878 454.593 320.904C454.04 323.93 453.48 326.675 453.043 328.605C452.828 329.594 452.647 330.386 452.515 330.93C452.449 331.185 452.391 331.4 452.358 331.556C452.343 331.634 452.318 331.708 452.284 331.779C452.284 331.779 452.284 331.697 452.284 331.548C452.284 331.4 452.358 331.177 452.408 330.913L452.886 328.58C453.282 326.609 453.826 323.888 454.378 320.871C454.931 317.853 455.384 315.099 455.706 313.128C455.871 312.147 455.995 311.356 456.094 310.778C456.135 310.514 456.176 310.3 456.201 310.135C456.214 310.059 456.236 309.984 456.267 309.913Z" fill="#263238"/>
<path d="M452.504 325.167C452.52 323.625 452.168 322.102 451.479 320.723C450.789 319.343 449.781 318.148 448.538 317.235C447.903 316.774 447.029 316.411 446.37 316.815C445.71 317.219 445.669 318.183 445.817 318.95C446.156 320.552 446.965 322.017 448.14 323.158C449.314 324.299 450.802 325.065 452.414 325.357" fill="#FFAA00"/>
<path d="M448.458 319.632C448.599 319.713 448.734 319.804 448.862 319.904C449.021 320.012 449.172 320.131 449.315 320.259C449.511 320.42 449.698 320.59 449.876 320.77C450.074 320.976 450.296 321.191 450.511 321.446C450.741 321.708 450.956 321.984 451.154 322.271C451.616 322.956 451.998 323.692 452.292 324.464C452.57 325.227 452.763 326.017 452.869 326.822C452.908 327.175 452.927 327.53 452.927 327.886C452.944 328.193 452.944 328.502 452.927 328.809C452.91 329.061 452.877 329.312 452.828 329.56C452.8 329.751 452.761 329.941 452.712 330.129C452.678 330.286 452.632 330.44 452.572 330.59C452.531 330.59 452.721 329.914 452.795 328.801C452.812 328.496 452.812 328.191 452.795 327.886C452.787 327.538 452.759 327.191 452.712 326.847C452.607 326.056 452.413 325.278 452.135 324.53C451.844 323.786 451.474 323.076 451.03 322.411C450.84 322.124 450.634 321.849 450.412 321.586C450.206 321.331 449.991 321.108 449.802 320.902C449.01 320.061 448.433 319.665 448.458 319.632Z" fill="#263238"/>
<path d="M71.6624 346.654L72.0087 346.612C71.2914 335.894 65.9072 324.4 61.9989 314.349C57.9834 304.001 54.2153 293.381 45.0713 287.098C54.9569 306.478 63.8324 326.356 71.6624 346.654Z" fill="#455A64"/>
<path d="M78.0791 292.17C78.0791 292.17 78.0791 292.22 78.0791 292.311L77.9554 292.706L77.4442 294.24C77.337 294.57 77.2134 294.941 77.0732 295.337L76.6774 296.664C76.3971 297.612 76.0425 298.692 75.7457 299.904C75.589 300.506 75.4159 301.141 75.2427 301.801C75.0696 302.461 74.9294 303.153 74.7645 303.87C74.4182 305.297 74.1379 306.839 73.8245 308.463C73.2639 311.761 72.7774 315.315 72.4888 319.116C72.2002 322.917 72.1837 326.537 72.2579 329.835C72.3321 331.484 72.3734 333.05 72.5053 334.51C72.563 335.244 72.596 335.953 72.6702 336.629C72.7444 337.305 72.8104 337.965 72.8681 338.583C72.9835 339.828 73.1649 340.941 73.2886 341.931L73.4782 343.299C73.5524 343.72 73.6184 344.124 73.6761 344.445C73.7833 345.122 73.8658 345.657 73.9317 346.037L73.9894 346.449C73.9932 346.496 73.9932 346.543 73.9894 346.589C73.9894 346.589 73.2968 343.571 72.6949 338.6C72.629 337.981 72.5548 337.33 72.4806 336.645C72.4064 335.961 72.3651 335.26 72.2992 334.526C72.159 333.059 72.1095 331.492 72.0353 329.835C71.9446 326.537 71.9858 322.884 72.2497 319.075C72.5135 315.265 73.0742 311.654 73.6102 308.405C73.9235 306.756 74.2121 305.231 74.5666 303.804C74.7398 303.087 74.8882 302.395 75.0613 301.735C75.2345 301.075 75.4076 300.44 75.5726 299.839C75.8859 298.626 76.2487 297.555 76.5373 296.598L76.9578 295.279L77.3453 294.182C77.5762 293.539 77.7658 293.028 77.8895 292.673C77.9554 292.508 78.0049 292.377 78.0379 292.278L78.0791 292.17Z" fill="#455A64"/>
<path d="M76.4644 286.233L72.787 299.211C72.4171 300.517 73.1756 301.875 74.4812 302.245L75.0286 302.4C76.3342 302.77 77.6925 302.012 78.0625 300.706L81.7399 287.728C82.1098 286.422 81.3513 285.064 80.0457 284.694L79.4983 284.539C78.1927 284.169 76.8344 284.927 76.4644 286.233Z" fill="#866B6B"/>
<path d="M75.0335 302.404C75.0335 302.404 75.1819 302.445 75.4705 302.462C75.8897 302.496 76.3104 302.419 76.6908 302.239C76.9893 302.104 77.2565 301.908 77.4751 301.664C77.6937 301.42 77.8591 301.133 77.9605 300.821C78.1749 300.079 78.4058 299.213 78.6779 298.265C79.2056 296.36 79.8405 294.101 80.5413 291.595C80.8876 290.341 81.2587 289.022 81.6462 287.662C81.7334 287.328 81.7462 286.979 81.6835 286.64C81.6208 286.301 81.4842 285.98 81.2834 285.699C81.08 285.41 80.8118 285.173 80.5001 285.007C80.1699 284.846 79.8209 284.727 79.4612 284.652C78.954 284.516 78.4156 284.554 77.9326 284.76C77.4495 284.966 77.0499 285.329 76.7979 285.79C76.6485 286.106 76.5351 286.438 76.4599 286.779C76.0724 288.14 75.6931 289.459 75.3385 290.712C74.6212 293.186 73.9698 295.462 73.4256 297.366C73.2854 297.836 73.1618 298.29 73.0381 298.719C72.8968 299.105 72.8134 299.511 72.7907 299.922C72.7964 300.25 72.8671 300.573 72.9987 300.873C73.1304 301.173 73.3203 301.444 73.5575 301.67C73.8677 301.952 74.2409 302.156 74.6459 302.264L74.9592 302.363L75.0664 302.404H74.951L74.6294 302.322C74.2113 302.229 73.823 302.034 73.4998 301.753C73.2472 301.522 73.0439 301.242 72.9022 300.93C72.7605 300.618 72.6833 300.281 72.6753 299.939C72.6964 299.515 72.7769 299.096 72.9144 298.694C73.0298 298.265 73.1535 297.812 73.2854 297.342C73.8214 295.437 74.4563 293.219 75.1571 290.671C75.5034 289.418 75.8745 288.099 76.262 286.738C76.3391 286.379 76.4581 286.031 76.6165 285.699C76.8023 285.375 77.0553 285.094 77.3586 284.875C77.6737 284.644 78.037 284.488 78.4212 284.418C78.8054 284.348 79.2004 284.366 79.5766 284.471C79.949 284.559 80.311 284.686 80.6567 284.85C80.985 285.038 81.2668 285.297 81.4813 285.609C81.7014 285.916 81.851 286.268 81.9194 286.64C81.9878 287.012 81.9733 287.395 81.8771 287.761C81.4895 289.121 81.1102 290.44 80.7557 291.694L78.8428 298.348C78.5707 299.296 78.3316 300.145 78.0925 300.904C77.9087 301.434 77.5499 301.887 77.0748 302.187C76.5998 302.486 76.0369 302.615 75.4787 302.553C75.324 302.525 75.174 302.475 75.0335 302.404Z" fill="#263238"/>
<path d="M73.9755 346.608C73.6374 338.322 73.6292 329.203 78.329 322.359C80.9923 318.492 84.9995 315.697 89.287 313.776C93.633 311.982 98.1346 310.591 102.735 309.62C97.6478 316.744 86.1291 316.826 81.2973 324.099C79.8462 326.259 79.17 328.823 78.5187 331.338C77.1582 336.533 75.9709 341.463 74.6104 346.666" fill="#455A64"/>
<path d="M37.6523 317.503H37.7678H38.0976C38.3862 317.544 38.8149 317.577 39.3591 317.684C40.9009 317.944 42.4199 318.325 43.9023 318.822C46.1077 319.558 48.2278 320.528 50.2264 321.716C51.3972 322.425 52.526 323.202 53.607 324.041C54.7737 324.956 55.8757 325.951 56.9051 327.018C57.9274 328.081 58.8647 329.222 59.7085 330.431C60.1373 331 60.5331 331.602 60.8794 332.171C61.2257 332.74 61.5885 333.334 61.8936 333.911C63.0158 335.945 63.9328 338.085 64.631 340.301C65.1109 341.79 65.4721 343.315 65.7111 344.861C65.8101 345.405 65.8348 345.834 65.8678 346.122V346.452C65.8678 346.526 65.8678 346.567 65.8678 346.567V346.46C65.8678 346.37 65.8678 346.262 65.8183 346.13C65.7606 345.842 65.7276 345.413 65.6122 344.877C65.3411 343.342 64.958 341.829 64.4661 340.351C63.7538 338.152 62.8287 336.029 61.7039 334.01C61.3988 333.433 61.036 332.872 60.6897 332.287C60.3434 331.701 59.9477 331.124 59.5272 330.555C58.6811 329.36 57.7468 328.23 56.732 327.175C55.7241 326.117 54.6441 325.131 53.4998 324.223C52.4257 323.385 51.3054 322.609 50.144 321.898C46.8254 319.894 43.1761 318.498 39.3674 317.775C38.8232 317.651 38.4027 317.61 38.1141 317.552L37.7843 317.495L37.6523 317.503Z" fill="#455A64"/>
<path d="M29.4754 312.186L29.2288 312.699C28.6408 313.922 29.1555 315.39 30.3785 315.978L42.5354 321.823C43.7584 322.411 45.2266 321.897 45.8146 320.674L46.0612 320.161C46.6492 318.938 46.1345 317.47 44.9115 316.882L32.7545 311.036C31.5316 310.448 30.0634 310.963 29.4754 312.186Z" fill="#866B6B"/>
<path d="M46.0699 320.16C46.0699 320.16 46.1359 320.02 46.2019 319.74C46.3283 319.221 46.2795 318.676 46.0633 318.188C45.847 317.7 45.4753 317.298 45.0063 317.044C44.3137 316.697 43.4974 316.326 42.6151 315.898L36.3982 312.921L32.7043 311.156C32.3921 311.01 32.0514 310.934 31.7066 310.934C31.3618 310.934 31.0211 311.01 30.7089 311.156C30.3889 311.313 30.1074 311.538 29.8844 311.816C29.6743 312.115 29.4974 312.436 29.3567 312.773C29.2019 313.093 29.1215 313.444 29.1215 313.799C29.1215 314.155 29.2019 314.506 29.3567 314.826C29.5099 315.143 29.7291 315.424 29.9998 315.65C30.286 315.855 30.5961 316.024 30.9233 316.153L34.5925 317.868L40.8259 320.894L42.0874 321.504C42.445 321.711 42.8312 321.864 43.2335 321.958C43.5579 322.008 43.889 321.993 44.2076 321.913C44.5261 321.834 44.8256 321.692 45.0887 321.496C45.4178 321.24 45.6808 320.91 45.8555 320.531L46.0122 320.235C46.0288 320.2 46.0481 320.167 46.0699 320.136C46.0752 320.171 46.0752 320.207 46.0699 320.243L45.938 320.548C45.7739 320.946 45.5132 321.298 45.1794 321.57C44.9095 321.782 44.5992 321.937 44.2674 322.025C43.9357 322.113 43.5895 322.132 43.25 322.081C42.8343 321.993 42.4341 321.843 42.0627 321.636L40.7929 321.034L34.543 318.058C33.3722 317.489 32.1354 316.903 30.8573 316.293C30.5183 316.153 30.1972 315.973 29.9009 315.757C29.6014 315.521 29.3567 315.223 29.1835 314.883C29.0123 314.533 28.9233 314.148 28.9233 313.758C28.9233 313.368 29.0123 312.983 29.1835 312.632C29.3271 312.279 29.5126 311.944 29.736 311.635C30.0915 311.182 30.5899 310.863 31.1498 310.73C31.7098 310.597 32.2984 310.657 32.8197 310.901L36.4971 312.674L42.7306 315.7C43.6128 316.128 44.3796 316.524 45.1217 316.87C45.4184 317.044 45.6758 317.277 45.8773 317.555C46.0789 317.833 46.2203 318.151 46.2925 318.487C46.4099 318.902 46.4099 319.341 46.2925 319.756C46.241 319.902 46.1658 320.039 46.0699 320.16Z" fill="#263238"/>
<path d="M518.089 128.178C518.896 127.967 519.732 127.894 520.563 127.963C521.394 127.896 522.23 127.969 523.037 128.178C522.23 128.387 521.394 128.459 520.563 128.392C519.732 128.461 518.896 128.388 518.089 128.178Z" fill="#263238"/>
<path d="M498.316 128.183C501.608 127.897 504.918 127.897 508.21 128.183C504.918 128.469 501.608 128.469 498.316 128.183Z" fill="#263238"/>
<path d="M478.554 128.183C481.846 127.897 485.157 127.897 488.449 128.183C485.157 128.47 481.846 128.47 478.554 128.183Z" fill="#263238"/>
<path d="M458.781 128.183C462.073 127.897 465.383 127.897 468.675 128.183C465.383 128.469 462.073 128.469 458.781 128.183Z" fill="#263238"/>
<path d="M439.017 128.183C442.308 127.897 445.619 127.897 448.911 128.183C445.619 128.47 442.308 128.47 439.017 128.183Z" fill="#263238"/>
<path d="M419.258 127.74C420.909 127.693 422.56 127.737 424.205 127.872C425.86 127.862 427.512 127.964 429.153 128.177C427.513 128.393 425.854 128.434 424.205 128.3C422.54 128.313 420.879 128.125 419.258 127.74Z" fill="#263238"/>
<path d="M401.776 119.744C401.884 119.653 403.252 121.393 405.454 122.985C407.655 124.576 409.708 125.4 409.651 125.532C409.166 125.462 408.698 125.309 408.265 125.079C407.183 124.608 406.155 124.022 405.198 123.331C403.804 122.406 402.634 121.18 401.776 119.744Z" fill="#263238"/>
<path d="M396.379 101.061C396.486 101.061 396.626 103.263 396.964 105.959C397.302 108.655 397.789 110.815 397.641 110.848C397.035 109.301 396.663 107.673 396.536 106.016C396.252 104.38 396.2 102.712 396.379 101.061Z" fill="#263238"/>
<path d="M389.18 83.061C390.407 84.1828 391.451 85.4905 392.272 86.9363C393.207 88.3144 393.907 89.8386 394.341 91.4465C394.226 91.4959 393.344 89.4676 391.909 87.1589C390.474 84.8503 389.081 83.1435 389.18 83.061Z" fill="#263238"/>
<path d="M372.958 72.2021C374.589 72.5061 376.164 73.0625 377.624 73.8512C379.147 74.5183 380.56 75.4136 381.813 76.5062C381.747 76.6134 379.884 75.426 377.443 74.2387C375.002 73.0514 372.916 72.3176 372.958 72.2021Z" fill="#263238"/>
<path d="M353.396 71.4405C354.964 70.887 356.608 70.5783 358.269 70.5253C359.439 70.4532 360.612 70.4532 361.782 70.5253C362.267 70.5074 362.752 70.5545 363.225 70.6655C362.756 70.7996 362.269 70.8554 361.782 70.8304C360.883 70.8304 359.655 70.8881 358.302 70.9953C355.598 71.1519 353.421 71.5642 353.396 71.4405Z" fill="#263238"/>
<path d="M336.226 80.6812C337.241 79.3609 338.463 78.2138 339.845 77.2841C341.139 76.2361 342.592 75.4011 344.149 74.8105C344.207 74.926 342.278 76.0061 340.101 77.6222C337.924 79.2383 336.316 80.7719 336.226 80.6812Z" fill="#263238"/>
<path d="M327.59 98.0737C327.716 94.7384 328.702 91.4921 330.451 88.6494C330.566 88.7071 329.626 90.6942 328.802 93.2997C327.977 95.9052 327.722 98.0902 327.59 98.0737Z" fill="#263238"/>
<path d="M327.134 117.827C326.946 116.185 326.899 114.53 326.993 112.88C326.944 111.226 327.04 109.57 327.282 107.933C327.469 109.575 327.516 111.23 327.422 112.88C327.472 114.535 327.375 116.19 327.134 117.827Z" fill="#263238"/>
<path d="M326.853 137.597C326.66 135.955 326.61 134.3 326.705 132.65C326.66 130.996 326.756 129.34 326.994 127.703C327.187 129.344 327.237 131 327.142 132.65C327.187 134.304 327.09 135.959 326.853 137.597Z" fill="#263238"/>
<path d="M326.569 157.359C326.38 155.717 326.334 154.062 326.429 152.412C326.379 150.757 326.475 149.102 326.717 147.464C326.905 149.106 326.952 150.761 326.857 152.412C326.908 154.066 326.811 155.721 326.569 157.359Z" fill="#263238"/>
<path d="M321.115 175.991C321.008 175.916 322.253 174.086 323.441 171.645C324.628 169.205 325.279 167.102 325.403 167.135C325.146 168.78 324.61 170.369 323.82 171.835C323.156 173.361 322.242 174.765 321.115 175.991Z" fill="#263238"/>
<path d="M305.613 187.787C305.572 187.672 307.625 186.848 310 185.537C312.375 184.226 314.172 182.939 314.246 183.063C313.06 184.227 311.696 185.195 310.206 185.932C308.781 186.787 307.232 187.413 305.613 187.787Z" fill="#263238"/>
<path d="M286.12 190.07C287.761 189.873 289.415 189.804 291.067 189.864H292.988H294.555C295.041 189.824 295.53 189.854 296.006 189.955C295.539 190.099 295.052 190.172 294.563 190.169L292.988 190.285C292.403 190.285 291.752 190.285 291.067 190.285C289.415 190.37 287.759 190.298 286.12 190.07Z" fill="#263238"/>
<path d="M267.446 184.394C267.52 184.287 269.392 185.458 271.857 186.587C274.322 187.717 276.417 188.418 276.384 188.541C274.742 188.27 273.153 187.741 271.676 186.975C270.141 186.338 268.714 185.467 267.446 184.394Z" fill="#263238"/>
<path d="M255.118 169.341C255.242 169.3 256.066 171.353 257.443 173.687C258.82 176.02 260.189 177.752 260.09 177.809C258.876 176.672 257.856 175.344 257.072 173.876C256.175 172.483 255.514 170.951 255.118 169.341Z" fill="#263238"/>
<path d="M253.25 149.803C253.462 151.443 253.534 153.098 253.464 154.75C253.534 156.403 253.462 158.058 253.25 159.698C253.033 158.058 252.961 156.403 253.035 154.75C252.961 153.098 253.033 151.443 253.25 149.803Z" fill="#263238"/>
<path d="M253.25 130.045C253.462 131.685 253.534 133.34 253.464 134.992C253.534 136.644 253.462 138.299 253.25 139.939C253.033 138.3 252.961 136.644 253.035 134.992C252.961 133.34 253.033 131.684 253.25 130.045Z" fill="#263238"/>
<path d="M253.25 110.272C253.462 111.912 253.533 113.567 253.464 115.219C253.534 116.871 253.462 118.526 253.25 120.166C253.033 118.527 252.961 116.871 253.035 115.219C252.961 113.567 253.033 111.912 253.25 110.272Z" fill="#263238"/>
<path d="M253.25 90.5063C253.462 92.1463 253.534 93.8014 253.464 95.4535C253.533 97.1057 253.462 98.7607 253.25 100.401C253.033 98.7611 252.961 97.1057 253.035 95.4535C252.961 93.8014 253.033 92.1458 253.25 90.5063Z" fill="#263238"/>
<path d="M253.251 70.7329C253.381 71.2054 253.445 71.6939 253.44 72.1841C253.481 73.0746 253.506 74.3114 253.506 75.6801C253.576 77.3322 253.504 78.9873 253.292 80.6272C253.074 78.9877 253.003 77.3322 253.077 75.6801C253.077 74.3114 253.077 73.0746 253.135 72.1841C253.104 71.6973 253.143 71.2086 253.251 70.7329Z" fill="#263238"/>
<path d="M245.747 52.8203C246.997 53.9193 248.061 55.2142 248.896 56.6544C249.842 58.0248 250.553 59.5435 250.999 61.148C250.875 61.1975 249.985 59.1692 248.525 56.8852C247.066 54.6013 245.648 52.9028 245.747 52.8203Z" fill="#263238"/>
<path d="M229.143 42.6069C232.424 43.2002 235.525 44.534 238.213 46.5069C238.147 46.6141 236.234 45.501 233.744 44.4374C231.254 43.3737 229.11 42.7306 229.143 42.6069Z" fill="#263238"/>
<path d="M209.549 41.9649C211.128 41.4424 212.776 41.1643 214.439 41.1404C215.816 41.0662 217.053 41.1404 217.951 41.1404C218.437 41.1214 218.924 41.1742 219.394 41.2971C218.923 41.4189 218.437 41.4689 217.951 41.4455C217.053 41.495 215.816 41.4455 214.464 41.5609C211.726 41.7341 209.549 42.0886 209.549 41.9649Z" fill="#263238"/>
<path d="M192.109 50.7608C194.324 48.2754 197.088 46.3414 200.182 45.1128C200.239 45.2282 198.285 46.2589 196.059 47.8172C193.833 49.3756 192.233 50.8515 192.109 50.7608Z" fill="#263238"/>
<path d="M182.965 67.8894C183.01 66.2243 183.339 64.5791 183.938 63.0247C184.403 61.427 185.14 59.921 186.115 58.5723C186.23 58.63 185.208 60.5924 184.342 63.1649C183.476 65.7374 183.089 67.9059 182.965 67.8894Z" fill="#263238"/>
<path d="M182.629 87.636C182.411 85.9965 182.34 84.341 182.414 82.6889C182.34 81.0367 182.411 79.3812 182.629 77.7417C182.841 79.3816 182.913 81.0367 182.843 82.6889C182.913 84.341 182.841 85.9961 182.629 87.636Z" fill="#263238"/>
<path d="M182.629 107.409C182.411 105.77 182.34 104.114 182.414 102.462C182.34 100.81 182.412 99.1547 182.629 97.5151C182.84 99.1551 182.912 100.81 182.843 102.462C182.913 104.114 182.841 105.77 182.629 107.409Z" fill="#263238"/>
<path d="M182.126 127.148C182.003 127.148 182.374 124.938 182.407 122.201C182.336 120.549 182.411 118.893 182.629 117.254C182.841 118.894 182.91 120.549 182.835 122.201C182.886 123.879 182.646 125.552 182.126 127.148Z" fill="#263238"/>
<path d="M172.443 143.975C172.361 143.876 173.985 142.376 175.742 140.273C177.498 138.171 178.611 136.291 178.726 136.357C177.285 139.371 175.128 141.986 172.443 143.975Z" fill="#263238"/>
<path d="M154.785 152.281C154.785 152.157 156.937 151.761 159.534 150.961C162.132 150.162 164.152 149.312 164.21 149.395C162.803 150.284 161.268 150.951 159.658 151.374C158.091 151.928 156.447 152.234 154.785 152.281Z" fill="#263238"/>
<path d="M135.039 152.962C136.677 152.731 138.332 152.637 139.986 152.681C141.636 152.582 143.292 152.632 144.933 152.83C143.295 153.061 141.64 153.155 139.986 153.11C138.336 153.209 136.68 153.159 135.039 152.962Z" fill="#263238"/>
<path d="M115.273 153.217C116.911 152.981 118.566 152.887 120.22 152.937C121.87 152.843 123.525 152.89 125.167 153.077C123.53 153.319 121.874 153.415 120.22 153.366C118.57 153.455 116.915 153.405 115.273 153.217Z" fill="#263238"/>
<path d="M95.5068 153.502C97.1442 153.26 98.7997 153.163 100.454 153.213C102.104 153.119 103.76 153.169 105.401 153.361C103.763 153.598 102.108 153.692 100.454 153.642C98.804 153.736 97.1489 153.689 95.5068 153.502Z" fill="#263238"/>
<path d="M75.7432 153.788C77.381 153.551 79.0363 153.458 80.6903 153.507C82.3404 153.412 83.9955 153.459 85.6375 153.647C84.0003 153.89 82.3447 153.987 80.6903 153.936C79.0401 154.03 77.3848 153.981 75.7432 153.788Z" fill="#263238"/>
<path d="M60.854 153.975C61.6595 153.759 62.4951 153.675 63.3276 153.728C64.1565 153.649 64.9927 153.711 65.8012 153.909C64.9964 154.13 64.1602 154.214 63.3276 154.157C62.4988 154.245 61.6611 154.183 60.854 153.975Z" fill="#263238"/>
<path d="M225.298 29.0285C225.3 28.1239 225.093 27.231 224.693 26.4194C224.293 25.6078 223.712 24.8994 222.994 24.3494C222.275 23.7993 221.44 23.4224 220.552 23.248C219.665 23.0736 218.749 23.1064 217.876 23.3439C217.003 23.5813 216.196 24.0171 215.519 24.6171C214.842 25.2172 214.313 25.9654 213.972 26.8035C213.632 27.6416 213.489 28.547 213.556 29.4492C213.623 30.3514 213.896 31.226 214.356 32.0051C214.587 32.3844 214.868 32.6565 215.181 33.0605L218.619 37.5954C218.718 37.7253 218.846 37.8306 218.993 37.903C219.139 37.9755 219.301 38.0132 219.464 38.0132C219.628 38.0132 219.789 37.9755 219.936 37.903C220.082 37.8306 220.21 37.7253 220.309 37.5954L223.665 33.1512C223.959 32.7887 224.234 32.4116 224.49 32.0216C225.022 31.1143 225.302 30.0806 225.298 29.0285ZM219.444 31.5928C218.932 31.5928 218.431 31.441 218.005 31.1565C217.58 30.872 217.248 30.4677 217.052 29.9946C216.856 29.5215 216.805 29.0009 216.904 28.4987C217.004 27.9965 217.251 27.5352 217.613 27.1731C217.975 26.811 218.436 26.5644 218.939 26.4645C219.441 26.3646 219.961 26.4159 220.434 26.6119C220.908 26.8078 221.312 27.1397 221.596 27.5654C221.881 27.9912 222.033 28.4917 222.033 29.0038C222.033 29.6905 221.76 30.349 221.274 30.8345C220.789 31.32 220.13 31.5928 219.444 31.5928Z" fill="#FFAA00"/>
<path d="M448.185 116.062C448.186 115.158 447.979 114.266 447.579 113.456C447.179 112.645 446.598 111.938 445.881 111.388C445.163 110.839 444.329 110.462 443.442 110.288C442.555 110.113 441.64 110.145 440.768 110.382C439.896 110.618 439.09 111.052 438.413 111.651C437.736 112.249 437.205 112.996 436.864 113.833C436.522 114.669 436.378 115.573 436.442 116.475C436.507 117.376 436.778 118.251 437.235 119.03C437.458 119.409 437.738 119.682 438.06 120.077L441.473 124.596C441.572 124.719 441.698 124.819 441.84 124.888C441.983 124.957 442.14 124.992 442.298 124.992C442.456 124.992 442.613 124.957 442.755 124.888C442.898 124.819 443.024 124.719 443.122 124.596L446.478 120.152C446.772 119.789 447.047 119.412 447.303 119.022C447.856 118.132 448.16 117.11 448.185 116.062ZM442.306 118.618C441.794 118.62 441.292 118.469 440.866 118.186C440.439 117.902 440.106 117.498 439.908 117.025C439.711 116.552 439.659 116.032 439.758 115.529C439.857 115.026 440.103 114.564 440.464 114.201C440.826 113.838 441.287 113.591 441.79 113.49C442.292 113.39 442.813 113.44 443.287 113.636C443.76 113.832 444.165 114.164 444.45 114.59C444.735 115.016 444.887 115.516 444.887 116.029C444.888 116.368 444.822 116.705 444.693 117.019C444.564 117.333 444.374 117.619 444.134 117.859C443.894 118.1 443.609 118.29 443.296 118.421C442.982 118.551 442.646 118.618 442.306 118.618Z" fill="#FFAA00"/>
<path d="M365.574 57.8536C365.577 56.9487 365.371 56.0552 364.972 55.2428C364.573 54.4304 363.992 53.7211 363.274 53.17C362.557 52.619 361.721 52.2411 360.833 52.0659C359.945 51.8906 359.029 51.9227 358.156 52.1597C357.282 52.3966 356.475 52.832 355.798 53.432C355.12 54.0319 354.59 54.7801 354.249 55.6184C353.908 56.4567 353.765 57.3625 353.832 58.265C353.898 59.1676 354.172 60.0426 354.632 60.8219C354.855 61.2012 355.135 61.4733 355.457 61.8773L358.87 66.3957C358.97 66.5257 359.097 66.6309 359.244 66.7034C359.391 66.7759 359.552 66.8136 359.715 66.8136C359.879 66.8136 360.04 66.7759 360.187 66.7034C360.333 66.6309 360.461 66.5257 360.561 66.3957L363.916 61.9515C364.21 61.589 364.485 61.212 364.741 60.8219C365.278 59.9245 365.566 58.8997 365.574 57.8536ZM359.703 60.4097C359.191 60.4113 358.689 60.2609 358.262 59.9774C357.836 59.6939 357.502 59.2901 357.305 58.8172C357.108 58.3442 357.056 57.8234 357.155 57.3206C357.253 56.8179 357.499 56.3558 357.861 55.9929C358.223 55.63 358.684 55.3826 359.187 55.282C359.689 55.1814 360.21 55.2322 360.684 55.4279C361.157 55.6237 361.562 55.9555 361.847 56.3814C362.132 56.8074 362.284 57.3083 362.284 57.8207C362.284 58.5059 362.012 59.1632 361.528 59.6485C361.045 60.1338 360.388 60.4075 359.703 60.4097Z" fill="#455A64"/>
<path d="M123.287 136.103C123.295 134.982 123.043 133.876 122.551 132.869C122.059 131.862 121.342 130.983 120.454 130.3C119.566 129.616 118.532 129.148 117.433 128.93C116.334 128.713 115.2 128.752 114.119 129.046C113.038 129.34 112.039 129.88 111.201 130.623C110.364 131.367 109.709 132.294 109.289 133.333C108.869 134.371 108.695 135.493 108.78 136.61C108.866 137.727 109.208 138.809 109.782 139.772C110.086 140.22 110.414 140.652 110.763 141.066L114.976 146.657C115.097 146.82 115.255 146.953 115.437 147.045C115.619 147.137 115.82 147.184 116.023 147.184C116.227 147.184 116.428 147.137 116.61 147.045C116.791 146.953 116.949 146.82 117.07 146.657L121.193 141.165C121.571 140.719 121.924 140.251 122.248 139.764C122.915 138.658 123.274 137.394 123.287 136.103ZM116.015 139.269C115.382 139.269 114.764 139.081 114.238 138.73C113.712 138.378 113.301 137.879 113.059 137.294C112.817 136.709 112.754 136.066 112.877 135.446C113.001 134.825 113.305 134.255 113.753 133.808C114.2 133.36 114.77 133.055 115.391 132.932C116.011 132.809 116.655 132.872 117.239 133.114C117.824 133.356 118.323 133.766 118.675 134.292C119.027 134.818 119.214 135.437 119.214 136.07C119.214 136.918 118.877 137.732 118.277 138.332C117.677 138.932 116.863 139.269 116.015 139.269Z" fill="#455A64"/>
<path d="M254.892 113.475C250.379 113.232 245.88 114.17 241.84 116.196C237.528 118.208 233.455 121.184 231.311 125.431C229.167 129.677 229.406 135.325 232.787 138.689C226.289 140.412 221.4 146.192 219.355 152.591C217.31 158.989 217.747 165.948 219.042 172.544C219.66 175.661 220.757 179.14 223.634 180.476C225.481 181.301 227.757 181.136 229.489 182.199C231.22 183.263 232.012 185.209 233.108 186.866C234.156 188.452 235.515 189.808 237.103 190.852C238.691 191.896 240.475 192.606 242.346 192.939C244.217 193.272 246.136 193.221 247.987 192.79C249.837 192.358 251.581 191.555 253.111 190.428L266.436 119.618C263.822 115.957 259.37 113.854 254.892 113.475Z" fill="#455A64"/>
<path d="M263.846 121.099C263.57 121.491 263.264 121.86 262.931 122.204C262.312 122.897 261.414 123.853 260.276 125.09C257.356 128.281 254.08 131.128 250.513 133.574C246.912 136.027 242.792 137.613 238.475 138.208C237.17 138.371 235.853 138.398 234.542 138.291C234.08 138.291 233.718 138.192 233.479 138.159C233.354 138.15 233.232 138.122 233.116 138.076C233.116 138.076 233.635 138.076 234.55 138.126C235.849 138.169 237.148 138.097 238.434 137.911C242.677 137.235 246.719 135.633 250.274 133.22C253.809 130.793 257.088 128.014 260.061 124.925L262.807 122.13C263.125 121.759 263.472 121.414 263.846 121.099Z" fill="#263238"/>
<path d="M237.876 142.319C237.827 142.319 237.612 141.989 237.431 141.363C237.219 140.527 237.177 139.658 237.307 138.806C237.443 137.956 237.752 137.142 238.214 136.415C238.577 135.863 238.89 135.591 238.932 135.591C238.384 136.61 237.982 137.701 237.736 138.831C237.616 139.995 237.663 141.169 237.876 142.319Z" fill="#263238"/>
<path d="M242.356 144.95C242.432 145.071 242.493 145.201 242.537 145.337C242.645 145.593 242.809 145.972 242.983 146.483C243.494 147.901 243.915 149.35 244.244 150.82C245.398 155.7 245.398 160.782 244.244 165.662C243.023 170.545 240.346 174.942 236.568 178.269C235.425 179.262 234.172 180.12 232.833 180.825C232.371 181.089 232.008 181.229 231.728 181.353C231.598 181.414 231.463 181.464 231.324 181.501C231.787 181.2 232.265 180.925 232.758 180.676C234.048 179.924 235.258 179.043 236.37 178.046C240.024 174.701 242.618 170.358 243.832 165.555C244.972 160.742 245.02 155.736 243.972 150.903C243.593 149.039 243.147 147.605 242.859 146.549C242.657 146.027 242.489 145.493 242.356 144.95Z" fill="#263238"/>
<path d="M244.65 156.108C244.308 156.071 243.97 155.996 243.644 155.886C243.001 155.713 242.069 155.482 240.915 155.21C234.908 153.799 228.731 153.244 222.569 153.561C221.39 153.618 220.433 153.684 219.774 153.742C219.431 153.782 219.086 153.782 218.743 153.742C219.072 153.635 219.413 153.566 219.757 153.536C220.409 153.429 221.365 153.321 222.552 153.223C228.747 152.729 234.98 153.286 240.989 154.872C242.143 155.177 243.059 155.457 243.685 155.696C244.023 155.792 244.347 155.93 244.65 156.108Z" fill="#263238"/>
<g opacity="0.3">
<path d="M233.695 138.121C238.18 141.007 244.232 140.677 248.982 138.245C253.731 135.812 257.227 131.302 259.066 126.297C252.857 133.471 243.639 138.674 233.695 138.121Z" fill="black"/>
</g>
<g opacity="0.3">
<path d="M231.292 181.486C233.156 181.355 234.968 180.814 236.598 179.902C238.229 178.99 239.638 177.729 240.725 176.209C242.675 173.119 243.856 169.608 244.171 165.968C242.975 169.081 241.461 172.063 239.653 174.865C238.608 176.187 237.416 177.385 236.099 178.435C234.623 179.643 233.007 180.668 231.284 181.486" fill="black"/>
</g>
<path d="M235.931 153.975C236.233 154.656 236.43 155.378 236.516 156.118C236.656 156.794 236.813 157.578 237.052 158.452C237.197 158.947 237.197 159.474 237.052 159.969C236.971 160.259 236.798 160.516 236.559 160.699C236.319 160.882 236.026 160.982 235.725 160.983C235.43 160.942 235.153 160.817 234.928 160.623C234.702 160.428 234.538 160.172 234.455 159.886C234.314 159.393 234.314 158.871 234.455 158.378C234.694 157.479 234.95 156.729 235.156 156.061C235.34 155.343 235.591 154.645 235.906 153.975C235.824 154.714 235.669 155.443 235.444 156.151C235.263 156.852 235.057 157.627 234.842 158.46C234.728 158.884 234.728 159.331 234.842 159.755C234.9 159.962 235.015 160.149 235.174 160.295C235.333 160.441 235.529 160.539 235.741 160.579C235.951 160.573 236.153 160.499 236.316 160.368C236.48 160.237 236.596 160.057 236.648 159.853C236.76 159.432 236.76 158.989 236.648 158.567C236.452 157.788 236.3 156.998 236.195 156.201C236.063 154.816 235.931 153.991 235.931 153.975Z" fill="#263238"/>
<path d="M255.444 127.478C254.534 127.022 253.652 126.51 252.806 125.944C250.726 124.65 248.57 123.482 246.349 122.448C244.134 121.42 241.799 120.672 239.399 120.222C237.552 119.884 236.381 119.876 236.381 119.802C236.652 119.748 236.93 119.732 237.205 119.752C237.953 119.756 238.7 119.811 239.44 119.917C241.893 120.287 244.281 121.006 246.531 122.053C248.772 123.089 250.925 124.305 252.97 125.689C253.754 126.208 254.38 126.645 254.809 126.959C255.042 127.105 255.255 127.279 255.444 127.478Z" fill="#263238"/>
<path d="M254.207 126.924C254.256 126.924 254.297 127.205 254.066 127.559C253.91 127.793 253.688 127.975 253.428 128.084C253.169 128.192 252.883 128.222 252.607 128.169L252.335 128.12L252.459 127.864C252.697 127.386 253.115 127.022 253.621 126.85C254.001 126.727 254.248 126.776 254.256 126.85C254.264 126.924 254.042 126.982 253.745 127.155C253.36 127.367 253.047 127.689 252.846 128.079L252.706 127.774C252.912 127.808 253.124 127.791 253.322 127.725C253.52 127.659 253.699 127.545 253.844 127.394C254.066 127.139 254.141 126.916 254.207 126.924Z" fill="#263238"/>
<path d="M323.859 125.341C323.859 125.341 320.561 121.004 320.561 119.247L321.929 109.04C321.929 109.04 322.523 108.009 323.446 109.716C324.271 111.282 323.809 113.707 323.809 113.707L324.386 116.106L325.631 114.292L327.033 107.473C327.033 107.473 327.924 102.526 328.682 103.062C329.441 103.598 329.672 105.008 329.284 107.135C328.897 109.262 328.402 111.959 328.402 111.959C328.402 111.959 328.303 112.783 329.094 111.39C329.886 109.996 330.743 104.027 331.065 103.227C331.387 102.427 331.486 100.3 332.714 100.415C333.943 100.531 333.225 103.243 333.225 103.243L332.054 112.033C332.054 112.033 333.192 108.496 333.407 107.91C333.621 107.325 333.959 105.379 334.371 104.323C334.784 103.268 335.394 102.724 335.93 102.79C336.186 102.805 336.428 102.917 336.604 103.104C336.78 103.291 336.878 103.539 336.878 103.796L335.081 111.315C335.081 111.315 334.083 114.737 334.149 114.96C334.215 115.182 335.476 113.533 335.476 113.533L336.449 111.06C336.449 111.06 337.274 107.605 338.181 107.506C339.088 107.407 339.137 108.108 339.137 108.108L337.612 114.424L334.817 121.63L332.17 127.047C332.17 127.047 328.476 126.47 328.336 126.66C328.196 126.849 323.859 125.341 323.859 125.341Z" fill="#FFBE9D"/>
<path d="M330.405 122.299C330.11 121.792 329.856 121.263 329.646 120.716C329.133 119.433 328.156 118.391 326.909 117.797C326.298 117.53 325.615 117.478 324.971 117.648L324.757 117.706L324.707 117.475C324.468 116.428 324.138 115.463 323.99 114.804C323.854 114.455 323.795 114.081 323.817 113.707C323.988 114.03 324.127 114.37 324.229 114.721C324.572 115.604 324.869 116.504 325.12 117.417L324.847 117.244C325.582 117.028 326.369 117.075 327.074 117.376C327.835 117.694 328.498 118.209 328.995 118.869C329.38 119.398 329.696 119.974 329.935 120.584C330.189 121.124 330.348 121.704 330.405 122.299Z" fill="#EB996E"/>
<path d="M295.297 120.404L313.561 147.704L321.806 123.909L333.036 126.671C333.036 126.671 328.452 158.662 326.704 161.837C324.956 165.011 319.473 169.596 312.687 168.672C305.901 167.749 292.387 149.551 292.387 149.551L295.297 120.404Z" fill="#FFAA00"/>
<path d="M315.812 158.663C316.223 154.672 315.357 150.654 313.339 147.186C313.769 147.598 314.121 148.084 314.378 148.621C315.095 149.871 315.612 151.226 315.911 152.636C316.223 154.043 316.317 155.489 316.192 156.924C316.169 157.521 316.04 158.11 315.812 158.663Z" fill="#263238"/>
<g opacity="0.3">
<path d="M296.67 155.353C297.267 155.037 297.78 154.583 298.167 154.03C298.554 153.477 298.804 152.839 298.897 152.17C299.074 150.834 299.032 149.478 298.773 148.155C298.039 142.771 297.008 137.164 296.299 131.78L296.588 154.792" fill="black"/>
</g>
<g opacity="0.3">
<path d="M316.002 157.331C316.364 157.264 316.704 157.109 316.992 156.878C317.28 156.648 317.506 156.351 317.651 156.012C317.937 155.324 318.036 154.573 317.939 153.835C317.809 152.444 317.328 151.109 316.54 149.955C315.753 148.802 314.685 147.867 313.438 147.239C315.236 150.283 316.118 153.782 315.977 157.314" fill="black"/>
</g>
<path d="M316.289 298.269L326.728 322.031L356.576 309.466C355.199 306.695 336.152 308.105 336.152 308.105L329.556 291.969L316.289 298.269Z" fill="#FFAA00"/>
<g opacity="0.6">
<path d="M327.566 310.077C327.316 310.286 327.152 310.58 327.105 310.902C327.058 311.224 327.131 311.553 327.31 311.825C327.511 312.081 327.802 312.251 328.123 312.3C328.445 312.349 328.774 312.273 329.041 312.089C329.305 311.867 329.477 311.555 329.524 311.214C329.571 310.873 329.49 310.527 329.297 310.242C329.062 309.996 328.742 309.85 328.403 309.835C328.063 309.819 327.731 309.936 327.475 310.159" fill="#CFC4C4"/>
</g>
<g opacity="0.6">
<path d="M326.725 322.029L325.785 319.555L354.75 308.424C354.75 308.424 356.325 308.424 356.573 309.438L326.725 322.029Z" fill="#CFC4C4"/>
</g>
<path d="M336.714 308.18C336.772 308.329 336.071 308.708 335.552 309.475C335.032 310.242 334.909 311.017 334.727 311.017C334.546 311.017 334.43 310.085 335.082 309.161C335.733 308.238 336.69 308.04 336.714 308.18Z" fill="#263238"/>
<path d="M341.191 307.889C341.29 308.012 340.762 308.523 340.523 309.348C340.284 310.172 340.424 310.89 340.275 310.939C340.127 310.989 339.682 310.214 339.995 309.191C340.308 308.169 341.133 307.748 341.191 307.889Z" fill="#263238"/>
<path d="M344.422 310.764C344.307 310.847 343.796 310.204 343.837 309.255C343.878 308.307 344.422 307.697 344.529 307.788C344.637 307.878 344.406 308.489 344.381 309.272C344.356 310.055 344.562 310.69 344.422 310.764Z" fill="#263238"/>
<path d="M334.798 304.287C334.798 304.443 334.039 304.526 333.24 304.93C332.44 305.334 331.904 305.862 331.772 305.754C331.64 305.647 332.044 304.88 332.992 304.419C333.94 303.957 334.814 304.147 334.798 304.287Z" fill="#263238"/>
<path d="M211.69 321.579L210.412 308.889L220.999 295.557L208.021 287.212L207.675 287.724L201.079 297.684L192.512 304.445L206.116 326.798L219.367 325.907C219.367 325.907 218.179 322.815 211.69 321.579Z" fill="#FFAA00"/>
<g opacity="0.6">
<path d="M192.489 304.445L206.094 326.798L219.344 325.907L217.719 324.019L206.902 324.151L194.311 303.01L192.489 304.445Z" fill="#CFC4C4"/>
</g>
<path d="M211.192 315.758C211.11 315.898 210.31 315.519 209.288 315.618C208.265 315.717 207.54 316.187 207.433 316.063C207.325 315.939 207.993 315.131 209.247 315.032C210.5 314.933 211.324 315.651 211.192 315.758Z" fill="#263238"/>
<path d="M210.793 312.615C210.661 312.722 210.018 311.98 208.955 311.848C207.891 311.717 207.066 312.252 206.976 312.121C206.885 311.989 207.066 311.832 207.421 311.601C207.903 311.308 208.47 311.189 209.029 311.263C209.588 311.336 210.106 311.598 210.497 312.005C210.777 312.318 210.851 312.574 210.793 312.615Z" fill="#263238"/>
<path d="M210.598 308.56C210.458 308.651 209.955 307.909 209.015 307.653C208.075 307.398 207.259 307.752 207.185 307.612C207.111 307.472 207.3 307.348 207.655 307.192C208.134 306.988 208.668 306.953 209.17 307.092C209.672 307.231 210.111 307.537 210.417 307.958C210.64 308.28 210.664 308.527 210.598 308.56Z" fill="#263238"/>
<path d="M213.939 305.187C213.782 305.253 213.362 304.519 212.504 304.049C211.647 303.579 210.855 303.546 210.797 303.381C210.74 303.216 211.754 302.936 212.793 303.538C213.832 304.14 214.095 305.154 213.939 305.187Z" fill="#263238"/>
<path d="M215.481 302.351C215.415 302.401 214.945 301.898 214.236 301.04C213.832 300.546 213.411 300.043 213.007 299.523C212.727 299.22 212.496 298.875 212.323 298.501C212.265 298.371 212.236 298.23 212.236 298.088C212.236 297.947 212.265 297.806 212.323 297.676C212.39 297.53 212.499 297.408 212.635 297.323C212.771 297.238 212.929 297.194 213.089 297.198C213.563 297.257 214.01 297.452 214.376 297.759C215.259 298.427 215.862 299.4 216.066 300.488C216.243 301.099 216.178 301.754 215.885 302.318C215.842 301.735 215.768 301.154 215.662 300.579C215.503 299.978 215.222 299.417 214.837 298.929C214.612 298.652 214.351 298.406 214.062 298.196C213.787 297.975 213.461 297.825 213.114 297.759C213.064 297.755 213.013 297.766 212.969 297.791C212.925 297.816 212.89 297.854 212.867 297.899C212.825 298.019 212.825 298.15 212.867 298.27C213.021 298.59 213.215 298.889 213.444 299.16C213.823 299.705 214.203 300.232 214.574 300.752C214.964 301.23 215.27 301.771 215.481 302.351Z" fill="#263238"/>
<path d="M215.985 302.711C215.919 302.711 215.927 302.01 216.586 301.169C217.037 300.604 217.662 300.202 218.364 300.026C219.065 299.85 219.806 299.91 220.47 300.196C220.542 300.248 220.601 300.316 220.643 300.395C220.684 300.474 220.707 300.561 220.709 300.65C220.707 300.805 220.661 300.956 220.577 301.087C220.45 301.255 220.3 301.405 220.132 301.532C219.374 302.143 218.476 302.557 217.518 302.736C216.981 302.904 216.406 302.904 215.869 302.736C215.869 302.637 216.496 302.645 217.427 302.373C218.283 302.127 219.077 301.706 219.761 301.136C219.885 301.044 219.995 300.936 220.091 300.815C220.14 300.691 220.091 300.724 220.091 300.691C219.967 300.629 219.833 300.59 219.695 300.576C219.531 300.549 219.366 300.536 219.2 300.534C218.882 300.527 218.564 300.571 218.26 300.666C217.738 300.819 217.264 301.103 216.883 301.491C216.232 302.117 216.075 302.744 215.985 302.711Z" fill="#263238"/>
<g opacity="0.6">
<path d="M203.039 303.337C203.06 303.649 202.987 303.96 202.831 304.231C202.674 304.502 202.441 304.72 202.16 304.857C201.879 304.994 201.564 305.045 201.254 305.003C200.944 304.96 200.654 304.827 200.42 304.619C200.187 304.411 200.02 304.138 199.942 303.836C199.864 303.533 199.878 303.214 199.982 302.919C200.086 302.624 200.276 302.367 200.526 302.18C200.777 301.993 201.077 301.885 201.39 301.87C201.802 301.849 202.206 301.992 202.514 302.266C202.823 302.541 203.011 302.925 203.039 303.337Z" fill="#CFC4C4"/>
</g>
<path d="M273.082 77.7418C273.65 75.0179 274.628 72.3961 275.984 69.9665C277.367 67.5216 279.605 65.6743 282.267 64.7802C285.034 64.0561 287.949 64.1276 290.678 64.9864C292.608 65.6451 294.368 66.7237 295.831 68.1443C298.304 70.2798 299.566 73.6109 300.605 76.7029" fill="#FFAA00"/>
<path d="M302.357 76.9132C301.876 73.9156 300.265 71.216 297.855 69.3688C295.405 67.6532 292.516 66.6747 289.528 66.5489C284.902 66.1944 279.493 67.4559 276.335 70.8364C273.177 74.217 271.314 78.8179 271.709 82.9405C271.883 84.7957 273.68 89.817 275.106 91.0291L301.607 90.3447C303.19 87.8217 302.835 79.8733 302.357 76.9132Z" fill="#FFAA00"/>
<path d="M301.89 82.4677C301.604 78.798 299.946 75.3709 297.245 72.8694C294.545 70.3679 291.002 68.9757 287.321 68.9702H286.562C278.383 69.4319 274.194 76.6301 274.895 84.7929L276.33 122.507H295.071L294.906 110.23C294.906 110.23 302.772 109.026 302.88 101.16C302.929 97.3669 302.401 89.5422 301.89 82.4677Z" fill="#FFBE9D"/>
<path d="M294.967 110.218C291.318 110.211 287.747 109.158 284.677 107.184C284.677 107.184 287.085 112.84 294.926 112.131L294.967 110.218Z" fill="#EB996E"/>
<path d="M298.791 88.6522C298.791 88.9448 298.677 89.226 298.474 89.4367C298.271 89.6474 297.995 89.7711 297.702 89.7818C297.559 89.793 297.416 89.7755 297.28 89.7303C297.144 89.685 297.019 89.613 296.911 89.5185C296.803 89.4239 296.716 89.3088 296.653 89.1798C296.591 89.0509 296.555 88.9107 296.548 88.7676C296.548 88.4751 296.661 88.1938 296.864 87.9831C297.067 87.7724 297.344 87.6487 297.636 87.638C297.779 87.6268 297.923 87.6444 298.059 87.6896C298.194 87.7348 298.32 87.8069 298.428 87.9014C298.535 87.9959 298.623 88.1111 298.685 88.2401C298.747 88.369 298.783 88.5092 298.791 88.6522Z" fill="#263238"/>
<path d="M300.153 86.3089C300.013 86.4573 299.164 85.8225 297.96 85.8225C296.756 85.8225 295.866 86.4244 295.734 86.2759C295.602 86.1275 295.808 85.9544 296.195 85.674C296.719 85.312 297.34 85.1192 297.976 85.1216C298.604 85.1226 299.216 85.3217 299.724 85.6905C300.095 85.9791 300.244 86.243 300.153 86.3089Z" fill="#263238"/>
<path d="M287.176 89.2179C287.178 89.5098 287.067 89.791 286.865 90.0019C286.663 90.2128 286.388 90.3368 286.096 90.3475C285.953 90.3576 285.81 90.3393 285.675 90.2936C285.539 90.248 285.414 90.1759 285.307 90.0815C285.2 89.9872 285.112 89.8725 285.049 89.7441C284.987 89.6156 284.95 89.476 284.942 89.3334C284.937 89.0401 285.048 88.7568 285.249 88.5441C285.451 88.3314 285.729 88.2063 286.022 88.1955C286.165 88.1855 286.309 88.2041 286.445 88.2502C286.581 88.2964 286.706 88.3692 286.813 88.4644C286.921 88.5596 287.008 88.6753 287.071 88.8047C287.133 88.9341 287.169 89.0745 287.176 89.2179Z" fill="#263238"/>
<path d="M288.263 86.9124C288.131 87.0608 287.273 86.4259 286.069 86.4341C284.866 86.4424 283.975 87.0361 283.843 86.8876C283.711 86.7392 283.926 86.5578 284.313 86.2775C284.835 85.9134 285.458 85.723 286.094 85.7333C286.722 85.7297 287.334 85.9261 287.842 86.294C288.205 86.5826 288.337 86.8464 288.263 86.9124Z" fill="#263238"/>
<path d="M292.649 95.4783C293.286 95.28 293.945 95.1609 294.611 95.1238C294.916 95.1238 295.205 95.0331 295.263 94.8269C295.289 94.508 295.217 94.1886 295.056 93.9117L294.149 91.5618C292.888 88.2142 291.981 85.4603 292.113 85.4108C292.245 85.3614 293.383 88.0328 294.636 91.3804C294.941 92.2049 295.23 93.0294 295.51 93.7468C295.702 94.1201 295.758 94.5489 295.667 94.9588C295.622 95.0676 295.552 95.1645 295.463 95.2418C295.375 95.319 295.269 95.3746 295.155 95.4041C294.987 95.4536 294.812 95.4786 294.636 95.4783C293.976 95.5623 293.308 95.5623 292.649 95.4783Z" fill="#263238"/>
<path d="M289.085 96.299C289.283 96.299 289.283 97.6017 290.404 98.5335C291.526 99.4652 292.919 99.358 292.928 99.5064C292.936 99.6548 292.622 99.762 292.029 99.7785C291.26 99.7846 290.514 99.5222 289.918 99.0364C289.348 98.5696 288.984 97.8974 288.904 97.1647C288.854 96.6205 288.995 96.2907 289.085 96.299Z" fill="#263238"/>
<path d="M288.891 84.1705C288.775 84.5004 287.563 84.3602 286.153 84.5498C284.743 84.7395 283.597 85.127 283.399 84.8384C283.317 84.6982 283.515 84.3849 283.968 84.0634C284.581 83.6678 285.276 83.417 286 83.3298C286.725 83.2427 287.459 83.3215 288.148 83.5604C288.701 83.7583 288.94 84.0139 288.891 84.1705Z" fill="#263238"/>
<path d="M300.451 82.8163C300.22 83.1131 299.173 82.9317 297.977 83.0389C296.782 83.1461 295.751 83.4512 295.504 83.1956C295.388 83.0636 295.504 82.775 295.949 82.47C296.541 82.0839 297.223 81.8594 297.928 81.8186C298.628 81.749 299.334 81.8686 299.973 82.1649C300.377 82.404 300.55 82.6679 300.451 82.8163Z" fill="#263238"/>
<path d="M276.026 90.6115C275.894 90.5537 270.634 89.0036 270.791 94.3795C270.947 99.7555 276.315 98.5022 276.323 98.329C276.331 98.1559 276.026 90.6115 276.026 90.6115Z" fill="#FFBE9D"/>
<path d="M275.092 96.3401C275.092 96.3401 274.993 96.406 274.837 96.4885C274.615 96.5792 274.366 96.5792 274.144 96.4885C273.79 96.2793 273.498 95.9796 273.298 95.6203C273.098 95.2609 272.997 94.8548 273.006 94.4437C272.98 93.982 273.056 93.5202 273.229 93.0914C273.274 92.9226 273.361 92.7674 273.48 92.6395C273.599 92.5116 273.748 92.4148 273.913 92.3576C274.02 92.326 274.134 92.3326 274.237 92.3763C274.339 92.4199 274.423 92.4979 274.474 92.5967C274.548 92.7451 274.515 92.8523 274.548 92.8606C274.581 92.8688 274.655 92.7699 274.606 92.5472C274.573 92.4164 274.498 92.3003 274.391 92.2174C274.239 92.108 274.049 92.0635 273.864 92.0938C273.645 92.1446 273.442 92.251 273.276 92.4026C273.11 92.5542 272.986 92.746 272.915 92.9595C272.697 93.4282 272.601 93.9443 272.635 94.4602C272.621 94.9401 272.75 95.4135 273.006 95.8201C273.261 96.2267 273.631 96.5483 274.07 96.7441C274.211 96.7794 274.358 96.783 274.501 96.7544C274.643 96.7259 274.778 96.6661 274.894 96.5792C275.084 96.472 275.109 96.3483 275.092 96.3401Z" fill="#EB996E"/>
<path d="M279.556 74.632L282.211 72.3399L290.654 73.6344L296.591 72.109L298.149 73.8158C297.481 74.7145 298.899 70.8804 297.547 69.858C294.637 67.6483 292.179 67.7307 288.477 67.6648C284.775 67.5988 277.387 72.0513 274.741 74.5743C272.622 76.5944 272.638 78.3342 272.638 78.3342C272.3 81.2447 273.924 84.5428 274.567 87.404C274.906 88.8716 275.549 93.3241 275.549 93.3241C276.785 93.3241 277.198 92.3429 277.058 91.1226L276.827 86.3321C278.065 85.3562 278.951 84.0027 279.35 82.4772C279.749 80.9518 279.639 79.3378 279.036 77.8807C278.756 77.4519 278.072 75.4566 279.556 74.632Z" fill="#263238"/>
<path d="M278.46 75.9217C278.747 75.1678 279.263 74.5232 279.936 74.0793C280.61 73.6353 281.406 73.4145 282.212 73.4481C283.827 73.5534 285.347 74.2489 286.483 75.4022C286.772 75.7131 287.095 75.9898 287.447 76.2267C287.624 76.3359 287.825 76.3991 288.033 76.4106C288.24 76.4222 288.447 76.3816 288.635 76.2927C288.75 76.235 288.866 76.1443 288.989 76.1773C289.075 76.2122 289.145 76.2766 289.187 76.3587C289.493 76.8531 289.922 77.2595 290.432 77.5377C290.689 77.6698 290.981 77.7177 291.266 77.6748C291.552 77.6319 291.817 77.5003 292.024 77.2986C292.319 77.5695 292.687 77.7484 293.082 77.8136C293.477 77.8787 293.883 77.8272 294.25 77.6653C294.616 77.5035 294.928 77.2383 295.146 76.9023C295.364 76.5663 295.48 76.1739 295.478 75.7733C295.841 75.8483 296.217 75.8183 296.563 75.6869C296.91 75.5554 297.211 75.328 297.432 75.0312C297.823 74.5885 298.111 74.0646 298.275 73.4972C298.439 72.9299 298.475 72.3333 298.38 71.7504C298.285 71.1675 298.062 70.6129 297.727 70.1265C297.393 69.6402 296.954 69.2342 296.443 68.9379C295.632 68.5262 294.751 68.2716 293.846 68.1876C292.436 67.99 291.015 67.8826 289.591 67.866C288.965 67.8316 288.337 67.9069 287.736 68.0887C286.911 68.3855 286.235 69.0534 285.378 69.1606C284.816 69.186 284.255 69.0962 283.729 68.8967C282.969 68.6345 282.166 68.5171 281.362 68.5504C279.788 68.6906 278.485 69.8202 277.446 71.024C276.661 71.8183 276.094 72.8006 275.797 73.8768C275.659 74.4172 275.685 74.9864 275.871 75.5121C276.058 76.0377 276.396 76.496 276.844 76.8287C277.025 76.953 277.233 77.0327 277.451 77.0614C277.669 77.0901 277.89 77.0668 278.097 76.9936C278.198 76.952 278.289 76.8911 278.365 76.8143C278.442 76.7375 278.503 76.6463 278.544 76.5459C278.586 76.4456 278.607 76.3381 278.606 76.2295C278.606 76.121 278.584 76.0136 278.542 75.9134" fill="#263238"/>
<path d="M274.738 88.2179C274.161 84.0953 274.853 79.1481 277.846 75.6274C280.839 72.1066 286.133 69.9546 289.637 70.6225C292.366 71.142 298.303 71.3563 300.471 77.0703L300.166 72.354C300.166 72.354 297.528 66.9946 289.736 67.1595C281.944 67.3244 278.547 68.2314 274.779 72.8157C273.523 74.2128 272.661 75.9193 272.283 77.7596C271.905 79.6 272.023 81.5079 272.627 83.2872C273.171 84.9946 273.878 86.6458 274.738 88.2179Z" fill="#FFAA00"/>
<path d="M296.2 68.327C296.101 68.3046 296.004 68.2715 295.912 68.2281C295.73 68.1621 295.466 68.0467 295.087 67.9312C294.094 67.5731 293.074 67.2974 292.036 67.1067C290.5 66.8503 288.941 66.759 287.386 66.8346C285.483 66.9235 283.604 67.2988 281.812 67.9477C280.022 68.6272 278.352 69.5874 276.865 70.7923C276.22 71.3178 275.627 71.9031 275.092 72.5403C274.828 72.8289 274.614 73.134 274.391 73.4226C274.169 73.7112 273.979 73.9998 273.814 74.2883C273.264 75.1849 272.8 76.1319 272.429 77.1165C272.289 77.4545 272.206 77.7349 272.14 77.941C272.113 78.0388 272.075 78.1329 272.025 78.2213L272.099 77.9328C272.165 77.7431 272.231 77.4628 272.363 77.1082C272.707 76.1079 273.155 75.1463 273.699 74.2389C273.864 73.9503 274.07 73.6617 274.268 73.3566C274.466 73.0516 274.705 72.7465 274.968 72.4496C275.51 71.8062 276.109 71.2129 276.758 70.6769C278.24 69.4545 279.911 68.48 281.705 67.7911C283.514 67.1337 285.413 66.761 287.336 66.6862C288.904 66.6099 290.476 66.715 292.02 66.9995C293.059 67.1853 294.079 67.4612 295.071 67.8241C295.425 67.956 295.681 68.0879 295.895 68.1621L296.2 68.327Z" fill="#263238"/>
<path d="M275.26 81.3204C275.175 81.2977 275.094 81.2615 275.021 81.2132C274.815 81.086 274.619 80.9427 274.435 80.7845C273.827 80.2568 273.362 79.5843 273.082 78.8291C272.803 78.074 272.718 77.2605 272.836 76.464C272.873 76.2257 272.931 75.9912 273.009 75.7631C273.067 75.5982 273.108 75.5158 273.116 75.524C273.124 75.5322 273.026 75.8868 272.968 76.4804C272.894 77.2537 272.993 78.0337 273.256 78.7644C273.53 79.4918 273.964 80.1484 274.526 80.6855C274.955 81.0978 275.277 81.2957 275.26 81.3204Z" fill="#263238"/>
<path d="M277.533 76.6018C277.275 76.4894 277.045 76.3236 276.857 76.1153C276.367 75.6366 275.996 75.049 275.776 74.4003C275.548 73.7522 275.494 73.0557 275.62 72.3802C275.65 72.089 275.743 71.8079 275.892 71.5557C275.892 71.5557 275.818 71.869 275.743 72.3802C275.667 73.0334 275.738 73.6953 275.95 74.3178C276.167 74.9293 276.507 75.4903 276.947 75.9669C277.285 76.3956 277.549 76.577 277.533 76.6018Z" fill="#263238"/>
<path d="M281.221 73.1645C281.01 73.0674 280.817 72.9334 280.652 72.7688C280.229 72.3925 279.877 71.9428 279.613 71.4413C279.354 70.9281 279.205 70.3663 279.176 69.7922C279.146 69.5599 279.166 69.3238 279.234 69.0996C279.275 69.8717 279.46 70.6294 279.778 71.3341C280.172 72.0079 280.658 72.6239 281.221 73.1645Z" fill="#263238"/>
<path d="M284.774 67.0796C284.92 67.229 285.035 67.4055 285.112 67.599C285.343 68.0391 285.522 68.5038 285.648 68.9843C285.771 69.4674 285.843 69.962 285.863 70.4602C285.881 70.6676 285.865 70.8767 285.813 71.0785C285.755 71.0785 285.755 70.1386 285.467 69.0337C285.178 67.9289 284.725 67.1043 284.774 67.0796Z" fill="#263238"/>
<path d="M291.619 66.9507C291.747 67.1138 291.84 67.302 291.891 67.5031C292.046 67.9789 292.11 68.4795 292.081 68.979C292.056 69.4782 291.935 69.9679 291.726 70.4219C291.654 70.6184 291.539 70.796 291.388 70.9414C291.66 70.3149 291.832 69.6501 291.899 68.9708C291.908 68.2872 291.813 67.6062 291.619 66.9507Z" fill="#263238"/>
<path d="M296.013 68.1846C296.168 68.3465 296.292 68.5369 296.375 68.7452C296.603 69.2431 296.729 69.7812 296.747 70.3283C296.763 70.8731 296.665 71.4153 296.458 71.9197C296.389 72.1354 296.277 72.3347 296.128 72.5051C296.399 71.8106 296.544 71.0736 296.557 70.3283C296.505 69.587 296.321 68.8609 296.013 68.1846Z" fill="#263238"/>
<path d="M300.243 71.8862C300.314 72.0527 300.345 72.2334 300.334 72.4139C300.365 73.2957 300.071 74.1582 299.509 74.838C299.286 75.0936 299.113 75.2091 299.105 75.1926C299.461 74.7139 299.758 74.1933 299.987 73.6425C300.146 73.0702 300.232 72.4801 300.243 71.8862Z" fill="#263238"/>
<path d="M302.377 76.4957C302.376 76.9544 302.225 77.4003 301.948 77.7655C301.725 78.1639 301.373 78.4748 300.95 78.6477C301.245 78.3354 301.521 78.0049 301.775 77.6583C302.195 77.1058 302.319 76.4874 302.377 76.4957Z" fill="#263238"/>
<path d="M302.668 81.6786C302.709 81.6786 302.668 82.0001 302.379 82.2475C302.091 82.4949 301.786 82.5196 301.786 82.4701C301.786 82.4206 302.025 82.3217 302.256 82.1073C302.487 81.8929 302.61 81.6621 302.668 81.6786Z" fill="#263238"/>
<path d="M274.68 85.9601C274.067 85.8747 273.483 85.6486 272.972 85.2996C272.461 84.9505 272.038 84.488 271.736 83.9482C272.529 84.8594 273.543 85.5521 274.68 85.9601Z" fill="#263238"/>
<path d="M275.138 88.5606C275.138 88.6018 274.874 88.8739 274.395 88.8986C273.917 88.9234 273.571 88.6925 273.62 88.6513C273.67 88.61 273.967 88.742 274.387 88.709C274.808 88.676 275.113 88.5193 275.138 88.5606Z" fill="#263238"/>
<g opacity="0.3">
<path d="M295.561 68.1455C293.876 67.0398 291.986 66.2839 290.003 65.9228C288.02 65.5616 285.985 65.6025 284.018 66.043C282.034 66.5497 280.171 67.4455 278.536 68.6784C276.901 69.9112 275.527 71.4565 274.495 73.2246C274.495 73.2246 279.351 67.0819 286.31 66.8675C293.269 66.6531 295.561 68.1455 295.561 68.1455Z" fill="black"/>
</g>
<path d="M290.183 88.8446C290.151 88.5201 290.099 88.1979 290.027 87.8799C289.796 87.0167 289.282 86.256 288.567 85.7196C288.082 85.3524 287.517 85.1039 286.918 84.9941C286.228 84.8684 285.517 84.9282 284.857 85.1672C284.131 85.4346 283.499 85.9108 283.043 86.5359C282.551 87.2065 282.285 88.0168 282.285 88.8487C282.285 89.6806 282.551 90.4909 283.043 91.1615C283.499 91.7866 284.131 92.2628 284.857 92.5302C285.474 92.7544 286.137 92.8213 286.786 92.7248C287.435 92.6284 288.05 92.3716 288.576 91.9778C289.289 91.4401 289.802 90.6799 290.035 89.8175C290.108 89.497 290.161 89.172 290.192 88.8446C290.215 89.1771 290.184 89.5113 290.101 89.834C289.894 90.7285 289.385 91.5238 288.658 92.085C288.153 92.4692 287.566 92.7316 286.943 92.8518C286.227 92.9927 285.486 92.9357 284.799 92.6869C284.426 92.5574 284.076 92.3711 283.76 92.1344C283.431 91.9055 283.139 91.6274 282.895 91.3099C282.376 90.6097 282.096 89.7614 282.096 88.8899C282.096 88.0185 282.376 87.1701 282.895 86.47C283.136 86.1378 283.428 85.8456 283.76 85.6042C284.076 85.3676 284.426 85.1812 284.799 85.0518C285.441 84.817 286.131 84.749 286.806 84.8543C287.481 84.9596 288.118 85.2347 288.658 85.6537C289.385 86.2148 289.894 87.0102 290.101 87.9046C290.177 88.2118 290.205 88.5289 290.183 88.8446Z" fill="#455A64"/>
<path d="M302.154 88.3775C302.154 88.3775 302.154 88.023 301.989 87.4128C301.758 86.5497 301.244 85.789 300.529 85.2526C300.045 84.8837 299.48 84.635 298.88 84.527C298.19 84.4013 297.479 84.4611 296.819 84.7001C296.465 84.8295 296.131 85.01 295.829 85.2361C295.34 85.6014 294.942 86.076 294.668 86.6221C294.394 87.1682 294.252 87.7707 294.252 88.3816C294.252 88.9926 294.394 89.595 294.668 90.1411C294.942 90.6872 295.34 91.1619 295.829 91.5272C296.131 91.7532 296.465 91.9338 296.819 92.0631C297.436 92.2873 298.099 92.3542 298.748 92.2578C299.397 92.1613 300.012 91.9046 300.538 91.5107C301.251 90.973 301.764 90.2128 301.997 89.3505C302.154 88.7403 302.129 88.3775 302.162 88.3775C302.18 88.71 302.149 89.0433 302.071 89.3669C301.857 90.2604 301.346 91.0544 300.62 91.6179C300.115 92.0021 299.528 92.2645 298.905 92.3847C298.189 92.5256 297.447 92.4686 296.761 92.2198C296.389 92.0886 296.039 91.9024 295.722 91.6674C295.289 91.3509 294.923 90.9518 294.645 90.4931C294.366 90.0344 294.182 89.5252 294.101 88.9948C294.021 88.4644 294.046 87.9233 294.176 87.4027C294.305 86.8821 294.537 86.3924 294.857 85.9617C295.336 85.3099 295.999 84.8161 296.761 84.5435C297.403 84.3087 298.093 84.2407 298.768 84.346C299.443 84.4513 300.08 84.7264 300.62 85.1454C301.346 85.7089 301.857 86.5028 302.071 87.3963C302.146 87.7176 302.174 88.0482 302.154 88.3775Z" fill="#455A64"/>
<path d="M294.281 86.8541C294.281 86.8541 294.05 86.6974 293.655 86.5078C293.137 86.2466 292.559 86.1266 291.98 86.1599C291.401 86.1932 290.841 86.3786 290.356 86.6974C289.977 86.9365 289.787 87.1427 289.771 87.1179C289.895 86.9026 290.071 86.7213 290.282 86.5902C290.761 86.2311 291.334 86.0191 291.931 85.9801C292.536 85.9477 293.137 86.0909 293.663 86.3923C293.903 86.4952 294.114 86.6534 294.281 86.8541Z" fill="#455A64"/>
<path d="M282.45 88.1018C282.45 88.1512 280.859 88.6954 278.855 89.3221C276.851 89.9487 275.219 90.4022 275.21 90.361C275.202 90.3198 276.802 89.7673 278.797 89.1407C280.793 88.514 282.433 88.0523 282.45 88.1018Z" fill="#455A64"/>
<path d="M286.037 92.172C285.8 92.1903 285.561 92.1594 285.336 92.0813C284.787 91.9245 284.282 91.6423 283.861 91.2568C283.437 90.8636 283.11 90.3784 282.904 89.8386C282.808 89.6206 282.76 89.3843 282.764 89.146C282.864 89.3553 282.952 89.57 283.028 89.7891C283.504 90.7938 284.357 91.5701 285.402 91.9494C285.618 92.0123 285.83 92.0866 286.037 92.172Z" fill="#CFC4C4"/>
<path d="M295.848 90.8599C295.848 90.8599 295.593 90.8104 295.312 90.5054C294.972 90.1028 294.747 89.6156 294.661 89.0954C294.554 88.5814 294.554 88.0511 294.661 87.5371C294.692 87.3226 294.78 87.1204 294.916 86.9517C294.916 86.9517 294.851 87.1825 294.785 87.5701C294.707 88.0645 294.707 88.568 294.785 89.0624C294.869 89.5531 295.064 90.0182 295.353 90.4229C295.507 90.5809 295.672 90.727 295.848 90.8599Z" fill="#CFC4C4"/>
<path d="M290.054 96.5822C290.054 96.541 290.169 96.3349 290.4 96.1122C290.631 95.8896 290.829 95.733 290.87 95.7742C290.911 95.8154 290.755 96.0215 290.524 96.2442C290.293 96.4668 290.095 96.6152 290.054 96.5822Z" fill="#263238"/>
<path d="M290.627 96.9344C290.627 96.9344 290.742 96.6458 290.965 96.3655C291.188 96.0851 291.402 95.8708 291.435 95.9037C291.468 95.9367 291.328 96.1923 291.105 96.4727C290.883 96.753 290.668 96.9674 290.627 96.9344Z" fill="#263238"/>
<path d="M291.219 97.3704C291.169 97.3704 291.268 97.0818 291.425 96.7767C291.582 96.4716 291.755 96.249 291.804 96.2655C291.854 96.282 291.755 96.5623 291.59 96.8674C291.425 97.1725 291.26 97.3951 291.219 97.3704Z" fill="#263238"/>
<path d="M292.117 97.3812C292.068 97.3812 292.043 97.1916 292.06 96.969C292.076 96.7463 292.134 96.5649 292.183 96.5649C292.233 96.5649 292.258 96.7546 292.241 96.9772C292.225 97.1998 292.175 97.3812 292.117 97.3812Z" fill="#263238"/>
<path d="M292.985 97.519C292.927 97.519 292.886 97.3541 292.886 97.1562C292.886 96.9583 292.927 96.7852 292.985 96.7852C293.042 96.7852 293.075 96.9501 293.075 97.1562C293.075 97.3623 293.034 97.519 292.985 97.519Z" fill="#263238"/>
<path d="M293.797 97.5973C293.747 97.5973 293.656 97.4077 293.59 97.1438C293.525 96.88 293.525 96.6491 293.59 96.6409C293.656 96.6326 293.731 96.8387 293.788 97.1026C293.846 97.3664 293.846 97.5891 293.797 97.5973Z" fill="#263238"/>
<path d="M275.212 98.5432C275.25 98.8675 275.164 99.1941 274.973 99.4584C274.879 99.615 274.752 99.7493 274.601 99.8519C274.451 99.9544 274.279 100.023 274.099 100.052C273.876 100.082 273.649 100.049 273.442 99.9594C273.236 99.8693 273.058 99.7246 272.928 99.5409C272.8 99.3613 272.709 99.1579 272.661 98.9426C272.613 98.7274 272.608 98.5046 272.648 98.2876C272.732 97.9334 272.947 97.6242 273.25 97.4218C273.378 97.322 273.526 97.2505 273.683 97.2122C273.841 97.1738 274.005 97.1694 274.165 97.1992C273.87 97.2489 273.588 97.3614 273.34 97.529C273.076 97.7328 272.894 98.0258 272.829 98.3536C272.772 98.7447 272.866 99.1428 273.093 99.4667C273.206 99.6235 273.359 99.7475 273.536 99.8257C273.712 99.904 273.907 99.9337 274.099 99.9119C274.256 99.8899 274.407 99.8344 274.54 99.749C274.674 99.6636 274.788 99.5505 274.874 99.4172C275.041 99.1501 275.156 98.8534 275.212 98.5432Z" fill="#263238"/>
<path d="M264.103 219.751C265.101 219.751 306.295 262.626 306.295 265.602C306.295 268.579 312.413 298.781 315.365 303.432C318.316 308.082 320.089 306.994 320.089 306.994L333.785 300.612C333.785 300.612 326.199 253.614 324.533 248.329C322.868 243.043 291.453 201.479 291.453 201.479L261.77 207.127L264.103 219.751Z" fill="#263238"/>
<path d="M248.893 198.309L240.334 251.161C240.334 251.161 213.562 277.966 211.896 280.951C211.896 280.951 208.911 279.953 207.914 282.6C207.118 285.09 206.498 287.633 206.059 290.21L219.35 301.374C219.35 301.374 254.467 272.26 257.79 267.94C261.113 263.619 275.031 235.132 277.694 227.827C280.357 220.521 283.466 204.319 283.466 204.319L248.893 198.309Z" fill="#263238"/>
<path d="M313.194 256.028C313.078 256.604 312.878 257.16 312.6 257.677C312.011 258.965 311.305 260.196 310.489 261.354C309.684 262.525 308.755 263.606 307.719 264.578C307.311 265.009 306.827 265.361 306.292 265.617C306.669 265.174 307.074 264.755 307.505 264.364C308.46 263.329 309.339 262.227 310.135 261.066C312.031 258.427 313.07 255.954 313.194 256.028Z" fill="#455A64"/>
<path d="M245.132 254.826C244.08 254.754 243.084 254.323 242.312 253.606C241.459 253.003 240.833 252.132 240.531 251.132C241.17 251.896 241.856 252.62 242.584 253.301C243.401 253.861 244.252 254.371 245.132 254.826Z" fill="#455A64"/>
<path d="M217.499 287.855C216.156 287.172 214.997 286.176 214.117 284.953C213.238 283.729 212.664 282.313 212.444 280.822C213.002 282.173 213.68 283.47 214.473 284.698C215.377 285.845 216.391 286.903 217.499 287.855Z" fill="#455A64"/>
<path d="M259.94 206.127C259.913 206.332 259.854 206.533 259.767 206.721C259.573 207.248 259.341 207.76 259.074 208.254C257.298 211.56 254.485 214.19 251.068 215.741C250.558 215.976 250.032 216.175 249.493 216.335C249.302 216.415 249.098 216.459 248.891 216.466C248.891 216.392 249.716 216.104 250.936 215.469C252.556 214.636 254.054 213.584 255.388 212.344C256.716 211.093 257.867 209.667 258.81 208.106C259.528 206.902 259.841 206.094 259.94 206.127Z" fill="#455A64"/>
<path d="M280.933 219.631C280.812 220.092 280.658 220.544 280.471 220.983C280.108 221.907 279.647 223.127 279.061 224.611C277.841 227.654 276.126 231.859 274.073 236.435C272.02 241.011 270.016 245.092 268.548 248.028L266.784 251.491C266.583 251.923 266.348 252.339 266.083 252.736C266.234 252.283 266.419 251.842 266.635 251.416L268.284 247.896C269.686 244.919 271.64 240.829 273.685 236.262C275.73 231.694 277.495 227.513 278.781 224.487C279.416 223.036 279.935 221.832 280.323 220.917C280.493 220.474 280.697 220.043 280.933 219.631Z" fill="#455A64"/>
<path d="M273.71 112.477C273.71 112.477 264.641 116.13 262.538 122.504C261.466 125.727 255.216 149.301 255.216 149.301C255.216 149.301 246.971 194.567 248.109 198.879L295.297 206.127C296.465 204.711 297.055 202.905 296.946 201.073L296.179 187.509L296.731 129.372C296.738 128.939 296.708 128.505 296.641 128.077L294.992 117.358L295.519 112.733L274.37 107.143L273.71 112.477Z" fill="#FFAA00"/>
<path d="M272.439 108.832C272.496 108.471 272.628 108.125 272.827 107.819C273.025 107.512 273.286 107.25 273.592 107.051C273.899 106.851 274.243 106.718 274.604 106.659C274.965 106.601 275.334 106.619 275.687 106.713L295.023 111.816C295.604 111.971 296.115 112.32 296.469 112.807C296.824 113.293 297 113.887 296.968 114.488L296.919 115.312C296.895 115.708 296.782 116.093 296.588 116.438C296.394 116.783 296.124 117.08 295.798 117.305C295.473 117.531 295.1 117.679 294.708 117.74C294.317 117.8 293.917 117.771 293.538 117.654L274.253 111.734C273.651 111.551 273.136 111.156 272.802 110.622C272.469 110.089 272.34 109.453 272.439 108.832Z" fill="#FFAA00"/>
<path d="M295.295 117.424C294.954 117.395 294.617 117.331 294.289 117.235L291.609 116.559C289.341 115.965 286.225 115.124 282.795 114.168L278.194 112.865C277.616 112.775 277.046 112.642 276.487 112.469C276.221 112.385 275.964 112.274 275.72 112.139C275.588 112.072 275.468 111.983 275.366 111.875C275.277 111.765 275.2 111.646 275.135 111.521C274.937 111.067 274.874 110.566 274.953 110.078C275.008 109.672 275.116 109.276 275.275 108.899C275.49 108.369 275.79 107.879 276.165 107.448C276.438 107.159 276.619 107.044 276.627 107.06C276.146 107.636 275.765 108.288 275.498 108.99C275.179 109.748 275.156 110.598 275.432 111.372C275.613 111.785 276.091 111.941 276.602 112.114C277.142 112.275 277.694 112.393 278.252 112.469L282.861 113.739C286.291 114.695 289.399 115.586 291.642 116.212L294.289 117.037C294.636 117.134 294.972 117.263 295.295 117.424Z" fill="#263238"/>
<path d="M295.486 120.723C295.532 120.862 295.56 121.006 295.569 121.152C295.61 121.482 295.659 121.886 295.717 122.38C295.833 123.452 295.981 125.002 296.121 126.924C296.426 130.766 296.731 136.076 296.904 141.946C297.078 147.817 297.061 153.144 296.904 156.994C296.847 158.915 296.764 160.474 296.69 161.545C296.649 162.048 296.608 162.452 296.583 162.782C296.583 162.928 296.561 163.072 296.517 163.211C296.499 163.069 296.499 162.925 296.517 162.782C296.517 162.444 296.517 162.04 296.517 161.537C296.517 160.465 296.583 158.907 296.599 156.986C296.657 153.144 296.599 147.825 296.451 141.955C296.303 136.084 296.022 130.782 295.8 126.948C295.684 125.068 295.593 123.535 295.519 122.397C295.519 121.902 295.478 121.49 295.462 121.16C295.453 121.014 295.462 120.867 295.486 120.723Z" fill="#263238"/>
<path d="M281.764 108.612C281.445 109.387 281.189 110.187 280.997 111.003C280.937 111.826 280.937 112.653 280.997 113.477C280.754 113.099 280.591 112.677 280.518 112.234C280.444 111.792 280.461 111.339 280.568 110.904C280.606 110.462 280.731 110.031 280.936 109.638C281.141 109.244 281.423 108.896 281.764 108.612Z" fill="#263238"/>
<path d="M287.257 109.872C287.298 109.872 287.496 110.103 287.661 110.581C287.861 111.219 287.898 111.896 287.769 112.552C287.639 113.207 287.347 113.82 286.919 114.333C286.589 114.712 286.309 114.869 286.276 114.827C286.755 114.103 287.117 113.307 287.348 112.469C287.448 111.604 287.418 110.728 287.257 109.872Z" fill="#263238"/>
<path d="M292.607 111.357C292.648 111.357 292.871 111.555 293.069 112.017C293.326 112.631 293.406 113.305 293.3 113.962C293.193 114.619 292.905 115.234 292.467 115.735C292.129 116.114 291.848 116.255 291.815 116.213C292.378 115.554 292.752 114.754 292.897 113.899C293.042 113.044 292.953 112.166 292.64 111.357H292.607Z" fill="#263238"/>
<path d="M289.82 124.44C288.039 119.179 283.718 114.587 278.276 113.507C272.834 112.427 267.722 113.581 263.839 118.108L258.892 128.62C261.085 127.4 264.597 120.268 268.687 117.844C272.777 115.42 277.328 115.37 280.692 118.742C283.166 121.216 285.021 124.811 284.963 128.34C284.848 135.25 281.97 141.73 279.876 148.327C277.188 156.786 275.061 165.806 268.852 172.164C263.863 177.267 257.185 180.31 250.712 183.237C249.179 184.498 245.633 189.083 247.464 189.833C249.294 190.583 255.948 188.184 257.836 187.599C262.544 186.164 267.434 184.622 271.029 181.242C274.327 178.1 276.157 173.722 277.872 169.484C281.17 161.305 283.331 152.779 286.637 144.591C289.44 137.624 292.227 131.564 289.82 124.44Z" fill="#455A64"/>
<path d="M282.29 212.475L278.531 206.126L265.948 210.512C265.948 210.512 266.773 221.693 268.422 222.015C268.917 222.1 269.426 222.077 269.911 221.946C270.397 221.815 270.848 221.58 271.233 221.256C271.233 221.256 272.173 224.175 274.053 224.299L275.101 224.348C275.439 224.612 277.352 225.997 278.935 225.486C278.935 225.486 280.386 228.636 281.557 228.306C282.727 227.976 283.486 224.183 283.486 224.183L282.29 212.475Z" fill="#FFBE9D"/>
<path d="M270.931 116.331C268.784 117.082 266.868 118.375 265.368 120.086C263.868 121.797 262.837 123.866 262.373 126.093C259.899 137.941 253.995 168.968 254.235 173.338C254.54 178.896 265.135 211.827 265.135 211.827L279.976 207.358L273.24 170.255C273.24 170.255 283.753 135.542 284.577 130.265C285.484 124.502 280.455 113.032 270.931 116.331Z" fill="#FFAA00"/>
<path d="M270.93 116.355C271.306 116.205 271.692 116.081 272.084 115.984C273.229 115.671 274.427 115.609 275.597 115.802C277.484 116.153 279.206 117.108 280.503 118.523C283.246 121.583 284.779 125.537 284.815 129.646C284.798 130.46 284.696 131.269 284.51 132.062C284.345 132.886 284.139 133.711 283.941 134.535C283.117 137.833 282.094 141.404 281.006 145.18C278.821 152.733 276.281 161.184 273.461 170.312V170.221L280.214 207.325V207.514L280.033 207.572L273.074 209.658L265.158 212.041L264.952 212.099L264.894 211.901C262.693 205.148 260.615 198.552 258.702 192.17C257.754 188.979 256.831 185.846 255.998 182.754C255.585 181.212 255.173 179.686 254.819 178.161C254.629 177.403 254.472 176.636 254.324 175.877C254.185 175.117 254.1 174.349 254.068 173.577C254.109 172.064 254.244 170.555 254.472 169.058C254.679 167.591 254.885 166.148 255.116 164.721C255.561 161.877 256.047 159.131 256.517 156.476C257.465 151.166 258.405 146.244 259.271 141.766L261.654 129.695C261.936 128.027 262.311 126.375 262.775 124.748C263.235 123.406 263.891 122.139 264.721 120.988C265.871 119.396 267.361 118.081 269.083 117.138C269.674 116.8 270.299 116.523 270.947 116.313C270.947 116.313 270.79 116.396 270.477 116.528C270.012 116.721 269.56 116.944 269.124 117.196C267.435 118.157 265.977 119.477 264.853 121.063C264.044 122.207 263.405 123.462 262.957 124.789C262.514 126.403 262.153 128.037 261.877 129.687C261.192 133.241 260.417 137.289 259.551 141.766C258.686 146.244 257.787 151.183 256.855 156.484C256.394 159.139 255.924 161.885 255.478 164.73C255.247 166.148 255.041 167.591 254.843 169.058C254.627 170.534 254.498 172.02 254.456 173.511C254.508 174.265 254.613 175.014 254.769 175.753C254.909 176.512 255.074 177.262 255.264 178.021C255.61 179.538 256.031 181.063 256.443 182.597C257.268 185.681 258.208 188.814 259.156 191.997C261.077 198.37 263.155 204.966 265.356 211.719L265.092 211.579L273.008 209.204L279.967 207.11L279.818 207.358C277.427 194.165 275.16 181.608 273.099 170.254V170.204V170.155C275.927 161.027 278.491 152.593 280.701 145.048C281.797 141.28 282.82 137.735 283.669 134.428C284.133 132.864 284.435 131.256 284.568 129.629C284.538 125.579 283.051 121.675 280.379 118.63C279.113 117.231 277.431 116.277 275.58 115.909C274.425 115.705 273.239 115.747 272.101 116.033C271.808 116.094 271.519 116.171 271.235 116.264C271.135 116.3 271.033 116.33 270.93 116.355Z" fill="#263238"/>
<path d="M273.421 170.053C271.061 168.355 268.247 167.404 265.341 167.324C266.808 167.081 268.313 167.203 269.722 167.679C271.131 168.155 272.401 168.97 273.421 170.053Z" fill="#263238"/>
<g opacity="0.3">
<path d="M261.55 201.436C254.632 191.179 250.996 176.841 254.954 166.641C253.873 172.751 254.904 178.333 256.726 184.261C258.549 190.19 260.725 196.101 261.08 202.294" fill="black"/>
</g>
<path d="M240.262 347.527L219.781 325.916L202.993 326.864L191.104 331.564L183.559 347.527" fill="#866B6B"/>
<path d="M202.993 326.864L220.382 347.527H240.261L219.78 325.916L202.993 326.864Z" fill="#E0E0E0"/>
<path d="M183.559 347.556C183.587 347.45 183.625 347.348 183.675 347.251L184.046 346.385C184.408 345.602 184.87 344.513 185.53 343.137L190.939 331.519V331.453H191.013L202.886 326.72H202.952L211.016 326.258L219.748 325.772H219.847L219.913 325.846L234.507 341.347L238.745 345.915C239.215 346.426 239.569 346.839 239.866 347.152C240.007 347.285 240.132 347.435 240.237 347.597C240.089 347.474 239.949 347.342 239.817 347.201L238.638 346.014L234.309 341.529C230.615 337.67 225.486 332.294 219.608 326.135L219.772 326.201L211.041 326.695L202.977 327.141H203.043L191.145 331.808L191.235 331.717C188.952 336.491 187.047 340.465 185.695 343.26L184.12 346.468L183.699 347.292C183.661 347.384 183.614 347.473 183.559 347.556Z" fill="#263238"/>
<path d="M91.0459 347.524L98.8624 333.953L113.119 329.979L126.451 341.316V347.524" fill="#D6D3D3"/>
<path d="M98.8633 333.953L126.452 341.316L113.119 329.979L98.8633 333.953Z" fill="#E0E0E0"/>
<path d="M126.449 347.551C126.418 347.41 126.404 347.266 126.408 347.122C126.408 346.809 126.408 346.405 126.408 345.91C126.408 344.789 126.408 343.255 126.35 341.342L126.391 341.441L113.009 330.161L113.207 330.203L109.926 331.06L98.9098 334.111L99.0252 334.02L93.2865 343.807C92.5939 344.962 92.0415 345.885 91.6374 346.561L91.1922 347.287C91.1407 347.371 91.0828 347.451 91.019 347.526C91.046 347.431 91.0848 347.339 91.1345 347.254L91.5302 346.504L93.0886 343.692L98.6624 333.864V333.789H98.7449L109.777 330.673L113.026 329.774H113.133L113.215 329.848L126.507 341.243L126.556 341.284V341.35C126.556 343.263 126.507 344.797 126.49 345.918C126.49 346.413 126.49 346.817 126.49 347.13C126.493 347.272 126.48 347.413 126.449 347.551Z" fill="#263238"/>
<path d="M374.092 323.132L354.303 311.861L319.558 324.517L291.491 347.53L390.781 347.019L374.092 323.132Z" fill="#866B6B"/>
<path d="M291.491 347.53L327.094 326.867L374.092 323.132L353.512 310.954L319.558 324.517L291.491 347.53Z" fill="#E0E0E0"/>
<path d="M342.644 347.264L360.429 335.078L376.648 333.923L363.076 336.941L356.051 347.198L342.644 347.264Z" fill="#E0E0E0"/>
<path d="M291.491 347.552C291.491 347.552 291.491 347.503 291.614 347.428L291.994 347.09L293.494 345.82L299.217 341.063L319.434 324.391L344.17 314.332L353.306 310.638L353.405 310.597L353.495 310.654L374.109 323.022L386.163 340.403L389.503 345.268L390.327 346.563C390.428 346.706 390.522 346.855 390.608 347.008C390.608 347.008 390.492 346.876 390.286 346.587L389.371 345.334C388.546 344.204 387.417 342.58 385.949 340.527L373.771 323.212L373.828 323.261L353.215 310.935H353.396L344.269 314.637L319.484 324.655H319.533L299.217 341.211L293.445 345.886L292.002 347.115L291.598 347.428L291.491 347.552Z" fill="#263238"/>
<path d="M377.196 333.881C376.773 333.978 376.343 334.036 375.91 334.054L372.372 334.367L360.433 335.291H360.54L358.586 336.626C354.216 339.619 350.25 342.316 347.364 344.245L343.942 346.479L342.994 347.081C342.78 347.213 342.656 347.279 342.648 347.263C342.737 347.167 342.837 347.081 342.945 347.007L343.844 346.339L347.199 343.965C350.044 341.969 353.985 339.232 358.355 336.239L360.309 334.903H360.359H360.433L372.372 334.128L375.926 333.938C376.347 333.889 376.772 333.87 377.196 333.881Z" fill="#263238"/>
<path d="M467.649 335.678L455.76 330.97L435.938 334.573L426.332 347.485L473.372 347.526L467.649 335.678Z" fill="#866B6B"/>
<path d="M435.938 334.572C436.515 334.465 467.649 335.677 467.649 335.677L455.759 330.977L435.938 334.572Z" fill="#E0E0E0"/>
<path d="M426.341 347.486C426.378 347.394 426.428 347.308 426.49 347.23L426.984 346.521L428.897 343.858L435.79 334.458L435.832 334.4H435.906L450.657 331.696L455.728 330.772H455.785H455.843L467.716 335.505H467.782V335.563L471.905 344.22L473.01 346.628L473.29 347.263C473.327 347.336 473.354 347.414 473.373 347.494C473.319 347.432 473.274 347.363 473.241 347.288L472.919 346.669C472.622 346.092 472.218 345.292 471.723 344.303C470.685 342.209 469.25 339.265 467.494 335.72L467.584 335.802L455.686 331.135H455.802L450.731 332.059L435.98 334.705L436.096 334.639C433.21 338.457 430.802 341.656 429.071 343.94L427.075 346.537L426.539 347.214C426.413 347.4 426.347 347.491 426.341 347.486Z" fill="#263238"/>
<path d="M555.93 347.555C555.93 347.671 432.25 347.77 279.646 347.77C127.042 347.77 3.32959 347.646 3.32959 347.555C3.32959 347.465 127.009 347.341 279.646 347.341C432.283 347.341 555.93 347.407 555.93 347.555Z" fill="#263238"/>
<path d="M216.635 354.074C216.635 354.198 198.916 354.289 177.057 354.289C155.199 354.289 137.48 354.198 137.48 354.074C137.48 353.951 155.191 353.86 177.057 353.86C198.924 353.86 216.635 353.959 216.635 354.074Z" fill="#263238"/>
<path d="M187.285 359.238C187.285 359.353 181.686 359.452 174.793 359.452C167.9 359.452 162.293 359.353 162.293 359.238C162.293 359.122 167.892 359.023 174.793 359.023C181.695 359.023 187.285 359.098 187.285 359.238Z" fill="#263238"/>
</svg>
