<svg width="99" height="26" viewBox="0 0 99 26" fill="none" xmlns="http://www.w3.org/2000/svg">
<path d="M25.0867 7.42601C22.5921 2.62544 18.9817 0.288479 13.5855 0.0193621C6.57887 -0.358589 0.458268 4.83774 0.0142659 12.0109C-0.0558396 13.2694 0.121372 16.0912 0.793216 17.1518C0.863322 17.2409 1.00548 17.1696 1.07559 17.2606C1.2528 17.5119 1.50011 18.3925 1.72991 18.7883C1.81754 18.9505 1.92464 19.1662 2.10185 19.2375C1.48259 17.7989 0.915902 16.3069 0.810743 14.7258L0.970428 14.9949C1.00548 14.15 0.935375 13.305 0.970428 12.4601C0.987954 12.3532 0.917848 12.1356 1.05806 12.1553C1.09311 13.2338 1.02301 14.7792 1.48259 15.7686C1.94217 16.7758 2.45628 17.9611 3.12812 18.8793C4.70355 21.054 5.79992 23.104 8.25945 24.4714C18.8765 30.384 30.555 17.9611 25.0867 7.42601ZM10.4366 24.0202C9.58757 23.9312 8.1543 22.8864 7.4474 22.3659C7.27019 22.2393 7.0404 22.2947 6.98782 21.988C7.11245 21.988 7.21761 21.8811 7.34224 21.9346C7.4844 22.0058 7.97903 22.546 8.24388 22.7083C8.91572 23.1575 9.83683 23.4998 10.5788 23.8401C10.5788 24.0004 10.6138 24.038 10.4366 24.0202ZM20.8044 18.6973L19.7256 19.9023V20.118C20.08 20.0646 20.1852 19.6688 20.3799 19.5066C20.5046 19.3799 20.7343 19.5244 20.7694 19.1108C21.1589 19.2731 21.0167 18.8061 21.3887 18.8061L20.857 19.562L21.2115 19.5976C21.3186 19.7421 20.6448 20.4782 20.5046 20.6048C19.4958 21.5942 17.6205 22.4035 16.2593 22.7617C15.9594 22.8329 15.6225 22.7795 15.2681 22.924C15.0908 22.9952 15.1259 23.1397 14.9857 23.1575C14.2963 23.1753 13.8348 23.1397 13.1454 23.2287C12.7735 23.2643 11.2701 23.0664 10.8981 22.9596C10.791 22.9418 10.8105 22.7439 10.7034 22.7083C9.39478 22.3481 8.84562 21.988 7.7843 21.054C7.20008 20.5514 6.65287 19.9221 6.08619 19.4175C6.01608 19.3463 6.03361 19.2553 6.03361 19.1484C5.75124 19.095 5.87392 19.3997 5.9635 19.5442C6.08813 19.7421 6.30039 19.7777 6.38803 19.9043C6.47566 20.0132 6.3705 20.1378 6.42308 20.2269C6.47566 20.2981 6.63534 20.1912 6.75998 20.3891C6.81255 20.4782 7.07935 21.145 6.74245 21.0184C6.79503 20.6582 6.47761 20.6404 6.35297 20.4802C5.99855 20.031 5.71618 19.564 5.46887 19.0772C5.41629 18.9683 5.29165 18.8971 5.20402 18.8081C5.02681 19.0772 5.85834 19.8687 5.68113 20.031C5.48639 20.031 4.8496 19.3661 4.83207 19.2751C4.83207 19.186 4.91971 19.0416 4.90218 18.9525C4.86713 18.8437 4.65486 18.7724 4.56528 18.6656C4.17581 18.1076 3.76881 16.0219 3.68117 15.3036C3.64612 15.0345 3.6987 14.7278 3.68117 14.4587L3.50396 14.8188L3.68117 12.5175C3.52149 12.6243 3.38128 13.0201 3.36181 13.2001C3.30923 13.4515 3.3618 13.7028 3.30923 13.956L2.98986 14.4587C2.88275 13.6849 2.98986 12.9488 2.98986 12.1573L3.23717 12.5175C3.39686 10.323 4.15633 7.98601 5.67918 6.40495L5.73176 6.67406C6.31597 6.09823 6.6334 5.09102 7.60709 5.16424L7.51945 4.89512C7.87388 4.62601 8.35098 4.64381 8.68788 4.42812C9.97899 3.58318 10.7579 3.49413 12.2613 3.29625C12.4385 3.27844 12.5982 3.08057 12.828 3.1518C12.8455 3.16961 12.8105 3.31406 12.8806 3.29625C13.0052 3.29625 13.0753 3.1518 13.2175 3.1518C13.5368 3.11618 14.1912 3.51194 14.2788 3.11618C14.7033 3.47632 15.3226 3.02714 15.6244 3.3853L15.1999 3.47434C16.3683 3.77908 17.6244 4.13922 18.6857 4.76848C19.5698 5.29088 20.6136 6.38714 21.1628 7.28551C21.34 7.57244 21.6223 7.95039 21.4821 8.2571H21.747L21.6593 8.52622L21.8015 8.45498C22.0839 8.74191 21.9962 9.17329 22.1014 9.60466C22.226 10.0895 22.6136 10.8454 22.6681 11.3124C22.9816 14.4013 22.7694 16.0912 20.8044 18.6973Z" fill="#612882"/>
<path d="M20.1636 20.304C19.8462 20.7611 19.2094 21.149 18.6816 21.2776C18.9815 21.052 19.2931 20.7789 19.6008 20.5692C19.743 20.4722 19.9883 20.2922 20.1636 20.304Z" fill="#612882"/>
<path d="M46.3338 9.44587C46.3338 9.29795 46.3338 9.15708 46.3338 9.00071C46.4127 8.99649 46.4773 8.99226 46.5418 8.99226C47.0885 8.99226 47.6394 8.95282 48.1817 9.00071C49.2047 9.09087 50.2276 9.07115 51.252 9.07115C51.3725 9.07115 51.4041 9.14299 51.4385 9.22329C51.7111 9.85017 51.9808 10.477 52.2534 11.1039C52.6795 12.0816 53.1056 13.0578 53.5518 14.0777C53.6279 13.9016 53.6924 13.7622 53.7498 13.6185C54.3381 12.1576 54.9263 10.6968 55.5088 9.23315C55.5576 9.11059 55.6193 9.06833 55.7527 9.06974C56.4901 9.07537 57.2262 9.07256 57.9636 9.07256C58.0081 9.07256 58.0525 9.07678 58.1286 9.0796C58.0712 9.23174 58.021 9.37261 57.965 9.50926C57.3524 11.0025 56.7398 12.4943 56.1272 13.9876C55.3008 16.0006 54.4729 18.0137 53.6451 20.0267C53.5289 20.3099 53.417 20.5945 53.2936 20.8748C53.2735 20.9199 53.2046 20.9748 53.1587 20.9762C52.3668 20.9819 51.5734 20.9804 50.7814 20.979C50.7656 20.979 50.7513 20.972 50.7197 20.9649C50.8861 20.5578 51.0497 20.1535 51.2147 19.752C51.5705 18.8871 51.9277 18.0221 52.2778 17.1558C52.3036 17.0896 52.3008 16.9938 52.2721 16.929C51.8618 16.0034 51.4457 15.0807 51.0296 14.158C50.582 13.1649 50.1344 12.1717 49.6882 11.1786C49.3869 10.5094 49.087 9.84031 48.7857 9.17117C48.78 9.15708 48.7728 9.14299 48.7656 9.12891C48.7513 9.13313 48.7369 9.13877 48.7226 9.14299C48.7226 12.045 48.7226 14.9469 48.7226 17.8531C47.9149 17.8531 47.1344 17.8531 46.341 17.8531C46.3352 17.7404 46.3295 17.6347 46.3252 17.5375C43.9766 18.3954 41.9493 18.0235 40.4529 15.9696C39.341 14.4426 39.4113 12.3816 40.4644 10.9757C41.9708 8.96549 43.9737 8.53302 46.3338 9.44587ZM44.2549 15.6132C45.45 15.6259 46.4199 14.6905 46.4227 13.4945C46.4256 12.2013 45.4055 11.3392 44.2535 11.335C43.021 11.3293 42.0598 12.3098 42.0684 13.5016C42.0756 14.6694 43.0583 15.6189 44.2549 15.6132Z" fill="#612882"/>
<path d="M63.8358 5.02527C63.8358 6.53119 63.8358 8.00612 63.8358 9.49513C64.0424 9.41201 64.2289 9.3289 64.4198 9.25987C65.8114 8.76259 67.1457 8.89642 68.4083 9.64586C69.5689 10.3347 70.2676 11.3575 70.5116 12.6591C70.7038 13.679 70.5632 14.6693 70.0453 15.5808C69.2533 16.9754 68.0395 17.7685 66.4126 17.9263C65.513 18.0136 64.6565 17.8516 63.8645 17.4262C62.5345 16.712 61.7426 15.609 61.5001 14.1397C61.4499 13.8396 61.4413 13.5297 61.4413 13.224C61.437 10.8151 61.4399 8.40478 61.4355 5.99587C61.4355 5.84373 61.4786 5.78175 61.6307 5.73385C62.3079 5.52395 62.9793 5.29715 63.6536 5.07739C63.7053 5.06471 63.7583 5.04922 63.8358 5.02527ZM68.1959 13.4705C68.1931 12.283 67.2174 11.318 66.0152 11.3166C64.8129 11.3152 63.82 12.2999 63.8272 13.486C63.8344 14.6454 64.8229 15.6033 66.0109 15.6047C67.2103 15.6047 68.1988 14.6398 68.1959 13.4705Z" fill="#612882"/>
<path d="M96.6084 9.50923C96.6084 8.00754 96.6084 6.52275 96.6084 5.01965C97.2784 5.238 97.9198 5.44509 98.5596 5.65498C98.9958 5.79726 98.9958 5.79867 98.9958 6.24664C98.9958 8.71049 99.0101 11.1757 98.9858 13.6396C98.9757 14.7271 98.5439 15.678 97.805 16.488C97.1407 17.2163 96.3201 17.6826 95.343 17.87C94.1823 18.0925 93.0876 17.915 92.0647 17.3206C91.2369 16.8388 90.64 16.1556 90.244 15.3047C89.9657 14.706 89.8452 14.0707 89.8595 13.4114C89.8882 12.0449 90.4334 10.9123 91.4908 10.029C92.158 9.4712 92.9384 9.13874 93.8122 9.03027C94.749 8.91335 95.6429 9.04999 96.4879 9.46838C96.5181 9.48247 96.551 9.48951 96.6084 9.50923ZM96.607 13.4776C96.6084 12.3041 95.6343 11.3265 94.4348 11.3307C93.2225 11.3349 92.267 12.2478 92.2426 13.4579C92.2182 14.6412 93.211 15.6118 94.4148 15.6132C95.6314 15.6132 96.607 14.6637 96.607 13.4776Z" fill="#612882"/>
<path d="M32.6548 17.4516C32.6548 18.6405 32.6548 19.7999 32.6548 20.979C32.3349 20.8747 32.035 20.7789 31.7337 20.6803C31.2947 20.5366 30.8571 20.3901 30.4166 20.2535C30.299 20.2169 30.2631 20.1605 30.2631 20.0436C30.266 17.8643 30.2574 15.685 30.2689 13.5057C30.276 12.1196 30.8069 10.956 31.8901 10.0516C32.5601 9.49371 33.3363 9.14717 34.2057 9.03588C35.5816 8.85979 36.8083 9.2176 37.8528 10.1206C38.8642 10.9954 39.3721 12.1125 39.4123 13.4269C39.431 14.0664 39.286 14.682 39.0235 15.2723C38.6074 16.2133 37.9302 16.9233 37.0292 17.4262C36.5515 17.6924 36.0307 17.8544 35.4841 17.9221C34.5386 18.0404 33.6318 17.9122 32.7739 17.4924C32.7481 17.4783 32.7165 17.4713 32.6548 17.4516ZM34.8384 15.6132C36.0493 15.6132 37.0264 14.6623 37.0235 13.486C37.0206 12.3055 36.0493 11.3236 34.8585 11.3293C33.5931 11.3349 32.6548 12.3126 32.6562 13.4987C32.6591 14.6679 33.6376 15.6132 34.8384 15.6132Z" fill="#612882"/>
<path d="M77.4963 9.47823C77.4963 9.30074 77.4963 9.15986 77.4963 9.0049C78.2969 9.0049 79.0802 9.0049 79.8779 9.0049C79.8779 11.9519 79.8779 14.899 79.8779 17.8516C79.086 17.8516 78.3055 17.8516 77.5092 17.8516C77.502 17.7418 77.4949 17.6361 77.4891 17.5375C75.1132 18.3954 73.0803 18.0094 71.5925 15.9175C70.4777 14.3496 70.6642 12.2365 71.7187 10.8391C72.383 9.9586 73.261 9.38385 74.3457 9.11901C75.426 8.85558 76.4633 8.99364 77.4963 9.47823ZM75.4289 15.6132C76.6699 15.6188 77.5896 14.6482 77.591 13.4903C77.5939 12.2224 76.6082 11.3476 75.4346 11.3349C74.1692 11.3208 73.2323 12.3196 73.2395 13.5058C73.2467 14.6764 74.2323 15.6202 75.4289 15.6132Z" fill="#612882"/>
<path d="M83.4877 17.8587C83.393 17.8587 83.3255 17.8587 83.2596 17.8587C82.5508 17.8587 81.8421 17.8587 81.1104 17.8587C81.1104 14.9032 81.1104 11.9562 81.1104 9.00067C81.9023 9.00067 82.6814 9.00067 83.4805 9.00067C83.4805 9.17676 83.4805 9.34862 83.4805 9.54021C83.7086 9.47259 83.9109 9.39934 84.1189 9.35285C85.7789 8.98236 87.172 9.43315 88.2681 10.7038C88.8865 11.4223 89.1663 12.2788 89.1691 13.2184C89.172 14.6919 89.1706 16.1654 89.1691 17.6375C89.1691 17.7065 89.1605 17.777 89.1562 17.8488C88.3614 17.8488 87.5823 17.8488 86.7803 17.8488C86.7803 17.777 86.7803 17.7136 86.7803 17.6502C86.7803 16.1767 86.7803 14.7032 86.7803 13.231C86.7803 12.214 85.9367 11.473 84.9066 11.5828C84.1362 11.6646 83.4877 12.3774 83.4877 13.1409C83.4877 14.6412 83.4877 16.1415 83.4877 17.6432C83.4877 17.708 83.4877 17.7728 83.4877 17.8587Z" fill="#612882"/>
</svg>
