<svg width="49" height="48" viewBox="0 0 49 48" fill="none" xmlns="http://www.w3.org/2000/svg">
<path d="M46.4215 13.524C44.6647 10.1947 42.6017 7.51149 40.1729 5.44072C38.5588 4.0654 36.7813 2.95995 34.8195 2.114C31.991 0.896971 28.7888 0.214502 25.1403 0.0354503C20.7056 -0.20069 16.4602 0.751655 12.7624 2.6304C10.8578 3.59831 9.09578 4.81274 7.53103 6.23737C3.25197 10.1272 0.420884 15.5818 0.0264525 21.8745C-0.103295 24.1658 0.223665 29.3064 1.46664 31.2397C1.59899 31.4006 1.86368 31.2734 1.99083 31.4343C2.32039 31.891 2.77969 33.4973 3.20526 34.2187C3.36874 34.5119 3.56336 34.9037 3.89292 35.0361C2.74595 32.4152 1.6976 29.7009 1.50038 26.8179L1.79621 27.3083C1.86368 25.7695 1.73133 24.2307 1.79621 22.6919C1.82994 22.4973 1.69759 22.1029 1.95968 22.134C2.02456 24.101 1.89481 26.9165 2.74595 28.7174C3.59709 30.552 4.54425 32.7136 5.78982 34.3796C8.70395 38.3446 10.7332 42.0762 15.2847 44.5647C34.9311 55.3363 56.5418 32.7136 46.4215 13.524ZM19.3121 43.7447C17.7421 43.5812 15.0901 41.6817 13.7797 40.7346C13.4527 40.5036 13.0271 40.6022 12.9285 40.0443C13.1569 40.0443 13.3541 39.8497 13.585 39.9483C13.8445 40.0781 14.7605 41.0589 15.251 41.3574C16.4966 42.1748 18.2014 42.7976 19.5742 43.4177C19.5742 43.7136 19.6416 43.7784 19.3121 43.7447ZM38.4991 34.0552L36.5036 36.2479V36.6398C37.1575 36.5411 37.3547 35.8223 37.7128 35.5265C37.9438 35.2982 38.3694 35.5603 38.4342 34.8077C39.1556 35.1009 38.8935 34.2524 39.5812 34.2524L38.6003 35.6251L39.2517 35.6926C39.4489 35.9521 38.2033 37.2963 37.9438 37.5246C36.078 39.3255 32.606 40.7994 30.0837 41.456C29.5284 41.5831 28.9082 41.4871 28.2517 41.7492C27.9247 41.8789 27.9896 42.141 27.7275 42.1748C26.4508 42.2059 25.5996 42.141 24.3229 42.3045C23.6353 42.372 20.8509 42.0113 20.1658 41.8141C19.9686 41.7803 19.9997 41.4222 19.8025 41.3574C17.3814 40.7008 16.3668 40.0443 14.4024 38.3446C13.3204 37.426 12.3057 36.2816 11.2574 35.3656C11.1276 35.2333 11.1588 35.0698 11.1588 34.8726C10.6346 34.7766 10.8655 35.3319 11.029 35.594C11.2574 35.9521 11.6492 36.017 11.8153 36.2479C11.9788 36.4425 11.7816 36.6735 11.8802 36.837C11.9788 36.9667 12.272 36.7721 12.5029 37.1328C12.6016 37.2963 13.092 38.5055 12.4692 38.2798C12.5678 37.6232 11.9788 37.5895 11.7478 37.2963C11.0965 36.4763 10.5723 35.6251 10.1104 34.7428C10.0144 34.5456 9.78604 34.4133 9.61997 34.2524C9.293 34.7428 10.8318 36.183 10.5074 36.4763C10.1441 36.4763 8.96863 35.267 8.9349 35.1009C8.9349 34.9375 9.09578 34.678 9.06464 34.5119C8.99977 34.3173 8.60534 34.1849 8.44446 33.9877C7.72306 32.9731 6.97053 29.1767 6.80445 27.8662C6.73957 27.3758 6.83818 26.8179 6.80445 26.3274L6.48008 26.9814L6.80445 22.7905C6.51122 22.9877 6.24913 23.7065 6.2154 24.0361C6.11679 24.4928 6.2154 24.9521 6.11679 25.4088L5.52773 26.3274C5.33311 24.9184 5.52773 23.5768 5.52773 22.134L5.98704 22.7905C6.1116 21.1116 6.43077 19.386 6.97312 17.7356C7.71527 15.4572 8.87521 13.3294 10.5074 11.6582L10.6035 12.1487C11.683 11.1029 12.272 9.26827 14.0755 9.39801L13.9094 8.90757C14.5659 8.41712 15.4508 8.44826 16.071 8.05643C18.4609 6.51762 19.9011 6.35414 22.6855 5.99344C23.0125 5.9623 23.3083 5.60161 23.7339 5.73395C23.7676 5.76509 23.7001 6.02718 23.8325 5.99344C24.0608 5.99344 24.1932 5.73395 24.4527 5.73395C25.0417 5.66648 26.2536 6.38528 26.4196 5.66648C27.2033 6.32041 28.3503 5.503 28.9082 6.15952L28.1193 6.32041C30.2809 6.87832 32.606 7.53225 34.573 8.67921C36.2078 9.62896 38.141 11.6271 39.1556 13.2645C39.4826 13.7887 40.0068 14.4737 39.7421 15.029H40.2351L40.0717 15.5221L40.3337 15.3923C40.8579 15.9165 40.6944 16.7002 40.8891 17.4891C40.9098 17.5643 40.9332 17.6422 40.9617 17.7278C41.2394 18.6049 41.8492 19.8219 41.9374 20.5952C42.5265 26.2288 42.1346 29.3064 38.4991 34.0552Z" fill="white"/>
<path d="M37.3132 36.9797C36.7241 37.8127 35.546 38.5185 34.5703 38.7521C35.1256 38.3395 35.6991 37.8439 36.27 37.4624C36.5321 37.2859 36.9862 36.9616 37.3132 36.9797Z" fill="white"/>
<path d="M37.3131 21.397C37.2482 20.3097 37.1081 19.2691 36.8149 18.2545C36.4983 17.1594 36.0286 16.1344 35.4396 15.1613C35.3124 14.9511 35.1645 14.8473 34.918 14.8733C34.7597 14.8889 34.6014 14.8759 34.4405 14.8785C33.7606 14.8915 33.7373 14.9096 33.649 15.6128C33.5193 15.5635 33.3999 15.5272 33.2832 15.4753C31.5419 14.715 29.7852 13.9832 28.0621 13.1788C26.7102 12.5456 25.4127 12.6858 24.1334 13.2982C22.3143 14.1701 20.5264 15.099 18.7151 15.9839C17.5656 16.547 16.403 17.0764 15.2483 17.6265C15.0355 17.7277 14.7111 17.7926 14.776 18.117C14.8461 18.4543 15.173 18.527 15.4533 18.4932C16.2733 18.3998 17.0881 18.2753 17.9029 18.1377C18.7177 18.0002 19.5273 17.8289 20.3396 17.6836C20.5394 17.6473 20.6536 17.5824 20.7029 17.3592C20.7911 16.9726 21.0558 16.7001 21.4139 16.5418C22.9864 15.849 24.6316 15.5454 26.3469 15.6596C26.8451 15.6933 27.3407 15.74 27.839 15.7737C28.1581 15.7971 28.3761 15.9839 28.3579 16.233C28.3372 16.4977 28.1192 16.6404 27.7871 16.6119C26.2483 16.477 24.7095 16.3602 23.194 16.7936C22.7165 16.9285 22.2417 17.0868 21.7875 17.284C21.6163 17.3567 21.3931 17.572 21.3983 17.7174C21.4035 17.9172 21.5566 18.1741 21.7253 18.2986C22.1846 18.6334 22.7295 18.6048 23.2641 18.527C24.2917 18.3791 25.3141 18.3116 26.3287 18.6256C27.0812 18.8565 27.7144 19.2873 28.3138 19.7751C29.9123 21.0726 31.6795 21.4074 33.6335 20.7457C33.6646 20.7353 33.6983 20.7353 33.7347 20.7275C33.7502 20.7456 33.7736 20.7612 33.7762 20.7768C33.8696 21.4748 33.893 21.4826 34.6455 21.4567C35.4136 21.4307 36.1843 21.4281 36.955 21.4125C37.0614 21.4177 37.1626 21.4074 37.3131 21.397Z" fill="white"/>
<path d="M24.8084 23.3872C24.8084 23.203 24.8084 22.9798 24.8084 22.7307C25.0056 22.7307 25.1821 22.7333 25.3612 22.7307C25.7504 22.7255 26.0151 22.4686 26.0151 22.1001C26.0151 21.729 25.7919 21.4981 25.3897 21.4929C24.5723 21.4851 23.7549 21.4851 22.9401 21.4929C22.5975 21.4955 22.3406 21.7316 22.3069 22.0378C22.2706 22.3778 22.4315 22.5828 22.8233 22.6632C23.0439 22.7073 23.2696 22.7177 23.5213 22.7463C23.5213 22.9642 23.5213 23.1952 23.5213 23.3898C22.8752 23.5974 22.2316 23.7453 21.64 24.0074C19.5121 24.9546 18.1368 26.5271 17.745 28.8755C17.7112 29.0779 17.6438 29.2336 17.4362 29.353C17.1533 29.5165 17.0392 29.8097 17.1222 30.147C17.2078 30.4948 17.4388 30.6868 17.7839 30.7465C17.8721 30.762 17.9655 30.7543 18.0564 30.7543C22.1408 30.7543 26.2253 30.7594 30.3097 30.7439C30.5484 30.7439 30.8365 30.6479 31.0129 30.4948C31.3918 30.1678 31.2854 29.6021 30.8572 29.3011C30.756 29.231 30.6574 29.0935 30.6367 28.9741C30.2448 26.6075 28.8721 24.9987 26.7443 24.01C26.1474 23.7375 25.4831 23.6026 24.8084 23.3872Z" fill="white"/>
<path d="M16.0634 32.9677C21.4479 32.9677 26.8117 32.9677 32.178 32.9677C32.3752 32.3657 31.9211 31.7143 31.1997 31.582C31.0544 31.556 30.9065 31.5483 30.7586 31.5483C26.3446 31.5457 21.9306 31.5457 17.514 31.5457C17.0936 31.5457 16.7018 31.6235 16.3878 31.9323C16.1049 32.2151 16.0089 32.5577 16.0634 32.9677Z" fill="white"/>
</svg>
