<svg width="210" height="56" viewBox="0 0 210 56" fill="none" xmlns="http://www.w3.org/2000/svg">
<path d="M53.0539 15.9945C47.7783 5.6548 40.1429 0.621339 28.7309 0.0417029C13.9131 -0.772345 0.969153 10.4197 0.0301698 25.8696C-0.118091 28.5802 0.256679 34.6579 1.67751 36.9424C1.82577 37.1341 2.12641 36.9807 2.27467 37.1768C2.64944 37.718 3.17247 39.6146 3.65843 40.4671C3.84376 40.8165 4.07027 41.2811 4.44504 41.4345C3.1354 38.336 1.93697 35.1225 1.71457 31.7171L2.05228 32.2967C2.12641 30.4769 1.97815 28.657 2.05228 26.8371C2.08934 26.6069 1.94108 26.1381 2.2376 26.1807C2.31173 28.5035 2.16347 31.8322 3.1354 33.9632C4.10733 36.1326 5.19458 38.6855 6.61541 40.6631C9.94715 45.3471 12.2658 49.7625 17.4672 52.7076C39.9205 65.4425 64.6182 38.6855 53.0539 15.9945ZM22.0716 51.7359C20.276 51.5441 17.2449 49.2937 15.7499 48.1728C15.3751 47.9 14.8892 48.0194 14.778 47.3588C15.0415 47.3588 15.2639 47.1286 15.5275 47.2437C15.8281 47.3971 16.8742 48.5606 17.4343 48.9101C18.8551 49.8776 20.8031 50.6149 22.3722 51.348C22.3722 51.6932 22.4463 51.7742 22.0716 51.7359ZM43.9976 40.271L41.7161 42.8666V43.3311C42.4656 43.2161 42.688 42.3637 43.0998 42.0142C43.3634 41.7414 43.8494 42.0525 43.9235 41.1618C44.7472 41.5112 44.4465 40.5054 45.2331 40.5054L44.1088 42.1335L44.8584 42.2102C45.0849 42.5213 43.6599 44.1068 43.3634 44.3796C41.2301 46.5106 37.2641 48.2538 34.3854 49.0252C33.7512 49.1786 33.0387 49.0636 32.2892 49.3747C31.9144 49.5281 31.9885 49.8393 31.692 49.8776C30.2341 49.916 29.2581 49.8393 27.8002 50.031C27.0136 50.1078 23.8342 49.6816 23.0476 49.4514C22.8211 49.4131 22.8623 48.9868 22.6358 48.9101C19.8682 48.1344 18.7069 47.3588 16.4624 45.3471C15.2269 44.2645 14.0696 42.9092 12.8712 41.8224C12.7229 41.6689 12.76 41.4729 12.76 41.2427C12.1628 41.1277 12.4223 41.784 12.6117 42.0951C12.8753 42.5214 13.3242 42.5981 13.5095 42.8708C13.6948 43.1053 13.4725 43.3738 13.5836 43.5656C13.6948 43.719 14.0325 43.4888 14.2961 43.915C14.4073 44.1068 14.9715 45.5431 14.2591 45.2704C14.3703 44.4947 13.699 44.4563 13.4354 44.1111C12.6858 43.1436 12.0887 42.1378 11.5657 41.0893C11.4545 40.8549 11.1909 40.7015 11.0056 40.5097C10.6308 41.0893 12.3893 42.7941 12.0146 43.1436C11.6027 43.1436 10.256 41.7116 10.219 41.5155C10.219 41.3237 10.4043 41.0126 10.3672 40.8208C10.2931 40.5864 9.84419 40.433 9.65475 40.2028C8.83108 39.0009 7.97034 34.5087 7.78502 32.9616C7.71089 32.382 7.82208 31.7214 7.78502 31.1417L7.41024 31.9174L7.78502 26.9607C7.44731 27.1908 7.15079 28.0432 7.10961 28.4311C6.99841 28.9724 7.10961 29.5136 6.99841 30.0592L6.323 31.1417C6.09649 29.4753 6.323 27.8898 6.323 26.185L6.84603 26.9607C7.18374 22.2341 8.78989 17.2006 12.0104 13.7953L12.1216 14.3749C13.3571 13.1347 14.0284 10.9653 16.0876 11.123L15.9023 10.5433C16.6518 9.96371 17.6608 10.0021 18.3733 9.5375C21.1037 7.71761 22.7511 7.52583 25.9304 7.09962C26.3052 7.06126 26.6429 6.63506 27.1289 6.7885C27.166 6.82686 27.0918 7.13798 27.2401 7.09962C27.5037 7.09962 27.6519 6.7885 27.9526 6.7885C28.628 6.71178 30.0117 7.56418 30.1971 6.71178C31.0949 7.48747 32.4045 6.51999 33.0428 7.29141L32.145 7.4832C34.616 8.13956 37.2724 8.91524 39.5169 10.2706C41.3866 11.3957 43.594 13.7569 44.7554 15.6919C45.1302 16.3099 45.7273 17.1239 45.4308 17.7845H45.9909L45.8056 18.3642L46.1062 18.2107C46.7034 18.8287 46.5181 19.7578 46.7404 20.687C47.004 21.7312 47.8236 23.3593 47.9389 24.3651C48.6019 31.0181 48.153 34.6579 43.9976 40.271Z" fill="#B10AC0"/>
<path d="M42.6424 43.7318C41.9711 44.7163 40.6244 45.5517 39.5083 45.8287C40.1425 45.3428 40.8015 44.7547 41.4522 44.3029C41.7528 44.0941 42.2717 43.7062 42.6424 43.7318Z" fill="#B10AC0"/>
<path d="M97.9867 20.345C97.9867 20.0264 97.9867 19.723 97.9867 19.3862C98.1536 19.3771 98.2901 19.368 98.4266 19.368C99.5827 19.368 100.748 19.283 101.895 19.3862C104.058 19.5804 106.221 19.5379 108.388 19.5379C108.643 19.5379 108.709 19.6926 108.782 19.8656C109.359 21.2158 109.929 22.566 110.506 23.9162C111.407 26.0219 112.308 28.1246 113.252 30.3213C113.412 29.942 113.549 29.6416 113.67 29.3322C114.914 26.1857 116.158 23.0393 117.39 19.8868C117.493 19.6228 117.624 19.5318 117.906 19.5349C119.466 19.547 121.022 19.5409 122.582 19.5409C122.676 19.5409 122.77 19.55 122.931 19.5561C122.809 19.8838 122.703 20.1872 122.585 20.4815C121.289 23.6977 119.993 26.9109 118.698 30.1271C116.95 34.4629 115.199 38.7987 113.449 43.1345C113.203 43.7444 112.966 44.3573 112.705 44.9611C112.663 45.0582 112.517 45.1765 112.42 45.1796C110.745 45.1917 109.067 45.1887 107.393 45.1856C107.359 45.1856 107.329 45.1705 107.262 45.1553C107.614 44.2784 107.96 43.4076 108.309 42.5429C109.061 40.6799 109.817 38.8169 110.557 36.9509C110.612 36.8083 110.606 36.602 110.545 36.4624C109.677 34.469 108.797 32.4816 107.917 30.4942C106.971 28.3552 106.024 26.2161 105.081 24.077C104.443 22.6358 103.809 21.1945 103.172 19.7533C103.16 19.723 103.145 19.6926 103.13 19.6623C103.099 19.6714 103.069 19.6835 103.039 19.6926C103.039 25.943 103.039 32.1934 103.039 38.4528C101.33 38.4528 99.6797 38.4528 98.0019 38.4528C97.9897 38.2101 97.9776 37.9825 97.9685 37.7732C93.0016 39.621 88.7143 38.82 85.5497 34.3962C83.1982 31.1071 83.3469 26.6682 85.5739 23.6401C88.7598 19.3103 92.9955 18.3788 97.9867 20.345ZM93.5902 33.6285C96.1176 33.6558 98.1687 31.6411 98.1748 29.0651C98.1809 26.2798 96.0236 24.4229 93.5872 24.4138C90.9808 24.4016 88.9479 26.5134 88.9661 29.0803C88.9813 31.5956 91.0597 33.6407 93.5902 33.6285Z" fill="#B10AC0"/>
<path d="M135 10.8237C135 14.0672 135 17.244 135 20.4511C135.437 20.2721 135.832 20.0931 136.235 19.9444C139.179 18.8734 142 19.1616 144.67 20.7758C147.125 22.2595 148.603 24.4623 149.118 27.2658C149.525 29.4626 149.228 31.5956 148.132 33.5587C146.457 36.5625 143.891 38.2707 140.45 38.6106C138.547 38.7987 136.736 38.4498 135.061 37.5334C132.248 35.9951 130.574 33.6194 130.061 30.4547C129.955 29.8085 129.936 29.141 129.936 28.4825C129.927 23.2941 129.933 18.1027 129.924 12.9143C129.924 12.5866 130.015 12.4531 130.337 12.3499C131.769 11.8978 133.189 11.4093 134.615 10.936C134.724 10.9087 134.837 10.8753 135 10.8237ZM144.221 29.0135C144.215 26.4557 142.152 24.3773 139.609 24.3743C137.067 24.3713 134.967 26.4921 134.982 29.0469C134.997 31.544 137.088 33.6072 139.6 33.6103C142.137 33.6103 144.227 31.5319 144.221 29.0135Z" fill="#B10AC0"/>
<path d="M204.31 20.4815C204.31 17.2471 204.31 14.0491 204.31 10.8116C205.727 11.2819 207.083 11.728 208.436 12.18C209.359 12.4865 209.359 12.4895 209.359 13.4544C209.359 18.7611 209.389 24.0709 209.337 29.3777C209.316 31.72 208.403 33.7681 206.84 35.5127C205.435 37.0814 203.7 38.0857 201.634 38.4892C199.179 38.9686 196.864 38.5863 194.701 37.3059C192.95 36.2682 191.688 34.7967 190.85 32.964C190.262 31.6745 190.007 30.3061 190.037 28.8861C190.098 25.943 191.251 23.5035 193.487 21.6011C194.898 20.3996 196.548 19.6835 198.396 19.4499C200.377 19.1981 202.268 19.4924 204.055 20.3935C204.119 20.4239 204.188 20.439 204.31 20.4815ZM204.307 29.0287C204.31 26.5013 202.25 24.3956 199.713 24.4047C197.149 24.4138 195.128 26.3799 195.077 28.9863C195.025 31.535 197.125 33.6255 199.671 33.6285C202.244 33.6285 204.307 31.5835 204.307 29.0287Z" fill="#B10AC0"/>
<path d="M69.0589 37.5881C69.0589 40.1489 69.0589 42.646 69.0589 45.1856C68.3822 44.9611 67.7481 44.7548 67.1109 44.5424C66.1825 44.2329 65.2571 43.9173 64.3256 43.623C64.0768 43.5441 64.0009 43.4228 64.0009 43.1709C64.007 38.4771 63.9888 33.7832 64.0131 29.0894C64.0282 26.1038 65.1509 23.5976 67.4417 21.6496C68.8586 20.4481 70.5001 19.7017 72.3388 19.462C75.2486 19.0827 77.8428 19.8534 80.0516 21.7983C82.1907 23.6825 83.2648 26.0886 83.3498 28.9195C83.3892 30.297 83.0828 31.6229 82.5275 32.8942C81.6476 34.921 80.2155 36.4503 78.31 37.5334C77.2996 38.1069 76.1982 38.4558 75.0422 38.6015C73.0427 38.8563 71.1251 38.5802 69.3107 37.6761C69.2561 37.6457 69.1893 37.6305 69.0589 37.5881ZM73.6769 33.6285C76.2377 33.6285 78.3039 31.5804 78.2979 29.0469C78.2918 26.5043 76.2377 24.3895 73.7193 24.4016C71.0432 24.4137 69.0589 26.5194 69.0619 29.0742C69.068 31.5926 71.1373 33.6285 73.6769 33.6285Z" fill="#B10AC0"/>
<path d="M163.891 20.4148C163.891 20.0325 163.891 19.7291 163.891 19.3953C165.584 19.3953 167.241 19.3953 168.928 19.3953C168.928 25.7428 168.928 32.0902 168.928 38.4498C167.253 38.4498 165.603 38.4498 163.919 38.4498C163.904 38.2132 163.888 37.9856 163.876 37.7732C158.852 39.621 154.552 38.7897 151.406 34.2839C149.048 30.9069 149.443 26.3557 151.673 23.3458C153.078 21.4494 154.935 20.2115 157.228 19.6411C159.513 19.0737 161.707 19.371 163.891 20.4148ZM159.519 33.6286C162.144 33.6407 164.089 31.5502 164.092 29.0561C164.098 26.3253 162.013 24.4411 159.531 24.4138C156.855 24.3835 154.874 26.5347 154.889 29.0895C154.904 31.6108 156.989 33.6437 159.519 33.6286Z" fill="#B10AC0"/>
<path d="M176.562 38.4649C176.362 38.4649 176.219 38.4649 176.08 38.4649C174.581 38.4649 173.082 38.4649 171.535 38.4649C171.535 32.0992 171.535 25.7518 171.535 19.3861C173.21 19.3861 174.857 19.3861 176.547 19.3861C176.547 19.7654 176.547 20.1355 176.547 20.5482C177.03 20.4025 177.457 20.2448 177.897 20.1446C181.408 19.3467 184.354 20.3176 186.672 23.0544C187.98 24.6018 188.571 26.4466 188.578 28.4704C188.584 31.6441 188.581 34.8178 188.578 37.9885C188.578 38.1372 188.559 38.2889 188.55 38.4437C186.869 38.4437 185.222 38.4437 183.526 38.4437C183.526 38.2889 183.526 38.1524 183.526 38.0158C183.526 34.8421 183.526 31.6684 183.526 28.4977C183.526 26.307 181.742 24.7111 179.563 24.9477C177.934 25.1237 176.562 26.659 176.562 28.3035C176.562 31.5349 176.562 34.7663 176.562 38.0007C176.562 38.1403 176.562 38.2798 176.562 38.4649Z" fill="#B10AC0"/>
</svg>
